<?xml version="1.0" encoding="UTF-8"?>
<svg width="1440px" height="880px" viewBox="0 0 1440 880" version="1.1" xmlns="http://www.w3.org/2000/svg" xmlns:xlink="http://www.w3.org/1999/xlink">
    <title>背景</title>
    <defs>
        <rect id="path-1" x="0" y="0" width="1440" height="880"></rect>
        <linearGradient x1="45.7828229%" y1="55.7650601%" x2="46.360234%" y2="47.8927054%" id="linearGradient-3">
            <stop stop-color="#1F5AE4" offset="0%"></stop>
            <stop stop-color="#36F7FE" stop-opacity="0.8" offset="100%"></stop>
        </linearGradient>
        <filter x="-0.2%" y="-0.6%" width="100.4%" height="101.2%" filterUnits="objectBoundingBox" id="filter-4">
            <feGaussianBlur stdDeviation="1" in="SourceGraphic"></feGaussianBlur>
        </filter>
        <linearGradient x1="50%" y1="0%" x2="50%" y2="100%" id="linearGradient-5">
            <stop stop-color="#A2C0C1" offset="0%"></stop>
            <stop stop-color="#6DDAE2" offset="100%"></stop>
        </linearGradient>
        <linearGradient x1="50%" y1="18.5211775%" x2="50%" y2="113.230045%" id="linearGradient-6">
            <stop stop-color="#A5FBFF" offset="0%"></stop>
            <stop stop-color="#2349E0" offset="100%"></stop>
            <stop stop-color="#2349E0" offset="100%"></stop>
        </linearGradient>
        <path d="M1341.60497,515.884615 C1344.39582,515.884615 1346.65865,518.149248 1346.65865,520.942308 C1346.65865,523.735368 1344.39582,526 1341.60497,526 C1338.81412,526 1336.55128,523.735368 1336.55128,520.942308 C1336.55128,518.149248 1338.81412,515.884615 1341.60497,515.884615 Z M856.451122,515.884615 C859.24202,515.884615 861.504808,518.149197 861.504808,520.942308 C861.504808,523.735418 859.24202,526 856.451122,526 C853.660224,526 851.397436,523.735418 851.397436,520.942308 C851.397436,518.149197 853.660224,515.884615 856.451122,515.884615 Z M1100.21715,494.463801 C1103.00799,494.463801 1105.27083,496.728433 1105.27083,499.521493 C1105.27083,502.314553 1103.00799,504.579186 1100.21715,504.579186 C1097.4263,504.579186 1095.16346,502.314553 1095.16346,499.521493 C1095.16346,496.728433 1097.4263,494.463801 1100.21715,494.463801 Z M457.507212,415.325792 C460.298059,415.325792 462.560897,417.590424 462.560897,420.383484 C462.560897,423.176544 460.298059,425.441176 457.507212,425.441176 C454.716364,425.441176 452.453526,423.176544 452.453526,420.383484 C452.453526,417.590424 454.716364,415.325792 457.507212,415.325792 Z M166.771635,413.540724 C169.562482,413.540724 171.825321,415.805356 171.825321,418.598416 C171.825321,421.391476 169.562482,423.656109 166.771635,423.656109 C163.980787,423.656109 161.717949,421.391476 161.717949,418.598416 C161.717949,415.805356 163.980787,413.540724 166.771635,413.540724 Z M327.895032,407.590498 C330.68588,407.590498 332.948718,409.85513 332.948718,412.64819 C332.948718,415.44125 330.68588,417.705882 327.895032,417.705882 C325.104185,417.705882 322.841346,415.44125 322.841346,412.64819 C322.841346,409.85513 325.104185,407.590498 327.895032,407.590498 Z M1341.60497,405.80543 C1344.39582,405.80543 1346.65865,408.070062 1346.65865,410.863122 C1346.65865,413.656182 1344.39582,415.920814 1341.60497,415.920814 C1338.81412,415.920814 1336.55128,413.656182 1336.55128,410.863122 C1336.55128,408.070062 1338.81412,405.80543 1341.60497,405.80543 Z M759.539263,396.285068 C762.33011,396.285068 764.592949,398.5497 764.592949,401.34276 C764.592949,404.13582 762.33011,406.400452 759.539263,406.400452 C756.748415,406.400452 754.485577,404.13582 754.485577,401.34276 C754.485577,398.5497 756.748415,396.285068 759.539263,396.285068 Z M1025.89824,393.904977 C1028.68908,393.904977 1030.95192,396.16961 1030.95192,398.96267 C1030.95192,401.75573 1028.68908,404.020362 1025.89824,404.020362 C1023.10739,404.020362 1020.84455,401.75573 1020.84455,398.96267 C1020.84455,396.16961 1023.10739,393.904977 1025.89824,393.904977 Z M5.0536859,387.954751 C7.8445334,387.954751 10.1073718,390.219383 10.1073718,393.012443 C10.1073718,395.805503 7.8445334,398.070136 5.0536859,398.070136 C2.2628384,398.070136 4.54747351e-13,395.805503 4.54747351e-13,393.012443 C4.54747351e-13,390.219383 2.2628384,387.954751 5.0536859,387.954751 Z M1197.72356,369.50905 C1200.51441,369.50905 1202.77724,371.773682 1202.77724,374.566742 C1202.77724,377.359802 1200.51441,379.624434 1197.72356,379.624434 C1194.93271,379.624434 1192.66987,377.359802 1192.66987,374.566742 C1192.66987,371.773682 1194.93271,369.50905 1197.72356,369.50905 Z M889.151442,368.319005 C891.94229,368.319005 894.205128,370.583637 894.205128,373.376697 C894.205128,376.169757 891.94229,378.434389 889.151442,378.434389 C886.360595,378.434389 884.097756,376.169757 884.097756,373.376697 C884.097756,370.583637 886.360595,368.319005 889.151442,368.319005 Z M1467.64984,356.418552 C1470.44069,356.418552 1472.70353,358.683184 1472.70353,361.476244 C1472.70353,364.269304 1470.44069,366.533937 1467.64984,366.533937 C1464.85899,366.533937 1462.59615,364.269304 1462.59615,361.476244 C1462.59615,358.683184 1464.85899,356.418552 1467.64984,356.418552 Z M511.611378,349.278281 C514.402226,349.278281 516.665064,351.542913 516.665064,354.335973 C516.665064,357.129033 514.402226,359.393665 511.611378,359.393665 C508.820531,359.393665 506.557692,357.129033 506.557692,354.335973 C506.557692,351.542913 508.820531,349.278281 511.611378,349.278281 Z M225.03766,334.997738 C227.828508,334.997738 230.091346,337.26237 230.091346,340.05543 C230.091346,342.84849 227.828508,345.113122 225.03766,345.113122 C222.246813,345.113122 219.983974,342.84849 219.983974,340.05543 C219.983974,337.26237 222.246813,334.997738 225.03766,334.997738 Z M633.494391,308.221719 C638.912425,308.221719 643.304487,312.617263 643.304487,318.039593 C643.304487,323.461922 638.912425,327.857466 633.494391,327.857466 C628.076357,327.857466 623.684295,323.461922 623.684295,318.039593 C623.684295,312.617263 628.076357,308.221719 633.494391,308.221719 Z M362.379006,300.486425 C365.169854,300.486425 367.432692,302.751058 367.432692,305.544118 C367.432692,308.337178 365.169854,310.60181 362.379006,310.60181 C359.588159,310.60181 357.325321,308.337178 357.325321,305.544118 C357.325321,302.751058 359.588159,300.486425 362.379006,300.486425 Z M1123.40465,284.420814 C1128.82268,284.420814 1133.21474,288.816358 1133.21474,294.238688 C1133.21474,299.661017 1128.82268,304.056561 1123.40465,304.056561 C1117.98661,304.056561 1113.59455,299.661017 1113.59455,294.238688 C1113.59455,288.816358 1117.98661,284.420814 1123.40465,284.420814 Z M978.928686,290.966063 C981.719533,290.966063 983.982372,293.230696 983.982372,296.023756 C983.982372,298.816816 981.719533,301.081448 978.928686,301.081448 C976.137838,301.081448 973.875,298.816816 973.875,296.023756 C973.875,293.230696 976.137838,290.966063 978.928686,290.966063 Z M1320.79567,258.239819 C1323.58652,258.239819 1325.84936,260.504451 1325.84936,263.297511 C1325.84936,266.090571 1323.58652,268.355204 1320.79567,268.355204 C1318.00483,268.355204 1315.74199,266.090571 1315.74199,263.297511 C1315.74199,260.504451 1318.00483,258.239819 1320.79567,258.239819 Z M852.289263,238.00905 C855.08011,238.00905 857.342949,240.273682 857.342949,243.066742 C857.342949,245.859802 855.08011,248.124434 852.289263,248.124434 C849.498415,248.124434 847.235577,245.859802 847.235577,243.066742 C847.235577,240.273682 849.498415,238.00905 852.289263,238.00905 Z M708.407853,236.223982 C711.1987,236.223982 713.461538,238.488614 713.461538,241.281674 C713.461538,244.074734 711.1987,246.339367 708.407853,246.339367 C705.617005,246.339367 703.354167,244.074734 703.354167,241.281674 C703.354167,238.488614 705.617005,236.223982 708.407853,236.223982 Z M432.72516,209.86086 C436.036285,209.86086 438.720407,212.54711 438.720407,215.86086 C438.720407,219.17461 436.036285,221.86086 432.72516,221.86086 C429.414035,221.86086 426.729913,219.17461 426.729913,215.86086 C426.729913,212.54711 429.414035,209.86086 432.72516,209.86086 Z M1071.67869,209.447964 C1074.46953,209.447964 1076.73237,211.712596 1076.73237,214.505656 C1076.73237,217.298716 1074.46953,219.563348 1071.67869,219.563348 C1068.88784,219.563348 1066.625,217.298716 1066.625,214.505656 C1066.625,211.712596 1068.88784,209.447964 1071.67869,209.447964 Z M1478.94631,175.531674 C1481.73716,175.531674 1484,177.796307 1484,180.589367 C1484,183.382427 1481.73716,185.647059 1478.94631,185.647059 C1476.15547,185.647059 1473.89263,183.382427 1473.89263,180.589367 C1473.89263,177.796307 1476.15547,175.531674 1478.94631,175.531674 Z M1251.23317,152.920814 C1254.02402,152.920814 1256.28686,155.185447 1256.28686,157.978507 C1256.28686,160.771567 1254.02402,163.036199 1251.23317,163.036199 C1248.44233,163.036199 1246.17949,160.771567 1246.17949,157.978507 C1246.17949,155.185447 1248.44233,152.920814 1251.23317,152.920814 Z M927.797276,119.599548 C930.588123,119.599548 932.850962,121.86418 932.850962,124.65724 C932.850962,127.4503 930.588123,129.714932 927.797276,129.714932 C925.006428,129.714932 922.74359,127.4503 922.74359,124.65724 C922.74359,121.86418 925.006428,119.599548 927.797276,119.599548 Z M1108.54087,117.219457 C1111.33171,117.219457 1113.59455,119.484089 1113.59455,122.277149 C1113.59455,125.070209 1111.33171,127.334842 1108.54087,127.334842 C1105.75002,127.334842 1103.48718,125.070209 1103.48718,122.277149 C1103.48718,119.484089 1105.75002,117.219457 1108.54087,117.219457 Z M1221.50561,42.841629 C1224.29646,42.841629 1226.55929,45.1062613 1226.55929,47.8993213 C1226.55929,50.6923813 1224.29646,52.9570136 1221.50561,52.9570136 C1218.71476,52.9570136 1216.45192,50.6923813 1216.45192,47.8993213 C1216.45192,45.1062613 1218.71476,42.841629 1221.50561,42.841629 Z M1374.89984,19.040724 C1380.31787,19.040724 1384.70994,23.4362677 1384.70994,28.8585973 C1384.70994,34.2809269 1380.31787,38.6764706 1374.89984,38.6764706 C1369.48181,38.6764706 1365.08974,34.2809269 1365.08974,28.8585973 C1365.08974,23.4362677 1369.48181,19.040724 1374.89984,19.040724 Z M1078.21875,0 C1081.0096,0 1083.27244,2.26463231 1083.27244,5.05769231 C1083.27244,7.85075231 1081.0096,10.1153846 1078.21875,10.1153846 C1075.4279,10.1153846 1073.16506,7.85075231 1073.16506,5.05769231 C1073.16506,2.26463231 1075.4279,0 1078.21875,0 Z" id="path-7"></path>
        <filter x="-0.4%" y="-1.1%" width="100.8%" height="102.3%" filterUnits="objectBoundingBox" id="filter-8">
            <feGaussianBlur stdDeviation="2" in="SourceGraphic"></feGaussianBlur>
        </filter>
        <linearGradient x1="137.966315%" y1="45.5659543%" x2="31.1577675%" y2="45.5659543%" id="linearGradient-9">
            <stop stop-color="#3367E2" offset="0%"></stop>
            <stop stop-color="#36F7FE" stop-opacity="0" offset="100%"></stop>
        </linearGradient>
        <filter x="0.0%" y="0.0%" width="100.0%" height="100.0%" filterUnits="objectBoundingBox" id="filter-10">
            <feGaussianBlur stdDeviation="0" in="SourceGraphic"></feGaussianBlur>
        </filter>
        <linearGradient x1="36.3467525%" y1="65.877722%" x2="56.196461%" y2="44.6850557%" id="linearGradient-11">
            <stop stop-color="#1F5AE4" stop-opacity="0" offset="0%"></stop>
            <stop stop-color="#36F7FE" offset="100%"></stop>
        </linearGradient>
        <filter x="0.0%" y="0.0%" width="100.0%" height="100.0%" filterUnits="objectBoundingBox" id="filter-12">
            <feGaussianBlur stdDeviation="0" in="SourceGraphic"></feGaussianBlur>
        </filter>
        <linearGradient x1="59.996575%" y1="41.6335561%" x2="30.1935716%" y2="70.051099%" id="linearGradient-13">
            <stop stop-color="#1F5AE4" stop-opacity="0" offset="0%"></stop>
            <stop stop-color="#36F7FE" offset="100%"></stop>
        </linearGradient>
        <filter x="-6.1%" y="-3.6%" width="112.3%" height="107.2%" filterUnits="objectBoundingBox" id="filter-14">
            <feGaussianBlur stdDeviation="3.5862069" in="SourceGraphic"></feGaussianBlur>
        </filter>
        <filter x="-2.5%" y="-1.4%" width="104.9%" height="102.9%" filterUnits="objectBoundingBox" id="filter-15">
            <feGaussianBlur stdDeviation="1.43448276" in="SourceGraphic"></feGaussianBlur>
        </filter>
        <filter x="-0.0%" y="0.0%" width="100.0%" height="100.0%" filterUnits="objectBoundingBox" id="filter-16">
            <feGaussianBlur stdDeviation="0" in="SourceGraphic"></feGaussianBlur>
        </filter>
        <filter x="0.0%" y="0.0%" width="100.0%" height="100.0%" filterUnits="objectBoundingBox" id="filter-17">
            <feGaussianBlur stdDeviation="0" in="SourceGraphic"></feGaussianBlur>
        </filter>
        <filter x="-6.1%" y="-3.6%" width="112.3%" height="107.2%" filterUnits="objectBoundingBox" id="filter-18">
            <feGaussianBlur stdDeviation="3.5862069" in="SourceGraphic"></feGaussianBlur>
        </filter>
        <filter x="-2.5%" y="-1.4%" width="104.9%" height="102.9%" filterUnits="objectBoundingBox" id="filter-19">
            <feGaussianBlur stdDeviation="1.43448276" in="SourceGraphic"></feGaussianBlur>
        </filter>
        <filter x="0.0%" y="0.0%" width="100.0%" height="100.0%" filterUnits="objectBoundingBox" id="filter-20">
            <feGaussianBlur stdDeviation="0" in="SourceGraphic"></feGaussianBlur>
        </filter>
        <linearGradient x1="19.7062966%" y1="45.721278%" x2="78.7614169%" y2="54.3362536%" id="linearGradient-21">
            <stop stop-color="#1F5AE4" offset="0%"></stop>
            <stop stop-color="#36F7FE" offset="100%"></stop>
        </linearGradient>
        <filter x="0.0%" y="0.0%" width="100.0%" height="100.0%" filterUnits="objectBoundingBox" id="filter-22">
            <feGaussianBlur stdDeviation="0" in="SourceGraphic"></feGaussianBlur>
        </filter>
        <linearGradient x1="88.6508935%" y1="33.4641794%" x2="50%" y2="66.5358206%" id="linearGradient-23">
            <stop stop-color="#35F5FD" offset="0%"></stop>
            <stop stop-color="#2349E0" offset="100%"></stop>
        </linearGradient>
        <filter x="-72.2%" y="-93.6%" width="244.4%" height="287.2%" filterUnits="objectBoundingBox" id="filter-24">
            <feGaussianBlur stdDeviation="17.2137931" in="SourceGraphic"></feGaussianBlur>
        </filter>
        <linearGradient x1="43.7018828%" y1="106.576554%" x2="45.0930171%" y2="51.2033675%" id="linearGradient-25">
            <stop stop-color="#42BEC3" offset="0%"></stop>
            <stop stop-color="#919DD0" stop-opacity="0.389450393" offset="100%"></stop>
        </linearGradient>
        <filter x="0.0%" y="0.0%" width="100.0%" height="100.0%" filterUnits="objectBoundingBox" id="filter-26">
            <feGaussianBlur stdDeviation="0" in="SourceGraphic"></feGaussianBlur>
        </filter>
        <linearGradient x1="88.6508935%" y1="48.6998642%" x2="-17.695159%" y2="56.7749086%" id="linearGradient-27">
            <stop stop-color="#35F5FD" offset="0%"></stop>
            <stop stop-color="#2349E0" offset="100%"></stop>
        </linearGradient>
        <linearGradient x1="88.6508935%" y1="33.1918494%" x2="50%" y2="66.8081506%" id="linearGradient-28">
            <stop stop-color="#35F5FD" offset="0%"></stop>
            <stop stop-color="#2349E0" offset="100%"></stop>
        </linearGradient>
        <filter x="-34.4%" y="-29.9%" width="168.7%" height="159.8%" filterUnits="objectBoundingBox" id="filter-29">
            <feGaussianBlur stdDeviation="10.0413793" in="SourceGraphic"></feGaussianBlur>
        </filter>
        <linearGradient x1="79.2811768%" y1="0%" x2="50%" y2="100%" id="linearGradient-30">
            <stop stop-color="#35F5FD" offset="0%"></stop>
            <stop stop-color="#2349E0" offset="100%"></stop>
        </linearGradient>
        <linearGradient x1="97.831853%" y1="191.170457%" x2="73.6734997%" y2="-74.41337%" id="linearGradient-31">
            <stop stop-color="#B5E9EB" offset="0%"></stop>
            <stop stop-color="#2349E0" offset="100%"></stop>
        </linearGradient>
        <linearGradient x1="84.0195593%" y1="-55.2319948%" x2="37.4372409%" y2="100%" id="linearGradient-32">
            <stop stop-color="#E7FEFF" offset="0%"></stop>
            <stop stop-color="#8599E6" offset="100%"></stop>
        </linearGradient>
        <linearGradient x1="42.1011323%" y1="124.361869%" x2="87.8790427%" y2="-16.6327858%" id="linearGradient-33">
            <stop stop-color="#A5FBFF" offset="0%"></stop>
            <stop stop-color="#2349E0" offset="100%"></stop>
        </linearGradient>
        <linearGradient x1="-6.58050385%" y1="41.8349072%" x2="50%" y2="56.3260823%" id="linearGradient-34">
            <stop stop-color="#E7FEFF" offset="0%"></stop>
            <stop stop-color="#8599E6" offset="100%"></stop>
        </linearGradient>
        <linearGradient x1="81.7432664%" y1="0%" x2="50%" y2="100%" id="linearGradient-35">
            <stop stop-color="#35F5FD" offset="0%"></stop>
            <stop stop-color="#2349E0" offset="100%"></stop>
        </linearGradient>
        <linearGradient x1="68.9152174%" y1="-55.2319948%" x2="39.8068204%" y2="70.0576144%" id="linearGradient-36">
            <stop stop-color="#E7FEFF" offset="0%"></stop>
            <stop stop-color="#8599E6" offset="100%"></stop>
        </linearGradient>
        <filter x="-26.1%" y="-23.6%" width="152.2%" height="147.3%" filterUnits="objectBoundingBox" id="filter-37">
            <feGaussianBlur stdDeviation="7.88965517" in="SourceGraphic"></feGaussianBlur>
        </filter>
        <linearGradient x1="82.1070614%" y1="-46.7598588%" x2="74.9831881%" y2="81.495824%" id="linearGradient-38">
            <stop stop-color="#E7FEFF" offset="0%"></stop>
            <stop stop-color="#8599E6" offset="100%"></stop>
        </linearGradient>
        <linearGradient x1="41.4369609%" y1="124.361869%" x2="91.0640785%" y2="-16.6327858%" id="linearGradient-39">
            <stop stop-color="#A5FBFF" offset="0%"></stop>
            <stop stop-color="#2349E0" offset="100%"></stop>
        </linearGradient>
        <linearGradient x1="97.2414726%" y1="-55.2319948%" x2="34.2724253%" y2="131.42247%" id="linearGradient-40">
            <stop stop-color="#E7FEFF" offset="0%"></stop>
            <stop stop-color="#8599E6" offset="100%"></stop>
        </linearGradient>
        <linearGradient x1="19.7062966%" y1="20.9294167%" x2="78.7614169%" y2="79.4614654%" id="linearGradient-41">
            <stop stop-color="#1F5AE4" offset="0%"></stop>
            <stop stop-color="#36F7FE" offset="100%"></stop>
        </linearGradient>
        <filter x="-5.1%" y="-5.5%" width="110.1%" height="111.0%" filterUnits="objectBoundingBox" id="filter-42">
            <feGaussianBlur stdDeviation="-1.43448276 -1.75673472e-16" in="SourceGraphic"></feGaussianBlur>
        </filter>
        <linearGradient x1="32.4763972%" y1="13.5266673%" x2="86.7493944%" y2="102.609696%" id="linearGradient-43">
            <stop stop-color="#1F5AE4" offset="0%"></stop>
            <stop stop-color="#36F7FE" offset="100%"></stop>
        </linearGradient>
        <filter x="-10.1%" y="-11.0%" width="120.2%" height="122.0%" filterUnits="objectBoundingBox" id="filter-44">
            <feGaussianBlur stdDeviation="-2.86896552 -3.51346944e-16" in="SourceGraphic"></feGaussianBlur>
        </filter>
        <filter x="-10.1%" y="-11.0%" width="120.2%" height="122.0%" filterUnits="objectBoundingBox" id="filter-45">
            <feGaussianBlur stdDeviation="2.86896552 0" in="SourceGraphic"></feGaussianBlur>
        </filter>
        <linearGradient x1="46.1073563%" y1="130.821291%" x2="46.9671672%" y2="51.7190462%" id="linearGradient-46">
            <stop stop-color="#42BEC3" offset="0%"></stop>
            <stop stop-color="#919DD0" stop-opacity="0.389450393" offset="100%"></stop>
        </linearGradient>
        <filter x="0.0%" y="0.0%" width="100.0%" height="100.0%" filterUnits="objectBoundingBox" id="filter-47">
            <feGaussianBlur stdDeviation="-0 0" in="SourceGraphic"></feGaussianBlur>
        </filter>
        <linearGradient x1="50%" y1="-9.3888226%" x2="50%" y2="65.2980061%" id="linearGradient-48">
            <stop stop-color="#35F5FD" offset="0%"></stop>
            <stop stop-color="#2349E0" stop-opacity="0" offset="100%"></stop>
        </linearGradient>
        <filter x="-156.3%" y="-9.2%" width="412.6%" height="118.4%" filterUnits="objectBoundingBox" id="filter-49">
            <feGaussianBlur stdDeviation="2.86896552" in="SourceGraphic"></feGaussianBlur>
        </filter>
        <filter x="-78.1%" y="-4.6%" width="256.3%" height="109.2%" filterUnits="objectBoundingBox" id="filter-50">
            <feGaussianBlur stdDeviation="1.43448276" in="SourceGraphic"></feGaussianBlur>
        </filter>
        <linearGradient x1="50%" y1="-9.3888226%" x2="50%" y2="65.2980061%" id="linearGradient-51">
            <stop stop-color="#35F5FD" offset="0%"></stop>
            <stop stop-color="#2349E0" stop-opacity="0" offset="100%"></stop>
        </linearGradient>
        <filter x="0.0%" y="0.0%" width="100.0%" height="100.0%" filterUnits="objectBoundingBox" id="filter-52">
            <feGaussianBlur stdDeviation="0" in="SourceGraphic"></feGaussianBlur>
        </filter>
        <filter x="-156.3%" y="-9.2%" width="412.6%" height="118.4%" filterUnits="objectBoundingBox" id="filter-53">
            <feGaussianBlur stdDeviation="2.86896552" in="SourceGraphic"></feGaussianBlur>
        </filter>
        <filter x="-78.1%" y="-4.6%" width="256.3%" height="109.2%" filterUnits="objectBoundingBox" id="filter-54">
            <feGaussianBlur stdDeviation="1.43448276" in="SourceGraphic"></feGaussianBlur>
        </filter>
        <linearGradient x1="50%" y1="-9.3888226%" x2="50%" y2="93.9422952%" id="linearGradient-55">
            <stop stop-color="#35F5FD" offset="0%"></stop>
            <stop stop-color="#2349E0" stop-opacity="0" offset="100%"></stop>
        </linearGradient>
        <filter x="0.0%" y="0.0%" width="100.0%" height="100.0%" filterUnits="objectBoundingBox" id="filter-56">
            <feGaussianBlur stdDeviation="0" in="SourceGraphic"></feGaussianBlur>
        </filter>
        <filter x="-156.3%" y="-9.2%" width="412.6%" height="118.4%" filterUnits="objectBoundingBox" id="filter-57">
            <feGaussianBlur stdDeviation="2.86896552" in="SourceGraphic"></feGaussianBlur>
        </filter>
        <filter x="-78.1%" y="-4.6%" width="256.3%" height="109.2%" filterUnits="objectBoundingBox" id="filter-58">
            <feGaussianBlur stdDeviation="1.43448276" in="SourceGraphic"></feGaussianBlur>
        </filter>
        <linearGradient x1="50%" y1="-9.3888226%" x2="50%" y2="130.508236%" id="linearGradient-59">
            <stop stop-color="#35F5FD" offset="0%"></stop>
            <stop stop-color="#2349E0" stop-opacity="0" offset="100%"></stop>
        </linearGradient>
        <filter x="0.0%" y="0.0%" width="100.0%" height="100.0%" filterUnits="objectBoundingBox" id="filter-60">
            <feGaussianBlur stdDeviation="0" in="SourceGraphic"></feGaussianBlur>
        </filter>
    </defs>
    <g id="登录页" stroke="none" stroke-width="1" fill="none" fill-rule="evenodd">
        <g id="Zues-V0.2.0登录页" transform="translate(0.000000, -7.000000)">
            <g id="背景" transform="translate(0.000000, 7.000000)">
                <g id="底纹">
                    <mask id="mask-2" fill="white">
                        <use xlink:href="#path-1"></use>
                    </mask>
                    <use id="蒙版" fill="#151822" xlink:href="#path-1"></use>
                    <g mask="url(#mask-2)" id="形状结合">
                        <g transform="translate(-0.741648, 371.000000)">
                            <path d="M1374,24 L1249,155 M1318,260 L1374,24 M1476,177 L1318,261 M1248,154 L1318,260 M1374,24 L1106,120 M1220,44 L1121,291 M1106,120 L1121,292 M1069,212 L1121,292 M1106,120 L1248,155 M1196,372 L1249,155 M1121,291 L1248,154 M1318,260 L1121,292 M1340,408 L1318,261 M1465,359 L1340,408 M1195,372 L1340,408 M1318,260 L1196,372 M1121,292 L1340,409 M1318,260 L1106,120 M1374,24 L1476,177 M1219,44 L1374,24 M1106,120 L1220,44 M1068,212 L1106,120 M1122,291 L977,293 M1069,212 L977,293 M924,121 L1069,212 M848,238 L1069,211 M1106,120 L848,238 M923,121 L847,238 M1075,1 L1106,120 M1220,44 L1075,1 M1106,120 L923,121 M848,238 L887,370 M976,293 L848,238 M1024,396 L977,293 M887,370 L977,293 M1024,396 L1069,211 M1196,372 L1024,396 M1120,291 L1023,396 M1195,372 L1121,292 M1023,397 L886,370 M848,238 L1023,396 M924,121 L977,293 M848,238 L705,236 M631,315 L705,237 M757,399 L705,237 M631,315 L848,238 M886,371 L704,237 M757,398 L887,370 M631,315 L758,398 M848,238 L757,399 M631,315 L509,351 M431,216 L631,315 M704,237 L601,534 M509,351 L758,399 M431,217 L508,351 M705,237 L431,217 M631,315 L359,302 M508,351 L454,416 M431,216 L359,302 M324,408 L454,416 M431,217 L454,416 M508,351 L324,409 M359,303 L324,409 M509,351 L359,303 M221,335 L358,302 M324,409 L222,335 M165,415 L221,335 M359,303 L165,415 M324,409 L164,415 M0,389 L165,415 M165,414 L13,484 M324,409 L221,508 M509,351 L484,523 M454,416 L338,521 M359,302 L454,416 M222,335 L228,484 M165,415 L151,505 M509,351 L586,504 M630,315 L587,520 M757,398 L674,525 M704,237 L870,501 M886,370 L855,525 M757,398 L862,517 M1099,498 L853,517 M1024,396 L850,521 M887,371 L1099,498 M1024,397 L1099,497 M1196,372 L1099,497 M1121,292 L1098,498 M1195,372 L1339,516 M1340,409 L1099,498 M1318,260 L1465,359 M1374,24 L1465,359 M1339,516 L1340,408 M1465,359 L1196,372 M1340,408 L1106,120 M976,293 L1106,119 M1249,154 L1075,1 M1068,211 L1075,0 M324,408 L432,521 M454,416 L518,499 M630,315 L694,514 M1479,180 L1220,44 M1248,156 L1221,46 M1219,43 L1465,358" stroke="url(#linearGradient-3)" stroke-width="1" opacity="0.531608945" filter="url(#filter-4)"></path>
                            <g stroke="none" filter="url(#filter-8)" fill-rule="evenodd">
                                <use fill="url(#linearGradient-5)" xlink:href="#path-7"></use>
                                <use fill="url(#linearGradient-6)" xlink:href="#path-7"></use>
                            </g>
                        </g>
                    </g>
                </g>
                <g id="主图形" transform="translate(208.000000, 201.000000)">
                    <polygon id="形状结合备份-8" fill="url(#linearGradient-9)" fill-rule="nonzero" style="mix-blend-mode: multiply;" opacity="0.303943452" filter="url(#filter-10)" points="260 2.52603494e-13 520 150.442457 520 328.557543 260 479 0 328.557543 0 150.442457"></polygon>
                    <path d="M237.765517,52.3458084 L408.827586,151.163025 L408.827586,314.212724 L237.765517,413.02994 L66.7034483,314.212724 L66.7034483,151.163025 L237.765517,52.3458084 Z M238.153448,213.109808 L68.8594483,313.792808 L237.765517,411.365193 L406.671448,313.792808 L238.11684,213.171784 L238.153448,213.109808 Z M237.044448,54.4258084 L68.143971,151.995626 L68.1434483,312.540808 L237.045256,212.091821 L237.044448,54.4258084 Z M238.485448,54.4258084 L238.485448,212.551808 L238.854717,211.933457 L407.386448,312.540808 L407.387064,151.995626 L238.485448,54.4258084 Z" id="形状结合" fill="#979797" fill-rule="nonzero" opacity="0.114653088"></path>
                    <g id="编组-39" transform="translate(65.648187, 162.769485)" fill-rule="nonzero">
                        <path d="M90.7095391,-0.144423848 L90.7279224,1.64784053 L88.4156103,197.908235 L258.884539,296.446047 L258.828539,298.189047 L86.8795391,198.796629 L89.1918512,0.759446503 L90.7095391,-0.144423848 Z" id="形状结合" fill="url(#linearGradient-11)" filter="url(#filter-12)" transform="translate(172.882039, 149.022241) rotate(-240.000000) translate(-172.882039, -149.022241) "></path>
                        <path d="M88.7336171,3.1430238 L88.7520004,4.93528818 L86.4396883,201.195683 L260.232617,298.527871 L260.189617,300.279871 L84.9036171,202.084077 L87.2159292,4.04689415 L88.7336171,3.1430238 Z" id="形状结合备份-5" fill="url(#linearGradient-13)" filter="url(#filter-14)" transform="translate(172.568117, 151.711688) scale(1, -1) rotate(-240.000000) translate(-172.568117, -151.711688) "></path>
                        <path d="M88.7336171,3.1430238 L88.7520004,4.93528818 L86.4396883,201.195683 L260.232617,298.527871 L260.189617,300.279871 L84.9036171,202.084077 L87.2159292,4.04689415 L88.7336171,3.1430238 Z" id="形状结合备份-6" fill="url(#linearGradient-13)" filter="url(#filter-15)" transform="translate(172.568117, 151.711688) scale(1, -1) rotate(-240.000000) translate(-172.568117, -151.711688) "></path>
                        <path d="M88.7336171,3.1430238 L88.7520004,4.93528818 L86.4396883,201.195683 L260.232617,298.527871 L260.189617,300.279871 L84.9036171,202.084077 L87.2159292,4.04689415 L88.7336171,3.1430238 Z" id="形状结合备份-4" fill="url(#linearGradient-13)" filter="url(#filter-16)" transform="translate(172.568117, 151.711688) scale(1, -1) rotate(-240.000000) translate(-172.568117, -151.711688) "></path>
                    </g>
                    <g id="编组-39备份" transform="translate(65.648187, 169.940144)" fill-rule="nonzero">
                        <path d="M90.7095391,-0.144423848 L90.7279224,1.64784053 L88.4156103,197.908235 L258.884539,296.446047 L258.828539,298.189047 L86.8795391,198.796629 L89.1918512,0.759446503 L90.7095391,-0.144423848 Z" id="形状结合" fill="url(#linearGradient-11)" filter="url(#filter-17)" transform="translate(172.882039, 149.022241) rotate(-240.000000) translate(-172.882039, -149.022241) "></path>
                        <path d="M88.7336171,3.1430238 L88.7520004,4.93528818 L86.4396883,201.195683 L260.232617,298.527871 L260.189617,300.279871 L84.9036171,202.084077 L87.2159292,4.04689415 L88.7336171,3.1430238 Z" id="形状结合备份-5" fill="url(#linearGradient-13)" filter="url(#filter-18)" transform="translate(172.568117, 151.711688) scale(1, -1) rotate(-240.000000) translate(-172.568117, -151.711688) "></path>
                        <path d="M88.7336171,3.1430238 L88.7520004,4.93528818 L86.4396883,201.195683 L260.232617,298.527871 L260.189617,300.279871 L84.9036171,202.084077 L87.2159292,4.04689415 L88.7336171,3.1430238 Z" id="形状结合备份-6" fill="url(#linearGradient-13)" filter="url(#filter-19)" transform="translate(172.568117, 151.711688) scale(1, -1) rotate(-240.000000) translate(-172.568117, -151.711688) "></path>
                        <path d="M88.7336171,3.1430238 L88.7520004,4.93528818 L86.4396883,201.195683 L260.232617,298.527871 L260.189617,300.279871 L84.9036171,202.084077 L87.2159292,4.04689415 L88.7336171,3.1430238 Z" id="形状结合备份-4" fill="url(#linearGradient-13)" filter="url(#filter-20)" transform="translate(172.568117, 151.711688) scale(1, -1) rotate(-240.000000) translate(-172.568117, -151.711688) "></path>
                    </g>
                    <g id="编组-38" transform="translate(104.000000, 73.140719)">
                        <g id="编组-35" transform="translate(23.601855, 29.823541)">
                            <g id="编组-34备份-4" transform="translate(19.345092, 147.749857)" fill-rule="nonzero">
                                <path d="M87.0402703,100.931143 C135.083619,100.931143 174.080541,78.392209 174.080541,50.4655713 C174.080541,22.5389336 135.083619,0 87.0402703,0 C38.996922,0 0,22.5389336 0,50.4655713 C0,78.392209 38.996922,100.931143 87.0402703,100.931143 Z M87.0402703,100.174342 C39.3605712,100.174342 0.75863106,77.8636951 0.75863106,50.4655713 C0.75863106,23.0674475 39.3605712,0.756800376 87.0402703,0.756800376 C134.719969,0.756800376 173.32191,23.0674475 173.32191,50.4655713 C173.32191,77.8636951 134.719969,100.174342 87.0402703,100.174342 Z" id="椭圆形备份-7" fill="#979797" opacity="0.26"></path>
                                <path d="M87.471761,50.2770996 C135.571591,50.2770996 174.564207,74.5089653 174.564207,104.400487 C174.564207,106.814642 174.309865,109.191881 173.816927,111.522419 C168.207331,84.9964178 131.687418,64.5200962 87.471761,64.5200962 C43.2566608,64.5200962 6.73711073,84.9959022 1.12659547,111.521551 C0.633583897,109.191199 0.37931553,106.814296 0.37931553,104.400487 C0.37931553,74.5089653 39.3719316,50.2770996 87.471761,50.2770996 Z" id="形状结合" fill="url(#linearGradient-21)" filter="url(#filter-22)" transform="translate(87.471761, 80.899826) scale(1, -1) translate(-87.471761, -80.899826) "></path>
                            </g>
                            <ellipse id="椭圆形" fill="url(#linearGradient-23)" opacity="0.306315104" cx="105.626731" cy="83.91815" rx="66.8719231" ry="38.4566709"></ellipse>
                            <ellipse id="椭圆形备份-15" fill="url(#linearGradient-23)" opacity="0.130929129" cx="105.962496" cy="195.913194" rx="66.8719231" ry="38.4566709"></ellipse>
                            <ellipse id="椭圆形" fill="#32E0FA" filter="url(#filter-24)" cx="107.314685" cy="196.428238" rx="35.7715618" ry="27.5916804"></ellipse>
                            <path d="M38.5496968,52.5836113 L39.3364254,101.779514 C52.7227027,109.46753 62.2449791,114.306044 67.9032544,116.295056 C85.9530386,122.639964 98.9788744,122.355123 105.626731,122.374821 C115.40056,122.403782 120.847251,122.03201 121.966807,121.259505 L121.966807,89.2225689 C102.07018,91.5285772 84.6154118,89.774918 69.6025019,83.9615913 C69.6025019,83.7968209 56.6062389,80.236566 45.2315152,67.7316939 C42.1548228,64.3493133 39.92755,59.2999524 38.5496968,52.5836113 Z" id="路径-11" fill="url(#linearGradient-25)" opacity="0.512555804"></path>
                            <g id="编组-34" transform="translate(19.345092, 106.554690)" fill-rule="nonzero">
                                <path d="M87.0402703,100.931143 C135.083619,100.931143 174.080541,78.392209 174.080541,50.4655713 C174.080541,22.5389336 135.083619,0 87.0402703,0 C38.996922,0 0,22.5389336 0,50.4655713 C0,78.392209 38.996922,100.931143 87.0402703,100.931143 Z M87.0402703,100.174342 C39.3605712,100.174342 0.75863106,77.8636951 0.75863106,50.4655713 C0.75863106,23.0674475 39.3605712,0.756800376 87.0402703,0.756800376 C134.719969,0.756800376 173.32191,23.0674475 173.32191,50.4655713 C173.32191,77.8636951 134.719969,100.174342 87.0402703,100.174342 Z" id="椭圆形备份-7" fill="#979797" opacity="0.114653088"></path>
                                <path d="M87.471761,50.2770996 C135.571591,50.2770996 174.564207,74.5089653 174.564207,104.400487 C174.564207,106.814642 174.309865,109.191881 173.816927,111.522419 C168.207331,84.9964178 131.687418,64.5200962 87.471761,64.5200962 C43.2566608,64.5200962 6.73711073,84.9959022 1.12659547,111.521551 C0.633583897,109.191199 0.37931553,106.814296 0.37931553,104.400487 C0.37931553,74.5089653 39.3719316,50.2770996 87.471761,50.2770996 Z" id="形状结合" fill="url(#linearGradient-21)" filter="url(#filter-26)" transform="translate(87.471761, 80.899826) scale(1, -1) translate(-87.471761, -80.899826) "></path>
                            </g>
                            <g id="编组-34备份-5" transform="translate(0.000000, 22.928248)">
                                <path d="M106.764678,152.393568 C154.808026,152.393568 193.804948,129.854635 193.804948,101.927997 C193.804948,74.0013591 154.808026,51.4624255 106.764678,51.4624255 C58.7213296,51.4624255 19.7244076,74.0013591 19.7244076,101.927997 C19.7244076,129.854635 58.7213296,152.393568 106.764678,152.393568 Z M106.764678,151.636768 C59.0849787,151.636768 20.4830386,129.326121 20.4830386,101.927997 C20.4830386,74.529873 59.0849787,52.2192259 106.764678,52.2192259 C154.444377,52.2192259 193.046317,74.529873 193.046317,101.927997 C193.046317,129.326121 154.444377,151.636768 106.764678,151.636768 Z" id="椭圆形备份-7" fill="#979797" fill-rule="nonzero" opacity="0.26"></path>
                                <path d="M106.502753,147.612917 C108.580966,147.612917 110.26569,149.293576 110.26569,151.366774 C110.26569,153.439972 108.580966,155.120631 106.502753,155.120631 C104.42454,155.120631 102.739816,153.439972 102.739816,151.366774 C102.739816,149.293576 104.42454,147.612917 106.502753,147.612917 Z M46.2462767,134.822585 C48.3244896,134.822585 50.009214,136.503244 50.009214,138.576442 C50.009214,140.64964 48.3244896,142.330299 46.2462767,142.330299 C44.1680638,142.330299 42.4833394,140.64964 42.4833394,138.576442 C42.4833394,136.503244 44.1680638,134.822585 46.2462767,134.822585 Z M164.596963,134.822585 C166.675176,134.822585 168.359901,136.503244 168.359901,138.576442 C168.359901,140.64964 166.675176,142.330299 164.596963,142.330299 C162.51875,142.330299 160.834026,140.64964 160.834026,138.576442 C160.834026,136.503244 162.51875,134.822585 164.596963,134.822585 Z" id="形状结合" fill="url(#linearGradient-27)"></path>
                                <path d="M106.006047,122.923693 C164.517876,122.923693 212.012094,95.4736027 212.012094,61.4618463 C212.012094,27.45009 164.517876,0 106.006047,0 C47.4942177,0 0,27.45009 0,61.4618463 C0,95.4736027 47.4942177,122.923693 106.006047,122.923693 Z M105.840744,118.759694 C50.1926907,118.759694 5.13949501,92.6929688 5.13949501,60.6822722 C5.13949501,28.6715756 50.1926907,2.60485075 105.840744,2.60485075 C161.488797,2.60485075 206.541993,28.6715756 206.541993,60.6822722 C206.541993,92.6929688 161.488797,118.759694 105.840744,118.759694 Z" id="椭圆形备份-11" fill="url(#linearGradient-28)"></path>
                                <polygon id="路径-10" fill="#979797" fill-rule="nonzero" opacity="0.182849702" points="106.208348 52.2192259 106.208348 236.722562 107.596693 236.722562 107.596693 52.2192259"></polygon>
                            </g>
                            <g id="编组-31" transform="translate(14.572951, 0.000000)">
                                <g id="编组" transform="translate(0.000000, 19.016012)">
                                    <path d="M25.4616983,104.958263 C8.10784215,94.9382175 -0.359771788,81.6525235 0.0986926184,68.4686195 C0.542480572,56.0857892 8.86053448,43.7949884 25.0675308,34.3989295 C37.2357073,27.3447391 51.71228,23.3714409 66.9604148,20.7290825 L66.9925632,26.354029 L67.0254105,32.6698929 C56.5170708,34.3968379 46.6293354,37.6471478 38.3972436,42.4194283 C37.1818936,43.1242895 36.0252494,43.8486722 34.9259133,44.5925763 C30.6285083,47.497776 27.214486,50.6909162 24.6754598,54.0534741 C24.2128022,54.6690947 23.9269608,55.0797409 23.6502048,55.4924787 C19.444353,61.75187 18.1961557,68.5306696 19.9084085,75.1156496 C19.9559322,75.3017999 20.0111436,75.4872531 20.0642584,75.672009 C20.0978046,75.7884401 20.1278564,75.9055684 20.1628003,76.0219995 C22.4586167,83.6325492 28.7219673,90.938426 38.9409712,96.8241224 C46.1736665,100.990543 54.6280018,104.010082 63.6267635,105.87786 L63.6071949,106.192991 L66.7486545,106.477445 C73.0434547,107.587375 79.5528106,108.150009 86.0600699,108.163256 L87.7324865,108.307575 C80.4208179,113.328753 70.3108391,117.143788 57.3773905,119.791027 C44.4509306,122.429202 26.1899299,121.885392 2.66427621,118.174935 L25.4616983,104.958263 Z" id="Fill-19备份" fill="#212549" filter="url(#filter-29)"></path>
                                    <path d="M25.4616983,97.1099633 C8.10784215,87.0899173 -0.359771788,73.8042233 0.0986926184,60.6203193 C0.542480572,48.2374891 8.86053448,35.9466882 25.0675308,26.5506293 C37.2357073,19.4964389 51.71228,15.5231407 66.9604148,12.8807823 L66.9925632,18.5057288 L67.0254105,24.8215927 C56.5170708,26.5485377 46.6293354,29.7988476 38.3972436,34.5711281 C37.1818936,35.2759893 36.0252494,36.000372 34.9259133,36.7442761 C30.6285083,39.6494759 27.214486,42.842616 24.6754598,46.2051739 C24.2128022,46.8207946 23.9269608,47.2314407 23.6502048,47.6441785 C19.444353,53.9035699 18.1961557,60.6823694 19.9084085,67.2673494 C19.9559322,67.4534998 20.0111436,67.6389529 20.0642584,67.8237088 C20.0978046,67.9401399 20.1278564,68.0572682 20.1628003,68.1736993 C22.4586167,75.784249 28.7219673,83.0901258 38.9409712,88.9758222 C46.1736665,93.1422426 54.6280018,96.1617819 63.6267635,98.0295597 L63.6071949,98.3446906 L66.7486545,98.629145 C73.0434547,99.739075 79.5528106,100.301709 86.0600699,100.314956 L87.7324865,100.459274 C80.4208179,105.480453 70.3108391,109.295488 57.3773905,111.942727 C44.4509306,114.580902 26.1899299,114.037092 2.66427621,110.326635 L25.4616983,97.1099633 Z" id="Fill-19备份-2" fill="url(#linearGradient-30)" opacity="0.422363281"></path>
                                    <path d="M0.000360389834,61.3917989 L0.0807314366,48.6722406 C0.0443897459,61.5479857 8.51759471,74.4453437 25.461908,84.2290415 L25.3808381,96.9485997 C8.43652479,87.1655992 -0.0366801796,75.3241529 0.000360389834,62.4477107 L0.000360389834,61.3917989 Z" id="Fill-9" fill="url(#linearGradient-31)"></path>
                                    <polygon id="Fill-11" fill="#29ABE2" points="63.6270431 85.1490563 63.546672 113.565215 63.5257057 113.880346 63.6067756 85.4641871"></polygon>
                                    <path d="M19.1397186,76.998555 L19.2207886,48.5823964 C19.2340672,43.8854127 20.7289687,39.1960981 23.7047941,34.7668362 C23.9822489,34.3540985 24.2673914,33.9434523 24.7300491,33.3278316 C27.2690753,29.9652737 30.6830976,26.7721336 34.9805025,23.8669338 C36.0798387,23.1230297 37.2371817,22.3986471 38.4518329,21.6937858 C46.6846236,16.9215053 56.572359,13.6711954 67.0806986,11.9442504 L66.9996287,24.6638087 C56.491289,26.3907537 46.6035536,29.6410636 38.3714618,34.413344 C37.1561118,35.1175081 35.9994676,35.842588 34.8994326,36.586492 C30.6020277,39.4916918 27.1887042,42.684832 24.649678,46.0473898 C24.1870204,46.6630105 23.901179,47.0743539 23.624423,47.4870917 C20.6485977,51.9156564 19.1529973,56.6056681 19.1397186,61.3019546" id="Fill-5" fill="url(#linearGradient-32)"></path>
                                    <path d="M25.4616983,84.2291809 C8.10784215,74.209135 -0.359771788,60.9234409 0.0986926184,47.7395369 C0.542480572,35.3567067 8.86053448,23.0659059 25.0675308,13.669847 C37.2357073,6.61565654 51.71228,2.64235834 66.9604148,0 L66.9925632,5.62494646 L67.0254105,11.9408104 C56.5170708,13.6677554 46.6293354,16.9180653 38.3972436,21.6903457 C37.1818936,22.395207 36.0252494,23.1195897 34.9259133,23.8634937 C30.6285083,26.7686935 27.214486,29.9618337 24.6754598,33.3243915 C24.2128022,33.9400122 23.9269608,34.3506584 23.6502048,34.7633962 C19.444353,41.0227875 18.1961557,47.801587 19.9084085,54.3865671 C19.9559322,54.5727174 20.0111436,54.7581705 20.0642584,54.9429265 C20.0978046,55.0593576 20.1278564,55.1764858 20.1628003,55.2929169 C22.4586167,62.9034667 28.7219673,70.2093435 38.9409712,76.0950398 C46.1736665,80.2614603 54.6280018,83.2809996 63.6267635,85.1487774 L63.6071949,85.4639083 L66.7486545,85.7483627 C73.0434547,86.8582926 79.5528106,87.4209267 86.0600699,87.4341734 L87.7324865,87.5784921 C80.4208179,92.5996702 70.3108391,96.4147057 57.3773905,99.0619444 C44.4509306,101.70012 26.1899299,101.15631 2.66427621,97.445853 L25.4616983,84.2291809 Z" id="Fill-19" fill="url(#linearGradient-33)"></path>
                                    <path d="M87.6514865,100.297841 C80.3398179,105.319019 70.2298391,109.134055 57.2963904,111.781294 C44.3699306,114.419469 26.1096288,113.875659 2.58397505,110.165202 L2.6643461,97.4456438 C26.1899998,101.156798 44.4510005,101.69991 57.3767615,99.0624325 C70.310909,96.4144966 80.4208878,92.599461 87.7325564,87.578283 L87.6514865,100.297841 Z" id="Fill-21" fill="url(#linearGradient-34)"></path>
                                </g>
                                <g id="编组-30" transform="translate(88.166664, 0.000000)">
                                    <path d="M51.3176821,106.396617 C77.1789884,91.4041968 76.9238977,67.0498798 50.7648691,51.9842541 C43.8480669,47.9998008 35.806769,45.0757769 27.253193,43.1856889 C18.4480206,41.2565581 9.20185587,40.4268995 0.080790374,40.69741 C12.2238072,35.154035 24.5764877,31.3487602 37.1304452,29.2808882 C50.2365168,27.1279587 67.2702866,27.564401 88.223368,30.5950954 L65.4259458,43.8110703 C84.8827279,55.042139 93.159548,70.3824584 90.2144733,85.0792694 C88.0549382,95.8041766 79.9199905,106.185368 65.8019425,114.371101 C53.628175,121.428081 39.1543978,125.39859 23.9202406,128.036765 L23.8517505,115.939784 C33.9204955,114.173099 43.3896025,110.992508 51.3176821,106.396617" id="Fill-13备份" fill="url(#linearGradient-35)"></path>
                                    <polygon id="Fill-3" fill="url(#linearGradient-36)" points="88.2231583 2.65667327 88.1420884 31.0728319 65.346064 44.2888067 65.426435 15.8726481"></polygon>
                                    <path d="M51.3176821,110.61378 C77.1789884,95.6213593 76.9238977,71.2670422 50.7648691,56.2014165 C43.8480669,52.2169633 35.806769,49.2929393 27.253193,47.4028513 C18.4480206,45.4737206 9.20185587,44.6440619 0.080790374,44.9145724 C12.2238072,39.3711975 24.5764877,35.5659226 37.1304452,33.4980506 C50.2365168,31.3451211 67.2702866,31.7815635 88.223368,34.8122578 L65.4259458,48.0282327 C84.8827279,59.2593014 93.159548,74.5996208 90.2144733,89.2964318 C88.0549382,100.021339 79.9199905,110.402531 65.8019425,118.588264 C53.628175,125.645243 39.1543978,129.615752 23.9202406,132.253928 L23.8517505,120.156946 C33.9204955,118.390261 43.3896025,115.209671 51.3176821,110.61378" id="Fill-13备份-2" fill="#212549" filter="url(#filter-37)"></path>
                                    <path d="M0,41.1744493 L0.0803710468,12.7589879 C8.8220619,12.4990804 17.6773606,13.2502118 26.1504898,15.0117683 L27.2536123,15.2469879 C35.8064894,17.1370758 43.8477874,20.0610998 50.7645896,24.0455531 C63.9740953,31.6533141 70.5784987,41.6287397 70.5499375,51.5720945 L70.4694736,79.9882531 C70.4974287,70.0455955 63.8937242,60.0694727 50.6842185,52.4610145 C43.7667175,48.4772585 35.7261184,45.5539317 27.1732413,43.6638437 C18.3672303,41.7342946 9.12176437,40.9046359 0,41.1744493 Z" id="形状结合" fill="url(#linearGradient-38)"></path>
                                    <path d="M51.3176821,78.4579163 C77.1789884,63.4654958 76.9238977,39.1111788 50.7648691,24.0455531 C43.8480669,20.0610998 35.806769,17.1370758 27.253193,15.2469879 C18.4480206,13.3178571 9.20185587,12.4881984 0.080790374,12.758709 C12.2238072,7.21533401 24.5764877,3.41005913 37.1304452,1.34218714 C50.2365168,-0.810742293 67.2702866,-0.374299992 88.223368,2.65639439 L65.4259458,15.8723692 C84.8827279,27.103438 93.159548,42.4437574 90.2144733,57.1405684 C88.0549382,67.8654756 79.9199905,78.2466671 65.8019425,86.4324004 C53.628175,93.4893796 39.1543978,97.459889 23.9202406,100.098064 L23.8517505,88.0010828 C33.9204955,86.2343978 43.3896025,83.0538071 51.3176821,78.4579163" id="Fill-13" fill="url(#linearGradient-39)"></path>
                                    <path d="M90.7941232,51.4141108 L90.7137522,79.8302694 C90.7081612,81.7426675 90.5152707,83.6550657 90.1343818,85.5563087 C87.9748467,96.2819131 79.8392001,106.663802 65.7204533,114.848141 C53.5473846,121.905817 39.0736074,125.876327 23.8394502,128.513805 L23.9198213,100.098343 C39.1539785,97.4594707 53.6277557,93.4889613 65.8015232,86.4319821 C79.9195712,78.246946 88.0552177,67.8650573 90.2147528,57.1401501 C90.5956417,55.238907 90.7885322,53.3272061 90.7941232,51.4141108" id="Fill-15" fill="url(#linearGradient-40)"></path>
                                    <polygon id="Fill-17" fill="#29ABE2" points="23.9201707 100.098134 23.8397997 128.514293 23.7713096 116.417311 23.8516806 88.0004553"></polygon>
                                </g>
                            </g>
                            <path d="M96.3347222,12.7135219 C63.2744432,15.3878724 38.1563326,31.7932737 38.1563326,51.4832061 C38.1563326,73.1629119 68.4768592,90.6333691 105.814984,90.6333691 C111.738473,90.6333691 117.561452,90.1936256 123.181306,89.3339284 L123.062059,88.5581663 C117.481802,89.411806 111.698687,89.8485391 105.814984,89.8485391 C68.8539244,89.8485391 38.9430611,72.6141267 38.9430611,51.4832061 C38.9430611,32.2830147 63.7524218,16.1050605 96.5078263,13.4869798 C97.445921,13.4119996 97.3155714,12.6341779 96.3347222,12.7135219 Z" id="形状结合" fill="url(#linearGradient-41)" fill-rule="nonzero" filter="url(#filter-42)"></path>
                            <path d="M98.5110655,22.714812 C64.000258,24.6201061 37.3696041,41.411893 37.3696041,61.6859964 C37.3696041,83.3657021 67.6901307,100.836159 105.028256,100.836159 C110.951744,100.836159 116.774723,100.396416 122.394577,99.5367186 L122.27533,98.7609565 C116.695074,99.6145963 110.911959,100.051329 105.028256,100.051329 C68.0671959,100.051329 38.1563326,82.816917 38.1563326,61.6859964 C38.1563326,41.9359232 64.407092,25.3836763 98.5545382,23.4984429 L98.5110655,22.714812 Z" id="形状结合备份" fill="url(#linearGradient-43)" fill-rule="nonzero" filter="url(#filter-44)"></path>
                            <path d="M98.5110655,29.3368153 C64.000258,31.2421093 37.3696041,48.0338963 37.3696041,68.3079997 C37.3696041,89.9877054 67.6901307,107.458163 105.028256,107.458163 C110.951744,107.458163 116.774723,107.018419 122.394577,106.158722 L122.27533,105.38296 C116.695074,106.2366 110.911959,106.673333 105.028256,106.673333 C68.0671959,106.673333 38.1563326,89.4389202 38.1563326,68.3079997 C38.1563326,48.5579265 64.407092,32.0056796 98.5545382,30.1204462 L98.5110655,29.3368153 Z" id="形状结合备份-2" fill="url(#linearGradient-43)" fill-rule="nonzero" filter="url(#filter-45)"></path>
                            <path d="M96.8706893,13.5634987 L96.8706893,45.8281769 C85.782117,47.3374044 77.8022383,48.9064309 72.9310533,50.5352564 C59.2741963,55.1018324 48.2656427,62.1141086 43.5155707,69.3677703 C42.2058334,71.0472881 38.2041578,77.1904647 38.7548082,86.6025159 C39.1219085,92.8772166 38.9224166,81.2006098 38.1563326,51.5726955 C39.7010931,38.9448245 47.4403555,29.2244315 61.3741197,22.4115164 C68.367152,19.6333427 66.862824,19.0043562 81.7261217,15.5423715 C84.3202468,14.9381435 89.368436,14.2785192 96.8706893,13.5634987 Z" id="路径-12" fill="url(#linearGradient-46)" opacity="0.512555804" filter="url(#filter-47)"></path>
                        </g>
                        <g id="编组-37" transform="translate(220.283982, 0.000000)">
                            <path d="M2.51034483,1.56966004 L2.99675472,1.56966004 C4.38317989,1.56966004 5.50709955,2.6935797 5.50709955,4.08000487 L5.50709955,92.4083539 C5.50709955,93.794779 4.38317989,94.9186987 2.99675472,94.9186987 L2.51034483,94.9186987 C1.12391966,94.9186987 1.69788114e-16,93.794779 0,92.4083539 L0,4.08000487 C-1.69788114e-16,2.6935797 1.12391966,1.56966004 2.51034483,1.56966004 Z" id="矩形" fill="url(#linearGradient-48)" filter="url(#filter-49)"></path>
                            <path d="M2.51034483,0 L2.99675472,0 C4.38317989,-6.98771381e-16 5.50709955,1.12391966 5.50709955,2.51034483 L5.50709955,90.8386938 C5.50709955,92.225119 4.38317989,93.3490387 2.99675472,93.3490387 L2.51034483,93.3490387 C1.12391966,93.3490387 8.17384204e-15,92.225119 0,90.8386938 L0,2.51034483 C-1.69788114e-16,1.12391966 1.12391966,2.47512822e-15 2.51034483,0 Z" id="矩形备份-34" fill="url(#linearGradient-48)" filter="url(#filter-50)"></path>
                            <path d="M2.75354977,1.56966004 C3.83979517,1.56966004 4.72037104,2.45023591 4.72037104,3.53648131 L4.72037104,92.9518774 C4.72037104,94.0381228 3.83979517,94.9186987 2.75354977,94.9186987 C1.66730438,94.9186987 0.786728507,94.0381228 0.786728507,92.9518774 L0.786728507,3.53648131 C0.786728507,2.45023591 1.66730438,1.56966004 2.75354977,1.56966004 Z" id="矩形备份-35" fill="url(#linearGradient-51)" filter="url(#filter-52)"></path>
                        </g>
                        <g id="编组-37备份" transform="translate(0.000000, 124.003143)">
                            <path d="M2.51034483,3.9241501 L2.99675472,3.9241501 C4.38317989,3.9241501 5.50709955,5.04806976 5.50709955,6.43449492 L5.50709955,94.7628439 C5.50709955,96.1492691 4.38317989,97.2731888 2.99675472,97.2731888 L2.51034483,97.2731888 C1.12391966,97.2731888 7.72975283e-15,96.1492691 0,94.7628439 L0,6.43449492 C-6.13877324e-16,5.04806976 1.12391966,3.9241501 2.51034483,3.9241501 Z" id="矩形" fill="url(#linearGradient-48)" filter="url(#filter-53)"></path>
                            <path d="M2.51034483,0 L2.99675472,0 C4.38317989,1.89407039e-16 5.50709955,1.12391966 5.50709955,2.51034483 L5.50709955,90.8386938 C5.50709955,92.225119 4.38317989,93.3490387 2.99675472,93.3490387 L2.51034483,93.3490387 C1.12391966,93.3490387 6.13877324e-16,92.225119 0,90.8386938 L0,2.51034483 C2.74301096e-16,1.12391966 1.12391966,2.91921743e-15 2.51034483,0 Z" id="矩形备份-34" fill="url(#linearGradient-48)" filter="url(#filter-54)"></path>
                            <path d="M2.75354977,3.9241501 C3.83979517,3.9241501 4.72037104,4.80472597 4.72037104,5.89097136 L4.72037104,95.3063675 C4.72037104,96.3926129 3.83979517,97.2731888 2.75354977,97.2731888 C1.66730438,97.2731888 0.786728507,96.3926129 0.786728507,95.3063675 L0.786728507,5.89097136 C0.786728507,4.80472597 1.66730438,3.9241501 2.75354977,3.9241501 Z" id="矩形备份-35" fill="url(#linearGradient-55)" filter="url(#filter-56)"></path>
                        </g>
                        <g id="编组-37备份-2" transform="translate(230.511453, 172.662604)">
                            <path d="M2.51034483,3.9241501 L2.99675472,3.9241501 C4.38317989,3.9241501 5.50709955,5.04806976 5.50709955,6.43449492 L5.50709955,94.7628439 C5.50709955,96.1492691 4.38317989,97.2731888 2.99675472,97.2731888 L2.51034483,97.2731888 C1.12391966,97.2731888 1.69788114e-16,96.1492691 0,94.7628439 L0,6.43449492 C-1.69788114e-16,5.04806976 1.12391966,3.9241501 2.51034483,3.9241501 Z" id="矩形" fill="url(#linearGradient-48)" filter="url(#filter-57)"></path>
                            <path d="M2.51034483,0 L2.99675472,0 C4.38317989,-2.54682171e-16 5.50709955,1.12391966 5.50709955,2.51034483 L5.50709955,90.8386938 C5.50709955,92.225119 4.38317989,93.3490387 2.99675472,93.3490387 L2.51034483,93.3490387 C1.12391966,93.3490387 1.69788114e-16,92.225119 0,90.8386938 L0,2.51034483 C-1.69788114e-16,1.12391966 1.12391966,2.47512822e-15 2.51034483,0 Z" id="矩形备份-34" fill="url(#linearGradient-48)" filter="url(#filter-58)"></path>
                            <path d="M2.75354977,3.9241501 C3.83979517,3.9241501 4.72037104,4.80472597 4.72037104,5.89097136 L4.72037104,95.3063675 C4.72037104,96.3926129 3.83979517,97.2731888 2.75354977,97.2731888 C1.66730438,97.2731888 0.786728507,96.3926129 0.786728507,95.3063675 L0.786728507,5.89097136 C0.786728507,4.80472597 1.66730438,3.9241501 2.75354977,3.9241501 Z" id="矩形备份-35" fill="url(#linearGradient-59)" filter="url(#filter-60)"></path>
                        </g>
                    </g>
                </g>
            </g>
        </g>
    </g>
</svg>