<?xml version="1.0" encoding="UTF-8"?>
<svg width="92px" height="34px" viewBox="0 0 92 34" version="1.1" xmlns="http://www.w3.org/2000/svg" xmlns:xlink="http://www.w3.org/1999/xlink">
    <title>编组 32</title>
    <g id="Zeus-V0.2.0（1.0组件样式）" stroke="none" stroke-width="1" fill="none" fill-rule="evenodd">
        <g id="V0.2.0系统告警" transform="translate(-24.000000, -7.000000)">
            <g id="编组-32" transform="translate(24.000000, 7.000000)">
                <g id="编组备份-7">
                    <path d="M13.9650158,16.174986 L14.0193158,16.174986 L13.9650158,16.174986 Z" id="Fill-1" fill="#044993"></path>
                    <g id="编组">
                        <path d="M32,11.0631345 C32,11.0631345 29.2183226,13.5613499 26.569019,6.0709075 C23.9628079,-1.29767203 17.7914878,-0.371535102 15.9999746,0.781143825 C14.2085122,-0.371535102 8.03719207,-1.29767203 5.43098102,6.0709075 C2.78167742,13.5613499 0,11.0631345 0,11.0631345 C0,11.0631345 0.406054656,13.532973 2.79162576,12.4819779 C2.79162576,12.4819779 0,17.2114561 1.06589347,20.1016927 C1.06589347,20.1016927 1.97951645,17.4216551 3.09616675,17.3165556 C3.09616675,17.3165556 -2.3067965,26.1100218 15.9884021,33.9899104 L15.9884021,34 C15.9923103,33.9983184 15.9960663,33.9966368 15.9999746,33.9949552 C16.0039337,33.9966368 16.0076897,33.9983184 16.0115979,34 L16.0115979,33.9899104 C34.3067965,26.1100218 28.9038333,17.3165556 28.9038333,17.3165556 C30.0204836,17.4216551 30.9341065,20.1016927 30.9341065,20.1016927 C32,17.2114561 29.2083742,12.4819779 29.2083742,12.4819779 C31.5939453,13.532973 32,11.0631345 32,11.0631345" id="Fill-2" fill="#044993"></path>
                        <g transform="translate(5.299885, 1.469690)" fill="#FFFFFF">
                            <path d="M20.2798729,14.9056523 C20.5676641,15.5583203 20.8280466,16.2356867 21.0407178,16.9230375 C21.3381528,17.8852236 21.9228715,20.0418656 20.354993,22.6346706 C20.533657,21.3892414 20.9894534,19.7601989 19.162715,17.2908858 C16.9573306,14.3102636 17.1324417,11.6680618 17.1324417,11.6680618 L17.1288887,11.6670108 C17.1425931,11.6118335 17.1527444,11.5571818 17.1608655,11.50253 C17.2136526,11.1399367 17.1557899,10.7710374 17.019254,10.4331425 C16.8608927,10.0416468 16.7624244,9.50826674 16.7015162,8.9538668 C16.7015162,8.9538668 18.8292426,11.610257 20.2798729,14.9056523" id="Fill-4"></path>
                            <path d="M19.1627251,17.2908806 C20.9894635,19.7601936 20.5336672,21.3892361 20.3550031,22.6346654 L20.3550031,22.6351909 C19.7824661,23.5821375 18.9226453,24.5868889 17.6572775,25.6131856 C17.6572775,25.6131856 17.3877587,25.7908038 16.954803,26.083506 C17.7867074,24.342007 19.2642388,22.6509558 17.7922907,20.654065 C16.1457391,18.4207003 15.7112606,16.1873356 15.7112606,16.1873356 L15.7061849,16.1873356 C15.6858822,15.2309301 15.2590172,14.5320183 14.7118586,14.0270151 L14.7123661,14.0259641 C16.4132276,14.1247577 15.6752232,12.7884173 15.5777701,12.6239366 C15.5737096,12.6165796 15.5792928,12.6081717 15.5874139,12.6086972 C16.6233608,12.6812158 17.0050522,12.1793657 17.1288989,11.6670055 L17.1324519,11.6680565 C17.1324519,11.6680565 16.9573408,14.3102583 19.1627251,17.2908806" id="Fill-6"></path>
                            <path d="M19.556588,9.15040289 C20.0362401,10.5040846 20.3529627,12.3617186 20.2798729,14.9056523 C18.8292426,11.610257 16.7015162,8.9538668 16.7015162,8.9538668 C16.5974647,8.00534368 16.6050782,6.99428635 16.6162447,6.52186403 C16.6208128,6.32532794 16.5827452,6.13036834 16.5025494,5.95222466 C16.4446866,5.82347775 16.3837784,5.70208781 16.3203324,5.58752934 L16.4218461,5.57228991 C16.4218461,5.57228991 18.434862,5.98428001 19.556588,9.15040289" id="Fill-8"></path>
                            <path d="M18.261299,2.96424545 C20.3753211,4.80348696 19.8200413,8.46252657 19.568795,9.14567341 L19.5566134,9.15040289 C18.4348874,5.98428001 16.4218714,5.57228991 16.4218714,5.57228991 L16.3203578,5.58752934 C15.5737248,4.23805157 14.4814378,3.86705029 13.9383397,3.76510376 C13.7500318,3.72989542 13.5566483,3.74408385 13.3739237,3.80136309 C13.0297924,3.90856459 12.7171303,3.98528724 12.4384753,4.03941349 L12.4120817,3.89069768 C12.6836308,3.14133814 15.4371889,1.53121357 17.5298931,2.49182313 C17.7857075,2.6084836 18.0313706,2.76403088 18.261299,2.96424545" id="Fill-10"></path>
                            <path d="M17.7922907,20.654065 C19.2642388,22.6509558 17.7867074,24.342007 16.954803,26.083506 C16.1284817,26.6426354 14.707798,27.6221629 13.429741,28.5927569 L13.4272031,28.5890784 C14.2256081,26.4918176 16.4218562,25.3835432 14.4423398,21.8627094 C12.7145772,18.7906506 13.173419,15.9245869 13.173419,15.9245869 L13.166313,15.9140769 C13.474407,15.6896894 13.630738,15.4006658 13.630738,15.4006658 L13.6454575,15.3759674 C14.7829181,16.106409 15.4589991,17.1148389 15.5559447,17.2651312 C15.5605128,17.2724881 15.5716793,17.2698606 15.5737096,17.2614527 C15.6731929,16.8715335 15.7137984,16.5141951 15.7061849,16.1873356 L15.7112606,16.1873356 C15.7112606,16.1873356 16.1457391,18.4207003 17.7922907,20.654065" id="Fill-12"></path>
                            <path d="M17.5385065,2.47184897 L17.5298779,2.49181788 C15.4371737,1.53120832 12.6836155,3.14133288 12.4120665,3.89069242 L12.43846,4.03940823 C11.4451488,4.23384234 10.8863161,4.14660974 10.8863161,4.14660974 C10.8863161,4.14660974 10.7269397,3.51496166 10.7269397,2.74458221 C10.7269397,1.46079164 11.1695392,-0.208714151 13.5292244,0.0214537859 C13.5292244,0.0214537859 15.7259801,0.00201037566 17.5385065,2.47184897" id="Fill-14"></path>
                            <path d="M15.2544491,6.93226712 C14.8367204,6.92438466 14.2641833,6.97640892 13.7378349,7.23705572 C12.9957701,7.60437852 12.4587628,7.48351408 12.1658959,7.34635921 L12.1359493,7.44725475 C13.4023323,8.89184758 14.2646909,8.59389045 14.5438534,7.93701848 C14.8103268,7.31009988 15.2544491,6.93857309 15.2544491,6.93857309 L15.2544491,6.93226712 Z M4.69652047,8.95385629 C4.80006441,8.00533317 4.79295845,6.99427584 4.78128438,6.52185352 C4.77671627,6.32531743 4.81529146,6.13035783 4.89497968,5.95221415 C4.95284247,5.82346724 5.01375067,5.7020773 5.07719671,5.58751883 C5.82433728,4.23804106 6.91611673,3.86703978 7.4597224,3.76509325 C7.64752268,3.72988491 7.84090621,3.74407334 8.02413837,3.80135258 C8.36826969,3.90855408 8.68093178,3.98527673 8.95958679,4.03940298 C9.95239042,4.23383708 10.5112231,4.14660448 10.5112231,4.14660448 C10.5112231,4.14660448 10.6705996,3.5144309 10.6705996,2.74405146 L10.7269397,2.74457696 C10.7269397,3.5149564 10.8863161,4.14660448 10.8863161,4.14660448 C10.8863161,4.14660448 11.4451488,4.23383708 12.43846,4.03940298 C12.7171151,3.98527673 13.0297771,3.90855408 13.3739085,3.80135258 C13.5566331,3.74407334 13.7500166,3.72988491 13.9383244,3.76509325 C14.4814225,3.86703978 15.5737096,4.23804106 16.3203426,5.58751883 C16.3837886,5.7020773 16.4446968,5.82346724 16.5025596,5.95221415 C16.5827554,6.13035783 16.620823,6.32531743 16.6162549,6.52185352 C16.6050884,6.99427584 16.5974749,8.00533317 16.7015264,8.95385629 C16.7624346,9.50825623 16.8609028,10.0416363 17.0192641,10.433132 C17.1558,10.7710269 17.2136628,11.1399262 17.1608757,11.5025195 C17.1527546,11.5571713 17.1426032,11.611823 17.1288989,11.6670003 C17.0050522,12.1793604 16.6233608,12.6812106 15.5874139,12.6086919 C15.5792928,12.6081664 15.5737096,12.6165744 15.5777701,12.6239313 C15.6752232,12.7884121 16.4132276,14.1247524 14.7123661,14.0259589 L14.7118586,14.0270099 C13.7799631,13.1672958 12.4983531,12.8698642 12.278576,12.8241459 C12.2765458,12.8236204 12.2740079,12.8230949 12.2719776,12.8230949 C12.2511673,12.8194164 12.2308646,12.8188909 12.2100543,12.8215184 C12.0359584,12.8467423 11.1101538,12.9996621 10.7096824,13.789485 L10.6883645,13.789485 C10.2878931,12.9996621 9.3615809,12.8467423 9.18748496,12.8215184 C9.16667466,12.8188909 9.14637193,12.8194164 9.1260692,12.8230949 C9.12403892,12.8230949 9.12150108,12.8236204 9.11947081,12.8241459 C8.89969373,12.8698642 7.61859129,13.1672958 6.68669585,14.0270099 L6.68568072,14.0259589 C4.98481928,14.1247524 5.72282361,12.7884121 5.81976916,12.6239313 C5.82382971,12.6165744 5.81824646,12.6081664 5.81012536,12.6086919 C4.77468599,12.6812106 4.39299462,12.1793604 4.26914795,11.6670003 C4.2554436,11.611823 4.24529224,11.5571713 4.23717114,11.5025195 C4.18438404,11.1399262 4.24224683,10.7710269 4.3787827,10.433132 C4.53714402,10.0416363 4.63561227,9.50825623 4.69652047,8.95385629 L4.69652047,8.95385629 Z M9.13571299,7.38734802 C8.82863416,7.50295749 8.32715666,7.56759369 7.66021189,7.23705572 C7.13386354,6.97640892 6.56132648,6.92438466 6.14359775,6.93226712 L6.14359775,6.93857309 C6.14359775,6.93857309 6.58772003,7.31009988 6.8541934,7.93701848 C7.13335597,8.59389045 7.99571455,8.89184758 9.26209751,7.44725475 L9.13571299,7.38734802 Z" id="Fill-16"></path>
                            <path d="M12.2719929,12.8231002 C12.2740231,12.8231002 12.276561,12.8236257 12.2785913,12.8241512 C12.4983683,12.8698695 13.7799783,13.1673011 14.7118738,14.0270151 C15.2590324,14.5320183 15.6858974,15.2309301 15.7062001,16.1873356 C15.7138136,16.5141951 15.6732082,16.8715335 15.5737248,17.2614527 C15.5716945,17.2698606 15.560528,17.2724881 15.5559599,17.2651312 C15.4590143,17.1148389 14.7829333,16.106409 13.6454727,15.3759674 C12.8694008,14.8777957 11.8781199,14.5083709 10.7102051,14.6302863 L10.6873646,14.6302863 C9.51944987,14.5083709 8.52816894,14.8777957 7.75209698,15.3759674 C6.61514395,16.106409 5.93906294,17.1148389 5.8421174,17.2651312 C5.83704171,17.2724881 5.82638278,17.2698606 5.82384494,17.2614527 C5.72436155,16.8715335 5.68426365,16.5141951 5.6913696,16.1873356 C5.71167234,15.2309301 6.13904486,14.5314928 6.68671108,14.0270151 C7.61860651,13.1673011 8.89970895,12.8698695 9.11948603,12.8241512 C9.12151631,12.8236257 9.12405415,12.8231002 9.12608442,12.8231002 C9.14638716,12.8194217 9.16668989,12.8188962 9.18750019,12.8215237 C9.36159612,12.8467476 10.2879083,12.9996674 10.6883797,13.7894902 L10.7096976,13.7894902 C11.110169,12.9996674 12.0359736,12.8467476 12.2100695,12.8215237 C12.2308798,12.8188962 12.2511826,12.8194217 12.2719929,12.8231002" id="Fill-18"></path>
                            <path d="M15.2544491,6.93226712 L15.2544491,6.93857309 C15.2544491,6.93857309 14.8103268,7.31009988 14.5438534,7.93701848 C14.2646909,8.59389045 13.4023323,8.89184758 12.1359493,7.44725475 L12.1658959,7.34635921 C12.4587628,7.48351408 12.9957701,7.60437852 13.7378349,7.23705572 C14.2641833,6.97640892 14.8367204,6.92438466 15.2544491,6.93226712" id="Fill-20"></path>
                            <path d="M14.4423398,21.8627094 C16.4218562,25.3835432 14.2256081,26.4918176 13.4272031,28.5890784 L13.429741,28.5927569 C11.9770804,29.6957763 10.7096824,30.7872347 10.7096824,31.2360097 L10.6883645,31.2360097 C10.6883645,30.7872347 9.42096639,29.6957763 7.96830586,28.5927569 L7.9708437,28.5890784 C7.17243873,26.4918176 4.97619062,25.3835432 6.95570706,21.8627094 C8.68296205,18.7906506 8.22462786,15.9245869 8.22462786,15.9245869 L8.23173382,15.9146024 C8.62357656,16.1994221 9.26006723,16.3807188 10.1330847,15.7338312 C10.1330847,15.7338312 10.5873584,15.3134332 10.6883645,15.786381 L10.7096824,15.786381 C10.8101809,15.3134332 11.2649621,15.7338312 11.2649621,15.7338312 C12.1379796,16.3807188 12.7749778,16.1994221 13.166313,15.9140769 L13.173419,15.9245869 C13.173419,15.9245869 12.7145772,18.7906506 14.4423398,21.8627094" id="Fill-22"></path>
                            <path d="M13.6454474,15.3759726 L13.6307279,15.400671 C13.6307279,15.400671 13.4743968,15.6896947 13.1663029,15.9140822 C12.7749677,16.1994273 12.1379695,16.380724 11.2649519,15.7338365 C11.2649519,15.7338365 10.8101707,15.3134384 10.7096722,15.7863863 L10.6883543,15.7863863 C10.5873482,15.3134384 10.1330746,15.7338365 10.1330746,15.7338365 C9.26005708,16.380724 8.62356641,16.1994273 8.23172367,15.9146077 C7.92312213,15.6896947 7.76679108,15.400671 7.76679108,15.400671 L7.7520716,15.3759726 C8.52814356,14.8778009 9.51942449,14.5083762 10.6873392,14.6302916 L10.7101798,14.6302916 C11.8780945,14.5083762 12.8693754,14.8778009 13.6454474,15.3759726" id="Fill-24"></path>
                            <path d="M10.6705996,2.74405146 C10.6705996,3.5144309 10.5112231,4.14660448 10.5112231,4.14660448 C10.5112231,4.14660448 9.95239042,4.23383708 8.95958679,4.03940298 L8.98598034,3.89068717 C8.71443129,3.14132763 5.96087316,1.53120306 3.86816897,2.49128713 L3.85954031,2.47184372 C5.67155921,0.00200512068 7.8683149,0.0214485309 7.8683149,0.0214485309 C10.228,-0.208193909 10.6705996,1.46026089 10.6705996,2.74405146" id="Fill-26"></path>
                            <path d="M9.13572314,7.38735328 L9.26210766,7.44726 C7.9957247,8.89185283 7.13336612,8.59389571 6.85420355,7.93702374 C6.58773018,7.31010513 6.1436079,6.93857835 6.1436079,6.93857835 L6.1436079,6.93227238 C6.56133663,6.92438991 7.13387369,6.97641417 7.66022204,7.23706097 C8.32716681,7.56759894 8.82864431,7.50296274 9.13572314,7.38735328" id="Fill-28"></path>
                            <path d="M4.93254989,5.58332011 C4.63409972,5.66424673 2.86623926,6.25858449 1.84145883,9.15039764 L1.82927719,9.14566816 C1.5775233,8.46252131 1.02224356,4.80348171 3.13677318,2.9642402 C3.36670163,2.76402562 3.61287226,2.60847834 3.86817913,2.49129238 C5.96088331,1.53120832 8.71444144,3.14133288 8.98599049,3.89069242 L8.95959694,4.03940823 C8.68094193,3.98528198 8.36827985,3.90855934 8.02414853,3.80135783 C7.84091636,3.7440786 7.64753283,3.72989016 7.45973255,3.7650985 C6.91612688,3.86704503 5.82434743,4.23804632 5.07720686,5.58752409 L4.93254989,5.58332011 Z" id="Fill-30"></path>
                            <path d="M8.23174397,15.9146077 L8.22463801,15.9245921 C8.22463801,15.9245921 8.6829722,18.7906559 6.95571721,21.8627147 C4.97620077,25.3835484 7.17244889,26.4918228 7.97085385,28.5890836 L7.96831601,28.5927621 C6.68975141,27.6216426 5.26805255,26.6415896 4.44223889,26.0829857 C3.61033442,24.3414868 2.13381818,22.6509611 3.6057663,20.6540703 C5.25231793,18.4207056 5.68679641,16.1873409 5.68679641,16.1873409 L5.69136453,16.1873409 C5.68425857,16.5142004 5.72435647,16.8715387 5.82383986,17.2614579 C5.8263777,17.2698659 5.83703664,17.2724934 5.84211232,17.2651364 C5.93905787,17.1148441 6.61513887,16.1064143 7.75209191,15.3759726 L7.76681139,15.400671 C7.76681139,15.400671 7.92314243,15.6896947 8.23174397,15.9146077" id="Fill-32"></path>
                            <path d="M6.68569087,14.0259694 L6.686706,14.0270204 C6.13903979,14.531498 5.71166726,15.2309353 5.69136453,16.1873409 L5.68679641,16.1873409 C5.68679641,16.1873409 5.25231793,18.4207056 3.6057663,20.6540703 C2.13381818,22.6509611 3.61033442,24.3414868 4.44223889,26.0829857 C4.00979069,25.7902836 3.74077948,25.6131909 3.74077948,25.6131909 C2.47490409,24.5868941 1.61508336,23.5821428 1.04305386,22.6351961 C0.863882242,21.3897669 0.408085891,19.7607244 2.23533184,17.2908858 C4.44071619,14.3102636 4.26560512,11.6680618 4.26560512,11.6680618 L4.2691581,11.6670108 C4.39300477,12.1793709 4.77469614,12.6812211 5.81013552,12.6087024 C5.81825661,12.6081769 5.82383986,12.6165849 5.81977931,12.6239419 C5.72283376,12.7884226 4.98482943,14.1247629 6.68569087,14.0259694" id="Fill-34"></path>
                            <path d="M4.93254989,5.58332011 L5.07720686,5.58752409 C5.01376082,5.70208256 4.95285262,5.8234725 4.89498984,5.9522194 C4.81530161,6.13036308 4.77672642,6.32532268 4.78129453,6.52185877 C4.7929686,6.99428109 4.80007456,8.00533842 4.69653062,8.95386154 C4.69653062,8.95386154 2.56829666,11.6102518 1.11817397,14.9056471 C1.04508413,12.3611878 1.36180676,10.5040794 1.84145883,9.15039764 C2.86623926,6.25858449 4.63409972,5.66424673 4.93254989,5.58332011" id="Fill-36"></path>
                            <path d="M1.11817905,14.9056523 C2.56830173,11.610257 4.6965357,8.9538668 4.6965357,8.9538668 C4.6356275,9.50826674 4.53715925,10.0416468 4.37879793,10.4331425 C4.24226205,10.7710374 4.18439926,11.1399367 4.23718637,11.50253 C4.24530746,11.5571818 4.25545883,11.6118335 4.26916317,11.6670108 L4.2656102,11.6680618 C4.2656102,11.6680618 4.44072127,14.3102636 2.23533692,17.2908858 C0.408090967,19.7607244 0.863887318,21.3897669 1.04305893,22.6351961 C-0.525327172,20.0423911 0.0598990999,17.8852236 0.357334135,16.9230375 C0.570005261,16.2356867 0.830387809,15.5583203 1.11817905,14.9056523" id="Fill-38"></path>
                        </g>
                        <path d="M11.9855762,15.4956592 C10.2847147,15.5944527 11.0227191,14.2581124 11.1196646,14.0936317 C11.1237252,14.0862747 11.1181419,14.0778667 11.1100208,14.0783922 C10.0745815,14.1509109 9.69289008,13.6490607 9.56904341,13.1367006 C9.55533906,13.0815233 9.5451877,13.0268716 9.5370666,12.9722198 C9.4842795,12.6096265 9.54214229,12.2407272 9.67867817,11.9028323 C9.83703948,11.5113366 9.93550773,10.9779566 9.99641593,10.4235566 C10.0999599,9.47503349 10.0928539,8.46397616 10.0811798,7.99155384 C10.0766117,7.79501775 10.1151869,7.60005815 10.1948751,7.42191447 C10.2527379,7.29316756 10.3136461,7.17177762 10.3770922,7.05721915 C11.1242327,5.70774138 12.2160122,5.3367401 12.7596179,5.23479357 C12.9474181,5.19958523 13.1408017,5.21377366 13.3240338,5.2710529 C13.6681652,5.37825441 13.9808272,5.45497705 14.2594822,5.5091033 C15.2522859,5.7035374 15.8111186,5.61630481 15.8111186,5.61630481 C15.8111186,5.61630481 15.9704951,4.98413122 15.9704951,4.21375178 C15.9704951,2.92996121 15.5278955,1.26150641 13.1682104,1.49114885 C13.1682104,1.49114885 10.9714547,1.47170544 9.15943577,3.94154404" id="Stroke-40" stroke="#044993" stroke-width="0.512" stroke-linecap="round"></path>
                        <path d="M15.9872397,16.0999814 C14.819325,15.978066 13.8280441,16.3474908 13.0519721,16.8456625 C11.9150191,17.5761041 11.2389381,18.5845339 11.1419926,18.7348262 C11.1369169,18.7421832 11.1262579,18.7395557 11.1237201,18.7311478 C11.0242367,18.3412286 10.9841388,17.9838902 10.9912448,17.6570307 C11.0115475,16.7006251 11.43892,16.0011879 11.9865862,15.4967102 C12.9184817,14.6369962 14.1995841,14.3395645 14.4193612,14.2938462 C14.4213915,14.2933207 14.4239293,14.2927952 14.4259596,14.2927952 C14.4462623,14.2891168 14.466565,14.2885913 14.4873753,14.2912188 C14.6614713,14.3164426 15.5877835,14.4693624 15.9882549,15.2591853" id="Stroke-42" stroke="#044993" stroke-width="0.512" stroke-linecap="round"></path>
                        <path d="M13.879811,10.9306565 C12.9788772,11.5439122 11.9916568,11.0940863 11.9205973,11.047317 C10.5278298,10.1224412 9.99640578,10.4235514 9.99640578,10.4235514 C9.99640578,10.4235514 7.86817182,13.0799416 6.41804913,16.3753369 C6.13025789,17.0280049 5.86987534,17.7053712 5.65720422,18.3927221 C5.35976918,19.3549081 4.77454291,21.5120757 6.34292902,24.1048807 C6.91495851,25.0518273 7.77477925,26.0565787 9.04065464,27.0828754 C9.04065464,27.0828754 9.30966585,27.2599681 9.74211405,27.5526703 C10.5679277,28.1112742 11.9896266,29.0913272 13.2681912,30.0624467 C14.7208517,31.1654661 15.9882498,32.2569245 15.9882498,32.7056995" id="Stroke-44" stroke="#044993" stroke-width="0.512" stroke-linecap="round"></path>
                        <path d="M14.793434,8.7235667 C14.793434,8.7235667 15.6349822,10.7399009 14.4269696,11.8959956 C13.2235252,13.0473607 13.382394,14.2129144 14.4259545,14.29279 C14.4300151,14.2933155 14.4340756,14.2933155 14.4381361,14.293841" id="Stroke-46" stroke="#044993" stroke-width="0.512" stroke-linecap="round"></path>
                        <path d="M14.2858656,5.36038223 C14.0143166,4.61102269 11.2607585,3.00089813 9.16805428,3.96098219 C8.91274742,4.07816815 8.66657678,4.23371543 8.43664834,4.43393001 C6.32211872,6.27317152 6.87739846,9.93221112 7.12915235,10.615358" id="Stroke-48" stroke="#044993" stroke-width="0.512" stroke-linecap="round"></path>
                        <path d="M10.2760759,7.04197447 C10.2760759,7.04197447 10.2608489,7.04512745 10.2324251,7.05300992 C9.93397488,7.13393654 8.16611442,7.7282743 7.14133398,10.6200874 C6.66168192,11.9737692 6.34495929,13.8308776 6.41804913,16.3753369 C6.41804913,16.3821683 6.4185567,16.3889998 6.4185567,16.3958313" id="Stroke-50" stroke="#044993" stroke-width="0.512" stroke-linecap="round"></path>
                        <path d="M9.56548028,13.1377463 C9.56548028,13.1377463 9.74059135,15.7799481 7.535207,18.7605704 C5.70796105,21.230409 6.1637574,22.8594514 6.34292902,24.1048807" id="Stroke-52" stroke="#044993" stroke-width="0.512" stroke-linecap="round"></path>
                        <path d="M10.9866716,17.6570255 C10.9866716,17.6570255 10.5521931,19.8903901 8.90564146,22.1237548 C7.43369334,24.1206456 8.91020958,25.8111713 9.74211405,27.5526703 L9.74262162,27.5531958" id="Stroke-54" stroke="#044993" stroke-width="0.512" stroke-linecap="round"></path>
                        <path d="M13.0666865,16.8703556 C13.0666865,16.8703556 13.2230176,17.1593793 13.5316191,17.3842922 C13.9234619,17.6691119 14.5599525,17.8504086 15.4329701,17.2035211 C15.4329701,17.2035211 15.8872437,16.783123 15.9882498,17.2560708" id="Stroke-56" stroke="#044993" stroke-width="0.512" stroke-linecap="round"></path>
                        <path d="M13.5245132,17.3942767 C13.5245132,17.3942767 13.9828474,20.2603404 12.2555924,23.3323993 C10.2760759,26.853233 12.472324,27.9615074 13.270729,30.0587682" id="Stroke-58" stroke="#044993" stroke-width="0.512" stroke-linecap="round"></path>
                        <path d="M10.8344011,8.46081792 C10.8344011,8.46081792 11.0810793,8.40879366 11.4434831,8.40196219 C11.8612118,8.39407973 12.4337489,8.44610399 12.9600972,8.70675078 C13.627042,9.03728876 14.1285195,8.97265255 14.4355983,8.85704309 C14.6660343,8.76981049 14.7873431,8.65420102 14.7873431,8.65420102" id="Stroke-60" stroke="#044993" stroke-width="0.512" stroke-linecap="round"></path>
                        <path d="M11.4434831,8.40826816 C11.4434831,8.40826816 11.8876053,8.77979494 12.1540787,9.40671355 C12.4332413,10.0635855 13.2955999,10.3615426 14.5619828,8.91694981" id="Stroke-62" stroke="#044993" stroke-width="0.512" stroke-linecap="round"></path>
                        <path d="M20.0122464,15.4956592 C21.7131078,15.5944527 20.9751035,14.2581124 20.8776503,14.0936317 C20.8735898,14.0862747 20.879173,14.0778667 20.8872941,14.0783922 C21.9232411,14.1509109 22.3049325,13.6490607 22.4287791,13.1367006 C22.4424835,13.0815233 22.4526348,13.0268716 22.4607559,12.9722198 C22.513543,12.6096265 22.4556802,12.2407272 22.3191444,11.9028323 C22.1607831,11.5113366 22.0623148,10.9779566 22.0014066,10.4235566 C21.8973551,9.47503349 21.9049686,8.46397616 21.9161351,7.99155384 C21.9207032,7.79501775 21.8826356,7.60005815 21.8024398,7.42191447 C21.744577,7.29316756 21.6836688,7.17177762 21.6202228,7.05721915 C20.8735898,5.70774138 19.7813028,5.3367401 19.2382047,5.23479357 C19.0498968,5.19958523 18.8565133,5.21377366 18.6737887,5.2710529 C18.3296574,5.37825441 18.0169953,5.45497705 17.7383403,5.5091033 C16.7450291,5.7035374 16.1861964,5.61630481 16.1861964,5.61630481 C16.1861964,5.61630481 16.0268199,4.98465672 16.0268199,4.21427728 C16.0268199,2.93048671 16.4694195,1.26098092 18.8291046,1.49114885 C18.8291046,1.49114885 21.0258603,1.47170544 22.8383868,3.94154404" id="Stroke-64" stroke="#044993" stroke-width="0.512" stroke-linecap="round"></path>
                        <path d="M16.0100854,16.0999814 C17.1780001,15.978066 18.169281,16.3474908 18.945353,16.8456625 C20.0828136,17.5761041 20.7588946,18.5845339 20.8558401,18.7348262 C20.8604082,18.7421832 20.8715747,18.7395557 20.873605,18.7311478 C20.9730884,18.3412286 21.0136939,17.9838902 21.0060804,17.6570307 C20.9857776,16.7006251 20.5589127,16.0017134 20.011754,15.4967102 C19.0798586,14.6369962 17.7982486,14.3395645 17.5784715,14.2938462 C17.5764412,14.2933207 17.5739034,14.2927952 17.5718731,14.2927952 C17.5510628,14.2891168 17.5307601,14.2885913 17.5099498,14.2912188 C17.3358538,14.3164426 16.4100492,14.4693624 16.0095778,15.2591853" id="Stroke-66" stroke="#044993" stroke-width="0.512" stroke-linecap="round"></path>
                        <path d="M25.6549037,24.1048807 C25.0823666,25.0518273 24.2225459,26.0565787 22.957178,27.0828754 C22.957178,27.0828754 22.6876593,27.2604936 22.2547035,27.5531958 C21.4283823,28.1123252 20.0076985,29.0918527 18.7296415,30.0624467 C17.276981,31.1654661 16.0095829,32.2569245 16.0095829,32.7056995" id="Stroke-68" stroke="#044993" stroke-width="0.512" stroke-linecap="round"></path>
                        <path d="M18.1180065,10.9306565 C19.0189402,11.5439122 20.0061606,11.0940863 20.0772202,11.047317 C21.4694801,10.1224412 22.0014117,10.4235514 22.0014117,10.4235514 C22.0014117,10.4235514 24.1291381,13.0799416 25.5797683,16.3753369 C25.8675596,17.0280049 26.1279421,17.7053712 26.3406132,18.3927221 C26.6380483,19.3549081 27.222767,21.5115502 25.6548884,24.1043552" id="Stroke-70" stroke="#044993" stroke-width="0.512" stroke-linecap="round"></path>
                        <path d="M17.2043835,8.7235667 C17.2043835,8.7235667 16.3628352,10.7399009 17.5708478,11.8959956 C18.7742923,13.0473607 18.6149158,14.2129144 17.571863,14.29279 C17.5678024,14.2933155 17.5637419,14.2933155 17.5596813,14.293841" id="Stroke-72" stroke="#044993" stroke-width="0.512" stroke-linecap="round"></path>
                        <path d="M17.7119518,5.36038223 C17.9835009,4.61102269 20.737059,3.00089813 22.8297632,3.96150769 C23.0855776,4.07816815 23.3312407,4.23371543 23.5611691,4.43393001 C25.6751912,6.27317152 25.1199114,9.93221112 24.8686651,10.615358" id="Stroke-74" stroke="#044993" stroke-width="0.512" stroke-linecap="round"></path>
                        <path d="M21.7217415,7.04197447 C21.7217415,7.04197447 23.7347575,7.45396457 24.8564835,10.6200874 C25.3361355,11.9737692 25.6528582,13.8314031 25.5797683,16.3753369 C25.5797683,16.3821683 25.5792608,16.3889998 25.5792608,16.3958313" id="Stroke-76" stroke="#044993" stroke-width="0.512" stroke-linecap="round"></path>
                        <path d="M22.4323372,13.1377463 C22.4323372,13.1377463 22.2572261,15.7799481 24.4626105,18.7605704 C26.2893488,21.2298835 25.8335525,22.8589259 25.6548884,24.1043552 L25.6548884,24.1048807" id="Stroke-78" stroke="#044993" stroke-width="0.512" stroke-linecap="round"></path>
                        <path d="M21.0111459,17.6570255 C21.0111459,17.6570255 21.4456244,19.8903901 23.092176,22.1237548 C24.5641241,24.1206456 23.0865927,25.8116968 22.2546883,27.5531958" id="Stroke-80" stroke="#044993" stroke-width="0.512" stroke-linecap="round"></path>
                        <path d="M18.9306132,16.8703556 C18.9306132,16.8703556 18.7742821,17.1593793 18.4661882,17.3837667 C18.074853,17.6691119 17.4378548,17.8504086 16.5648373,17.2035211 C16.5648373,17.2035211 16.110056,16.783123 16.0095575,17.2560708" id="Stroke-82" stroke="#044993" stroke-width="0.512" stroke-linecap="round"></path>
                        <path d="M18.4733043,17.3942767 C18.4733043,17.3942767 18.0144625,20.2603404 19.7422251,23.3323993 C21.7217415,26.853233 19.5254934,27.9615074 18.7270884,30.0587682" id="Stroke-84" stroke="#044993" stroke-width="0.512" stroke-linecap="round"></path>
                        <path d="M21.1634164,8.46081792 C21.1634164,8.46081792 20.9167382,8.40879366 20.5543344,8.40196219 C20.1366057,8.39407973 19.5640686,8.44610399 19.0377203,8.70675078 C18.2956554,9.07407359 17.7586481,8.95320914 17.4657812,8.81605428 C17.2977761,8.73775514 17.2104743,8.65420102 17.2104743,8.65420102" id="Stroke-86" stroke="#044993" stroke-width="0.512" stroke-linecap="round"></path>
                        <path d="M20.5543344,8.40826816 C20.5543344,8.40826816 20.1102121,8.77979494 19.8437387,9.40671355 C19.5645762,10.0635855 18.7022176,10.3615426 17.4358346,8.91694981" id="Stroke-88" stroke="#044993" stroke-width="0.512" stroke-linecap="round"></path>
                    </g>
                </g>
                <text id="Zeus备份" font-family="PingFangSC-Semibold, PingFang SC" font-size="24" font-weight="500" fill="#004998">
                    <tspan x="36" y="25">Zeus</tspan>
                </text>
            </g>
        </g>
    </g>
</svg>