<?xml version="1.0" encoding="UTF-8"?>
<svg width="146px" height="32px" viewBox="0 0 146 32" version="1.1" xmlns="http://www.w3.org/2000/svg" xmlns:xlink="http://www.w3.org/1999/xlink">
    <title>编组</title>
    <defs>
        <polygon id="path-1" points="0 0 43.9054556 0 43.9054556 31.509352 0 31.509352"></polygon>
        <polygon id="path-3" points="0 0 1.6959596 0 1.6959596 1.69975424 0 1.69975424"></polygon>
    </defs>
    <g id="登录页" stroke="none" stroke-width="1" fill="none" fill-rule="evenodd" opacity="0.9">
        <g id="Zues-V0.2.0登录页" transform="translate(-50.000000, -51.000000)">
            <g id="编组" transform="translate(50.000000, 51.000000)">
                <g id="logo" transform="translate(9.173854, 0.490648)">
                    <path d="M45.3059346,0.607938137 C41.1424762,-0.512344094 37.2025471,0.00572389645 33.4488922,2.12984814 L15.134037,12.4966661 C14.1949417,13.038386 13.568424,13.8302704 13.2890125,14.8445739 C13.006875,15.8729775 13.1508969,16.8627193 13.6942727,17.8215317 C14.2181125,18.7521438 15.0104598,19.3775551 16.0213388,19.6600136 C17.0494822,19.9552077 18.0571809,19.819664 18.9962761,19.281128 L37.310677,8.91431008 C39.1643338,7.85952547 41.1497455,7.59935437 43.2432872,8.15835837 C45.3459154,8.73737554 46.9251583,9.96090749 47.9773811,11.8321381 C49.043688,13.6897235 49.2772124,15.6623845 48.7043053,17.7614922 C48.1227659,19.857871 46.9060765,21.429359 45.0478765,22.4818694 C43.1783183,23.5516639 41.2056278,23.8122899 39.1238986,23.2346372 C38.3410921,23.0140376 37.6300694,22.7038336 36.9912847,22.30448 L29.7479394,26.4053589 C31.6724712,28.50947 34.1094846,29.9690663 37.0644315,30.7709573 C41.2119884,31.9239883 45.1819032,31.4345755 48.9246542,29.2963511 C52.682398,27.1590364 55.1094161,24.0055988 56.2479612,19.8228479 C57.3833259,15.6541973 56.8926521,11.697959 54.7591295,7.96868818 C52.6056166,4.19484259 49.4580348,1.74868837 45.3059346,0.607938137 Z" id="Fill-1" fill="#FFFFFF"></path>
                    <mask id="mask-2" fill="white">
                        <use xlink:href="#path-1"></use>
                    </mask>
                    <g id="Clip-4"></g>
                    <path d="M6.64833271,8.21744268 L5.80146602,7.98865585 L5.57293922,7.14082553 L6.1958224,6.51859813 L7.04496073,6.74511074 L7.27121589,7.59521528 L6.64833271,8.21744268 Z M5.97729081,3.4338421 L6.82688347,3.66035471 L7.05495594,4.5109141 L6.43389007,5.1331415 L5.58520607,4.90435467 L5.35667927,4.05561466 L5.97729081,3.4338421 Z M4.26720162,13.3867515 L3.41851762,13.1593292 L3.19180813,12.3092246 L3.812874,11.6888166 L4.65974069,11.9153292 L4.88781316,12.7654338 L4.26720162,13.3867515 Z M2.76928344,14.8877386 L1.92014511,14.6589518 L1.69207264,13.8111215 L2.3131385,13.1898038 L3.16182251,13.4163164 L3.38807767,14.2664209 L2.76928344,14.8877386 Z M3.19816872,9.51966275 L4.04685273,9.74617536 L4.27310788,10.5971896 L3.65067904,11.2189621 L2.80562965,10.9901753 L2.57710286,10.1418902 L3.19816872,9.51966275 Z M3.63250593,6.97389757 L4.48164426,7.19995533 L4.70789942,8.04915018 L4.08683356,8.67183243 L3.23996686,8.44395529 L3.01189439,7.59521528 L3.63250593,6.97389757 Z M9.1939304,3.51616898 L10.0407971,3.74359127 L10.2688696,4.59369582 L9.64825803,5.21501353 L8.80093701,4.98759123 L8.57286454,4.13748669 L9.1939304,3.51616898 Z M12.1893124,0.514649511 L13.0402681,0.742981496 L13.2665232,1.59263119 L12.6440944,2.21394891 L11.7972277,1.98652661 L11.5687009,1.13733176 L12.1893124,0.514649511 Z M43.7628108,16.6129642 C44.0426766,15.5795573 43.9104673,14.5839024 43.3684544,13.6205416 C42.8246243,12.6849263 42.0445437,12.0731603 41.0086768,11.7747822 C39.9791704,11.4764042 38.9819212,11.6096737 38.016475,12.1518484 L19.6107542,22.5741574 C17.7489196,23.6321259 15.7507867,23.9082166 13.6595166,23.3301091 C11.5505278,22.753821 9.9585638,21.5198276 8.88907657,19.65451 C7.83003887,17.769634 7.58152166,15.7928794 8.16033505,13.6810359 C8.74096576,11.5855669 9.96855901,9.99588504 11.8522013,8.93336807 C13.7135816,7.86175421 15.7067169,7.61431875 17.7848115,8.17741636 C18.5735242,8.39983536 19.2827297,8.71595236 19.9215143,9.11485106 L27.2048405,4.99168483 C25.2680418,2.88620922 22.8269395,1.41933541 19.8733556,0.601069983 C15.9284288,-0.486918282 12.1793172,-0.0934777092 8.60693911,1.74545898 L8.73278786,2.22395549 L8.11217633,2.8452732 L7.26530963,2.61785091 L7.24123027,2.52870137 C5.57521086,3.58621504 4.18405967,4.86023475 3.08049786,6.35985737 L3.18771918,6.76193999 L2.56710765,7.38462223 L2.40400403,7.34004746 C1.61392829,8.62134468 1.00422061,10.0440986 0.578515627,11.611493 C0.536717486,11.7670499 0.512638121,11.9194228 0.476746239,12.07407 L0.496282327,12.0786184 L0.722991812,12.9278133 L0.195063111,13.4572524 C-0.356490628,16.9695623 0.259123306,20.3349575 2.07370785,23.541157 C4.237216,27.3154574 7.40342523,29.7775312 11.5746072,30.9214654 C15.7571473,32.0663092 19.7193385,31.5300474 23.4938924,29.3950069 L41.9037022,18.9731528 C42.8668767,18.4291586 43.4793104,17.6331806 43.7628108,16.6129642 L43.7628108,16.6129642 Z" id="Fill-3" fill="#FFFFFF" mask="url(#mask-2)"></path>
                </g>
                <polygon id="Fill-5" fill="#FFFFFF" points="3.08284011 5.32695793 2.46222857 5.95054986 2.68848373 6.79838018 3.53762206 7.02671217 4.1582336 6.40448477 3.93016113 5.55438022"></polygon>
                <polygon id="Fill-7" fill="#FFFFFF" points="5.39282349 3.68792544 6.01388936 3.06660773 5.78717987 2.21877741 4.93622423 1.99090027 4.31743 2.61267282 4.54550247 3.46050314"></polygon>
                <polygon id="Fill-9" fill="#FFFFFF" points="10.4594397 6.1749247 11.0800513 5.55360699 10.8537961 4.70577667 10.0028405 4.47835437 9.38404625 5.09967209 9.61211872 5.94750241"></polygon>
                <path d="M17.7807931,2.23633441 L17.6826584,1.86654575 L16.8317027,1.63912346 L16.2129085,2.26044117 L16.4150843,3.0195768 C16.6472457,2.87129746 16.8716836,2.71574061 17.1147488,2.57655816 C17.3350977,2.45102106 17.5586269,2.35095524 17.7807931,2.23633441" id="Fill-11" fill="#FFFFFF"></path>
                <path d="M12.1354544,6.40366605 L11.2844987,6.17715344 L10.6634328,6.79847115 L10.8919596,7.64721116 L11.57754,7.83096838 C11.7869851,7.492564 12.0196008,7.16962434 12.2544882,6.85032344 L12.1354544,6.40366605 Z" id="Fill-13" fill="#FFFFFF"></path>
                <path d="M8.82136149,12.3428448 L8.20029562,12.9641625 L8.42655078,13.8133574 L9.27568912,14.0407797 L9.36928061,13.9475365 C9.44106437,13.4890532 9.53738183,13.0278408 9.65050941,12.5643541 L8.82136149,12.3428448 Z" id="Fill-15" fill="#FFFFFF"></path>
                <polygon id="Fill-17" fill="#FFFFFF" points="8.30560877 10.5776839 9.15247546 10.8051062 9.77354133 10.1828788 9.54728617 9.33504848 8.69814784 9.10717134 8.0775363 9.72666967"></polygon>
                <polygon id="Fill-19" fill="#FFFFFF" points="6.74871886 6.62221887 7.59376824 6.85055086 8.21619709 6.22741377 7.98994193 5.3791286 7.14125793 5.15079662 6.52019206 5.77211433"></polygon>
                <polygon id="Fill-21" fill="#FFFFFF" points="10.2822065 3.19578359 10.9028181 2.57446588 10.6747456 1.72436133 9.82742458 1.49693904 9.20681305 2.11825675 9.43306821 2.96836129"></polygon>
                <polygon id="Fill-23" fill="#FFFFFF" points="15.0262047 2.88084919 15.6468163 2.25953148 15.4187438 1.40942694 14.5718771 1.18200464 13.9508113 1.80332236 14.1770664 2.6534269"></polygon>
                <polygon id="Fill-25" fill="#FFFFFF" points="18.8560503 1.6992994 19.4771162 1.07798168 19.2485894 0.227877141 18.4017227 0 17.7806568 0.621772558 18.006912 1.47142226"></polygon>
                <polygon id="Fill-27" fill="#FFFFFF" points="13.330018 4.91209418 13.9506295 4.29077646 13.7225571 3.44067192 12.8756904 3.21279478 12.2546245 3.83456734 12.4808797 4.68421703"></polygon>
                <polygon id="Fill-29" fill="#FFFFFF" points="6.65353722 8.82757836 5.80439889 8.60197545 5.18378735 9.22329316 5.41004251 10.0711235 6.25872651 10.2990006 6.87979238 9.67722806"></polygon>
                <g transform="translate(0.000000, 1.160081)">
                    <mask id="mask-4" fill="white">
                        <use xlink:href="#path-3"></use>
                    </mask>
                    <g id="Clip-32"></g>
                    <polygon id="Fill-31" fill="#FFFFFF" mask="url(#mask-4)" points="0.622837743 0 -4.54327626e-05 0.623137092 0.228027036 1.47142226 1.07534806 1.69975424 1.6959596 1.07752684 1.46970444 0.226512607"></polygon>
                </g>
                <path d="M52.3729351,0.58752276 L52.3488558,0.611629523 C52.4192766,0.622545794 52.489243,0.628913618 52.5632984,0.638465354 L52.3729351,0.58752276 Z" id="Fill-33" fill="#005D96"></path>
                <path d="M52.563253,0.638601808 C52.4891976,0.629050071 52.4192311,0.622682247 52.3488103,0.611311132 L52.3479017,0.612220821 C52.4215028,0.621772558 52.4932865,0.629050071 52.5664333,0.639511497 L52.563253,0.638601808 Z" id="Fill-35" fill="#005D96"></path>
                <path d="M57.5018851,2.09906231 L57.3374185,2.05494238 C57.3960268,2.08223306 57.4555437,2.10224622 57.5077914,2.12908205 L57.5018851,2.09906231 Z" id="Fill-37" fill="#005D96"></path>
                <path d="M106.311483,13.9743269 L100.960413,13.9743269 C99.1362871,13.9743269 97.6206501,12.4874399 97.6206501,10.6616937 L97.6206501,1.89956747 L99.7232784,1.89956747 L99.7232784,5.98634613 L105.475066,3.69529392 L106.27968,5.64521269 L99.7232784,8.24601407 L99.7232784,10.6616937 C99.7232784,11.3430509 100.281193,11.8693061 100.960413,11.8693061 L106.311483,11.8693061 L106.311483,13.9743269 Z M103.774518,26.5439572 L103.774518,24.2533598 L89.6417484,24.2533598 L89.6417484,26.5439572 C89.6417484,27.2257692 90.1674054,27.782499 90.8166396,27.782499 L102.569187,27.782499 C103.249769,27.782499 103.774518,27.2257692 103.774518,26.5439572 L103.774518,26.5439572 Z M89.6417484,22.148339 L103.774518,22.148339 L103.774518,19.856832 C103.774518,19.1763845 103.249769,18.6182902 102.569187,18.6182902 L90.8166396,18.6182902 C90.1674054,18.6182902 89.6417484,19.1763845 89.6417484,19.856832 L89.6417484,22.148339 Z M93.414485,14.9345038 L93.414485,16.5132694 L102.569187,16.5132694 C104.362872,16.5132694 105.878055,18.0306309 105.878055,19.856832 L105.878055,26.5439572 C105.878055,28.3715227 104.362872,29.8884295 102.569187,29.8884295 L90.8166396,29.8884295 C89.0224998,29.8884295 87.5391201,28.3715227 87.5391201,26.5439572 L87.5391201,19.856832 C87.5391201,18.0306309 89.0224998,16.5132694 90.8166396,16.5132694 L91.3118567,16.5132694 L91.3118567,14.9345038 L93.414485,14.9345038 Z M96.197696,13.9743269 L90.8484425,13.9743269 C89.0224998,13.9743269 87.5391201,12.4874399 87.5391201,10.6616937 L87.5391201,1.89956747 L89.6417484,1.89956747 L89.6417484,4.62408658 L96.197696,4.62408658 L96.197696,6.72865251 L89.6417484,6.72865251 L89.6417484,10.6616937 C89.6417484,11.3430509 90.1674054,11.8693061 90.8484425,11.8693061 L96.197696,11.8693061 L96.197696,13.9743269 Z M81.3852524,7.37998996 L83.4878807,7.37998996 L83.4878807,1.7753949 L81.3852524,1.7753949 L81.3852524,7.37998996 Z M78.4771013,9.67058733 L80.6419724,9.67058733 C82.4674608,9.67058733 83.9821891,11.1574743 83.9821891,12.9836753 L83.9821891,26.6990592 C83.9821891,27.3808712 84.5078462,27.9071264 85.1888833,27.9071264 L86.9507658,27.9071264 L86.9507658,30.0121472 L85.1888833,30.0121472 C83.3643035,30.0121472 81.8795609,28.5252602 81.8795609,26.6990592 L81.8795609,12.9836753 C81.8795609,12.3018633 81.3230095,11.7756081 80.6419724,11.7756081 L78.4771013,11.7756081 L78.4771013,9.67058733 Z" id="Fill-39" fill="#FFFFFF"></path>
                <path d="M119.867984,5.15052371 L144.856457,5.15052371 L144.856457,3.04550294 L119.867984,3.04550294 L119.867984,5.15052371 Z M118.723532,11.6520723 L146,11.6520723 L146,13.7570931 L126.176777,13.7570931 L122.899258,27.0708492 L140.619852,27.0708492 C141.609378,27.0708492 142.413538,26.2653194 142.413538,25.2746679 L142.413538,19.1447273 L144.516166,19.1447273 L144.516166,25.2746679 C144.516166,27.4115278 142.784723,29.1763248 140.619852,29.1763248 L120.424989,29.1763248 L124.0428,13.7570931 L118.723532,13.7570931 L118.723532,11.6520723 Z" id="Fill-41" fill="#FFFFFF"></path>
            </g>
        </g>
    </g>
</svg>