<?xml version="1.0" encoding="UTF-8"?>
<svg width="45px" height="71px" viewBox="0 0 45 71" version="1.1" xmlns="http://www.w3.org/2000/svg" xmlns:xlink="http://www.w3.org/1999/xlink">
    <title>编组 4</title>
    <defs>
        <linearGradient x1="-0.0256344901%" y1="50.0069107%" x2="99.9666641%" y2="50.0069107%" id="linearGradient-1">
            <stop stop-color="#9FA0A0" offset="0%"></stop>
            <stop stop-color="#BFC0C1" offset="19%"></stop>
            <stop stop-color="#FFFFFF" offset="47%"></stop>
            <stop stop-color="#DCDDDD" offset="69%"></stop>
            <stop stop-color="#A7A7A8" offset="100%"></stop>
        </linearGradient>
    </defs>
    <g id="11月" stroke="none" stroke-width="1" fill="none" fill-rule="evenodd">
        <g id="画板" transform="translate(-1263.000000, -117.000000)" fill-rule="nonzero">
            <g id="编组-18复制-3备份-4" transform="translate(1171.000000, 73.000000)">
                <g id="矩形">
                    <g id="编组-4" transform="translate(92.000000, 44.000000)">
                        <g id="编组-3" transform="translate(3.000000, 0.000000)">
                            <g id="编组-2" transform="translate(0.000000, 61.000000)">
                                <g id="谐云科技新版logo矢量图-02">
                                    <path d="M18.7022763,2.54220493 C18.0990725,1.50846548 17.096994,0.751149487 15.9178786,0.437909733 C14.7387632,0.124669979 13.4798763,0.281345632 12.4199071,0.873252213 L7.02293187,3.84093223 C6.75503014,3.98509375 6.55874958,4.22878231 6.47900536,4.51623426 C6.39926114,4.80368621 6.4428786,5.11029844 6.5998767,5.36590839 C6.7498543,5.62064804 6.99792129,5.80688278 7.28932689,5.88350881 C7.58073249,5.96013483 7.89151925,5.92085246 8.15309353,5.77433168 L13.5591342,2.81546656 C14.0880814,2.5155903 14.7198264,2.43814183 15.3087695,2.60097087 C15.9041825,2.74633965 16.409554,3.12794951 16.7018298,3.65288122 C17.0127267,4.16440494 17.090468,4.77872679 16.9163792,5.34827861 C16.5822555,6.53913891 15.3189195,7.24146688 14.0939968,6.91732923 C13.8728014,6.85955174 13.6611727,6.771502 13.4654577,6.65582079 L11.3290291,7.83113961 C12.7963452,9.33328186 15.12539,9.67461614 16.9828593,8.65973938 C18.0582415,8.08636701 18.839874,7.1038664 19.1404406,5.94769121 C19.4865884,4.80257968 19.327884,3.56910263 18.7022763,2.54220493 Z" id="路径" fill="url(#linearGradient-1)"></path>
                                    <path d="M21.2128283,3.00342477 C21.6317116,3.00342477 21.9719031,3.35848663 21.9741077,3.7979946 L21.9741077,7.07296758 C21.9730348,7.14951265 22.0012657,7.22331129 22.0524783,7.27783634 C22.1036908,7.3323614 22.1736057,7.36305691 22.2465657,7.36304863 L22.6472391,7.36304863 L22.6472391,7.86333333 L22.2465657,7.86333333 C21.8305483,7.86333333 21.4932997,7.50947453 21.4932997,7.07296758 L21.4932997,3.7979946 C21.4933074,3.72032635 21.4636306,3.64589876 21.4109136,3.59137553 C21.3581966,3.5368523 21.286843,3.50678792 21.2128283,3.50791355 L20.72,3.50791355 L20.72,3.00342477 L21.2128283,3.00342477 Z M35,3.59508215 L35,4.10932928 L30.3883344,4.10932928 L29.6231335,7.3490862 L33.747853,7.3490862 C33.973847,7.3490862 34.1570514,7.15722263 34.1570514,6.92054693 L34.1570514,5.42065946 L34.6480894,5.42065946 L34.6480894,6.91197614 C34.6480894,7.43739621 34.2413757,7.86333333 33.739669,7.86333333 L29.0461638,7.86333333 L29.8891124,4.10932928 L28.6615173,4.10932928 L28.6533333,3.59508215 L35,3.59508215 Z M24.1217172,4.26464672 L24.1217172,4.63880923 L26.2092256,4.63880923 C26.6256251,4.64566679 26.9603625,5.00062704 26.9624916,5.43758313 L26.9624916,7.03513092 C26.9603625,7.47208701 26.6256251,7.82704726 26.2092256,7.83390482 L23.5327273,7.83390482 C23.1169859,7.82701632 22.7834162,7.47140276 22.783468,7.03513092 L22.783468,5.43758313 C22.7834162,5.00131129 23.1169859,4.64569773 23.5327273,4.63880923 L23.6449158,4.63880923 L23.6449158,4.26464672 L24.1217172,4.26464672 Z M26.4856912,6.48439734 L23.280303,6.48439734 L23.280303,7.03092685 C23.2781466,7.10787009 23.3052254,7.18255768 23.3555763,7.23854247 C23.4059271,7.29452727 23.4754209,7.3272181 23.5487542,7.32941604 L26.2252525,7.32941604 C26.3722787,7.31836923 26.4860667,7.18979292 26.4856912,7.03513092 L26.4856912,6.48439734 Z M26.2092256,5.143298 L23.5327273,5.143298 C23.381609,5.14787826 23.262022,5.2789735 23.2642447,5.43758313 L23.280303,5.98411264 L26.4857193,5.98411264 L26.4857193,5.43758313 C26.486763,5.35992303 26.4581099,5.28505514 26.406146,5.22974172 C26.354182,5.17442829 26.2832481,5.143298 26.2092256,5.143298 Z M23.280303,1.14102037 L23.280303,1.80105985 L24.7748148,1.80105985 L24.7748148,2.30134456 L23.280303,2.30134456 L23.280303,3.24305694 C23.2792113,3.31922163 23.3075659,3.39260303 23.3589002,3.44646569 C23.4102345,3.50032834 23.4801714,3.53007944 23.5527609,3.52893392 L24.7547811,3.52893392 L24.7587879,4.03342269 L23.5567677,4.03342269 C23.1416611,4.03112422 22.8056923,3.67860828 22.8035017,3.24305694 L22.8035017,1.14102037 L23.280303,1.14102037 Z M25.5761616,1.14102037 L25.5761616,2.12477348 L26.8863636,1.57824397 L27.0666667,2.04489609 L25.5601347,2.66289485 L25.5601347,3.24305694 C25.5611764,3.32073863 25.5918721,3.39473555 25.6453457,3.44847209 C25.6988193,3.50220862 25.7706015,3.53119347 25.8446128,3.52893392 L27.046633,3.52893392 L27.0626599,4.03342269 L25.8606397,4.03342269 C25.4433064,4.03342269 25.1037533,3.68092049 25.0993603,3.24305694 L25.0993603,1.14102037 L25.5761616,1.14102037 Z M21.8619192,1.12 L21.8619192,2.45689526 L21.3811111,2.45689526 L21.3811111,1.12 L21.8619192,1.12 Z M34.7340211,1.51666667 L34.7340211,2.0309138 L28.9193123,2.0309138 L28.9193123,1.51666667 L34.7340211,1.51666667 Z" id="形状结合" fill="#40454A"></path>
                                    <path d="M15.3580218,4.99373588 C15.4410823,4.70735078 15.3998012,4.40044044 15.243777,4.14436585 C15.0953564,3.88615176 14.8461376,3.69679686 14.5522953,3.61898233 C14.2569649,3.53449147 13.9387042,3.57364338 13.6744141,3.72697783 L8.2778501,6.68955714 C7.17331544,7.30099221 5.76746666,6.93041703 5.1331114,5.86061869 C4.82407884,5.34705781 4.74685651,4.73250589 4.919654,4.16187863 C5.25489165,2.97352357 6.51825512,2.27339375 7.74270337,2.59740325 C7.96356772,2.65533286 8.17432271,2.74485017 8.36804337,2.86301381 L10.5026174,1.69549487 C9.92330132,1.08937411 9.17739043,0.656900266 8.35301116,0.449168406 C7.24895755,0.139044441 6.06391302,0.258386327 5.04893102,0.781911304 L5.08801477,0.919094779 L4.90462178,1.09422262 L4.65809351,1.03000908 L4.65809351,1.0037399 C4.18265779,1.28521429 3.76561539,1.65050138 3.42845859,2.08077612 L3.46152945,2.19460922 L3.27813647,2.36973706 L3.23003339,2.36973706 C2.9928667,2.74760247 2.81265549,3.15649219 2.69488665,3.58395676 C2.69488665,3.62773872 2.676848,3.67152068 2.66482223,3.71530264 L2.66482223,3.71530264 L2.73096396,3.95464402 L2.5776354,4.10642148 C2.41181756,5.09488857 2.60639014,6.10855039 3.12781435,6.97268048 C3.71937116,8.01507221 4.72768918,8.77434484 5.91478641,9.07129577 C7.09089104,9.40022304 8.3546438,9.24395551 9.40827243,8.63931376 L14.8198687,5.67381566 C15.0894643,5.53032341 15.2846903,5.28361056 15.3580218,4.99373588 L15.3580218,4.99373588 Z M6.10118584,0.417061635 L6.35072056,0.481275177 L6.41686229,0.723535357 L6.2334693,0.901581995 L5.98393459,0.837368453 L5.91478641,0.595108274 L6.10118584,0.417061635 Z M5.22330467,1.27226926 L5.46983295,1.3364828 L5.53898112,1.57874298 L5.35558814,1.75387082 L5.10605342,1.68965728 L5.03991169,1.4473971 L5.22330467,1.27226926 Z M3.57878071,2.24130998 L3.82831542,2.30552352 L3.89445715,2.5477837 L3.71407061,2.72583034 L3.4645359,2.6616168 L3.39839416,2.41935662 L3.57878071,2.24130998 Z M3.45251013,2.96517172 L3.70204484,3.02938526 L3.76818657,3.27164544 L3.58479359,3.44969208 L3.35029109,3.40882892 L3.27813647,3.15489355 L3.45251013,2.96517172 Z M3.32623955,4.49170273 L3.07670483,4.42748919 L3.0105631,4.18522901 L3.19395608,4.01010117 L3.44048436,4.07431471 L3.50662609,4.31657489 L3.32623955,4.49170273 Z M3.76518013,4.06555832 L3.51564542,4.00134478 L3.44950368,3.7590846 L3.63289667,3.58395676 L3.87942494,3.6481703 L3.94857312,3.89043048 L3.76518013,4.06555832 Z M4.27928177,1.24891888 L4.52881649,1.31313242 L4.59495822,1.5524738 L4.41457168,1.73052044 L4.18006918,1.65755051 L4.110921,1.41529033 L4.27928177,1.24891888 Z M4.48071341,2.60907844 L4.22817225,2.53318971 L4.16203052,2.29384833 L4.34241706,2.11580169 L4.59195178,2.18001523 L4.65809351,2.42227541 L4.48071341,2.60907844 Z" id="形状" fill="#005D97"></path>
                                    <polygon id="路径" fill="#005D97" points="1.04578313 1.68 0.84 1.88578313 0.914216867 2.16240964 1.19421687 2.24 1.4 2.03421687 1.32578313 1.75421687"></polygon>
                                    <polygon id="路径" fill="#005D97" points="1.75421687 1.12 1.96 0.914216867 1.88578313 0.634216867 1.60578313 0.56 1.4 0.765783133 1.47759036 1.04240964"></polygon>
                                    <polygon id="路径" fill="#005D97" points="2.8729697 1.68 3.08 1.47421687 3.00533333 1.19759036 2.72363636 1.12 2.52 1.32578313 2.59466667 1.60578313"></polygon>
                                    <polygon id="路径" fill="#005D97" points="5.04 0.823283582 5.0061745 0.672835821 4.70550336 0.56 4.48 0.810746269 4.5514094 1.12 4.80697987 0.940298507"></polygon>
                                    <path d="M3.32025806,2.03652174 L3.0203871,1.96 L2.8,2.16869565 L2.88309677,2.4573913 L3.12154839,2.52 C3.19741935,2.40521739 3.28051613,2.2973913 3.36,2.17217391 L3.32025806,2.03652174 Z" id="路径" fill="#005D97"></path>
                                    <path d="M2.47558621,3.92 L2.24,4.12363636 L2.32496552,4.40533333 L2.64551724,4.48 L2.68027586,4.44945455 C2.7085977,4.29785859 2.74850575,4.144 2.8,3.98787879 L2.47558621,3.92 Z" id="路径" fill="#005D97"></path>
                                    <polygon id="路径" fill="#005D97" points="2.31421687 3.56578313 2.59421687 3.64 2.8 3.43421687 2.72240964 3.15759036 2.44578313 3.08 2.24 3.28578313"></polygon>
                                    <polygon id="路径" fill="#005D97" points="1.75421687 2.16240964 2.03421687 2.24 2.24 2.03421687 2.16578313 1.75421687 1.88578313 1.68 1.68 1.88240964"></polygon>
                                    <polygon id="路径" fill="#005D97" points="2.87421687 1.12 3.08 0.916363636 3.00240964 0.634666667 2.72578313 0.56 2.52 0.763636364 2.59421687 1.04533333"></polygon>
                                    <polygon id="路径" fill="#005D97" points="4.27636364 0.84 4.48 0.634216867 4.40533333 0.357590361 4.1270303 0.28 3.92 0.485783133 3.99466667 0.765783133"></polygon>
                                    <polygon id="路径" fill="#005D97" points="5.39421687 0.56 5.6 0.354216867 5.52578313 0.0742168675 5.24578313 0 5.04 0.205783133 5.11421687 0.485783133"></polygon>
                                    <polygon id="路径" fill="#005D97" points="3.7129697 1.68 3.92 1.47421687 3.84533333 1.19421687 3.56363636 1.12 3.36 1.32578313 3.43127273 1.60240964"></polygon>
                                    <polygon id="路径" fill="#005D97" points="1.88533333 2.87466667 1.60363636 2.8 1.4 3.0070303 1.47466667 3.28533333 1.75636364 3.36 1.96 3.15636364"></polygon>
                                    <polygon id="路径" fill="#005D97" points="0.205783133 0.28 0 0.485783133 0.0775903614 0.762409639 0.354216867 0.84 0.56 0.634216867 0.485783133 0.354216867"></polygon>
                                    <polygon id="路径" fill="#C9A063" points="14.9506 0.14 14.9506 0.14 15.0094 0.14"></polygon>
                                </g>
                            </g>
                            <path d="M19.9185843,0 L39.8371686,11.5 L39.8371686,34.5 L19.9185843,46 L0,34.5 L0,11.5 L19.9185843,0 Z M19.9185843,4.619 L3.99958429,13.809 L3.99958429,32.19 L19.9185843,41.38 L35.8365843,32.19 L35.8365843,13.809 L19.9185843,4.619 Z" id="多边形" fill="#029639"></path>
                            <path d="M15.7739258,30.2341309 L15.7739258,20.2670898 L15.7739258,20.2670898 L22.5560464,30.3357006 C23.0973347,31.1392872 24.0027915,31.6210938 24.9716797,31.6210938 C25.8276132,31.6210938 26.5214844,30.9272226 26.5214844,30.0712891 L26.5214844,16.3869629 C26.5214844,15.6209644 25.9005199,15 25.1345215,15 C24.368523,15 23.7475586,15.6209644 23.7475586,16.3869629 L23.7475586,26.3540039 L23.7475586,26.3540039 L16.8978793,16.2592141 C16.3634662,15.471617 15.4735198,15 14.5217285,15 C13.6813011,15 13,15.6813011 13,16.5217285 L13,30.2341309 C13,31.0001293 13.6209644,31.6210938 14.3869629,31.6210938 C15.1529613,31.6210938 15.7739258,31.0001293 15.7739258,30.2341309 Z" id="N" fill="#029639"></path>
                        </g>
                    </g>
                </g>
            </g>
        </g>
    </g>
</svg>