<?xml version="1.0" encoding="UTF-8"?>
<svg width="60px" height="60px" viewBox="0 0 60 60" version="1.1" xmlns="http://www.w3.org/2000/svg" xmlns:xlink="http://www.w3.org/1999/xlink" style="background: #313131;">
    <title>画板备份 2</title>
    <defs>
        <rect id="path-1" x="0" y="0" width="60" height="60"></rect>
        <polygon id="path-3" points="-2.4179502e-15 0 31.3184962 0 31.3184962 31.6636422 -2.4179502e-15 31.6636422"></polygon>
    </defs>
    <g id="V1.1中间件平台" stroke="none" stroke-width="1" fill="none" fill-rule="evenodd">
        <g id="中间件矢量图标" transform="translate(-239.000000, -101.000000)">
            <rect fill="#FFFFFF" x="0" y="0" width="868" height="348"></rect>
            <g id="es-黑白备份" transform="translate(239.000000, 101.000000)">
                <mask id="mask-2" fill="white">
                    <use xlink:href="#path-1"></use>
                </mask>
                <use id="蒙版" fill="#D8D8D8" opacity="0" xlink:href="#path-1"></use>
                <g id="编组" mask="url(#mask-2)">
                    <path d="M10.5745014,38.3733692 C13.9665743,35.4124516 17.3096446,32.3933434 20.6040525,29.3245519 C21.813125,28.1985117 22.8472853,27.8925854 24.4453164,28.7001083 C27.8846905,30.4383415 31.4295564,31.9737581 34.9696582,33.5030494 C36.2359005,34.0499055 36.8787201,35.0255348 37.6913475,36.0576533 C40.3143509,39.3891535 39.7028385,42.9074763 38.8078594,46.5380968 C38.5277956,47.6729848 38.2889077,48.829992 38.1725264,49.9907425 C37.7862901,53.8449377 35.2616323,56.104845 32.1805902,57.7814846 C26.7474204,60.737638 21.1754098,60.8118226 15.8569199,57.5677785 C10.7483928,54.4523665 8.15125191,49.750153 8.06141371,43.0667349 C7.54314254,41.2815408 8.9216826,39.8158849 10.5745014,38.3733692 Z" id="Fill-1" fill="#3EBDB2"></path>
                    <g transform="translate(20.574316, 0.000000)">
                        <mask id="mask-4" fill="white">
                            <use xlink:href="#path-3"></use>
                        </mask>
                        <g id="Clip-4"></g>
                        <path d="M15.3033201,-0.000170148119 C23.0164747,0.265260918 29.7485551,5.69230533 31.138325,13.2213596 C31.4796421,15.0708697 31.2356497,17.0319969 31.2114887,18.9410588 C31.2077454,19.2316718 31.0049288,19.5964693 30.7786319,19.7965635 C26.3935745,23.6698153 22.0119202,27.5478312 17.5594842,31.3424746 C17.142281,31.6980842 16.1465742,31.7583166 15.6072047,31.5235122 C11.6104253,29.785279 7.64529357,27.9718403 3.71351083,26.0917036 C3.02543184,25.7629775 2.40949565,25.0942954 1.98344476,24.4375236 C0.00700420467,21.3918723 -0.623564725,18.1876429 0.692701125,14.6312069 C1.24330044,13.1447929 1.2650794,11.4616878 1.51587773,9.86603869 C2.24581316,5.22746066 5.63005925,2.99171438 9.49106037,1.38143258 C11.3051796,0.624613745 13.3585271,0.442555258 15.3033201,-0.000170148119" id="Fill-3" fill="#F3BD16" mask="url(#mask-4)"></path>
                    </g>
                    <path d="M54.0806609,41.1075134 C52.9889905,41.6621962 51.3725834,41.4675468 50.0610817,41.2436318 C47.654847,40.832554 45.2802599,40.1992627 42.9271114,39.5350044 C42.3227452,39.3641757 41.8259127,38.7570872 41.325337,38.3000694 C41.1351114,38.1258377 41.0820252,37.8052787 40.9513514,37.5595848 C38.8285835,33.5658681 38.8649952,33.6097663 42.2907574,30.7393676 C45.5644072,27.9969202 48.7985827,25.2024075 51.9466632,22.3177163 C52.9018747,21.4428146 53.596079,21.4802472 54.5778337,22.0866551 C58.0930938,24.2584257 59.9351174,27.3571632 59.9861618,31.0844279 C59.9708485,35.9237808 57.9079727,39.1616995 54.0806609,41.1075134 Z" id="Fill-5" fill="#0F6B59"></path>
                    <path d="M6.63679754,18.6753895 C7.94761865,18.2227955 9.64569687,18.759783 11.1392571,19.0071783 C12.6161427,19.2518513 14.0423243,19.8157222 15.5205711,20.0365745 C17.5899126,20.3452231 18.7683584,21.3695148 19.5680546,23.3639911 C20.7049843,26.2013811 20.9091621,26.1619067 18.6703531,28.2132125 C15.1111948,31.4749519 11.4921443,34.6706739 7.94183361,37.9419416 C7.23095477,38.5970119 6.65143027,38.5987134 5.87487426,38.1607521 C2.08499505,36.0223305 0.199753892,32.7480001 0,29.2106207 C0.0207580705,24.2130302 2.64035851,20.0549504 6.63679754,18.6753895 Z" id="Fill-7" fill="#2D4390"></path>
                    <path d="M18.0974984,18.2709814 C14.9705163,17.56861 11.9466439,16.9118383 8.94080725,16.180882 C8.61752582,16.1022735 8.26463862,15.6326647 8.15370205,15.2736522 C7.25497968,12.3682029 8.52394435,8.91896023 11.1418433,7.00649537 C13.3541092,5.39008824 17.2426743,5.25703241 19.526062,6.78734459 C19.8374331,6.99594619 20.147443,7.57308861 20.0868702,7.91304455 C19.4733161,11.345953 18.7828551,14.7649093 18.0974984,18.2709814" id="Fill-9" fill="#E6458B"></path>
                    <path d="M42.2146672,41.9481471 C45.2882228,42.6746796 48.1722334,43.3348543 51.037868,44.06513 C51.3461764,44.1437385 51.6755832,44.5925892 51.7820959,44.9356078 C52.5981263,47.5623545 51.4717457,50.8227327 49.1818923,52.6140521 C47.0094412,54.3138319 43.5111958,54.6323491 41.2107933,53.422596 C40.250137,52.9175964 40.2001134,52.1709864 40.371963,51.2920013 C40.9616964,48.2745945 41.5609581,45.2592295 42.2146672,41.9481471" id="Fill-11" fill="#96C63D"></path>
                </g>
            </g>
        </g>
    </g>
</svg>