<?xml version="1.0" encoding="UTF-8"?>
<svg width="60px" height="60px" viewBox="0 0 60 60" version="1.1" xmlns="http://www.w3.org/2000/svg" xmlns:xlink="http://www.w3.org/1999/xlink">
    <title>画板备份 3</title>
    <defs>
        <polygon id="path-1" points="6.83626372e-15 0 24.510395 0 24.510395 24.0127842 6.83626372e-15 24.0127842"></polygon>
        <polygon id="path-3" points="0 -3.41813186e-15 9.127894 -3.41813186e-15 9.127894 13.9453798 0 13.9453798"></polygon>
    </defs>
    <g id="V1.1中间件平台" stroke="none" stroke-width="1" fill="none" fill-rule="evenodd">
        <g id="中间件矢量图标" transform="translate(-481.000000, -100.000000)">
            <rect fill="#FFFFFF" x="0" y="0" width="868" height="348"></rect>
            <g id="编组-48备份" transform="translate(481.000000, 100.000000)" fill="#FFFFFF">
                <rect id="矩形备份-2" x="0" y="0" width="60" height="60"></rect>
            </g>
            <g id="编组备份" transform="translate(481.000000, 109.000000)">
                <path d="M-1.99618775e-15,35.4781709 C0.072760218,34.4631358 0.134095278,33.4470183 0.220806215,32.4331859 C0.468190956,29.5397345 0.725557678,26.6470047 0.980759633,23.7541546 C0.987614728,23.6768244 1.01395272,23.6011778 1.04979164,23.4411053 C1.91870499,23.4411053 2.79363158,23.4181347 3.66519075,23.4638354 C3.80890721,23.471412 3.99880537,23.7589652 4.06290652,23.9517498 C5.04318509,26.8955921 6.00566447,29.8454477 6.97307471,32.793379 C7.04715784,33.0188756 7.12869739,33.2418465 7.26904644,33.6449742 C8.42214556,30.1527243 9.52076472,26.8257182 10.6286443,23.4706905 L13.4876999,23.4706905 C13.8452472,28.0684146 14.2029148,32.667101 14.5644309,37.3152161 L12.2126523,37.3152161 C11.9965364,33.7339702 11.7809015,30.1582565 11.5651465,26.5825428 C11.4961144,26.5779727 11.4270824,26.5734026 11.3579302,26.5687123 C11.2922656,26.7663074 11.2244362,26.9631809 11.1609364,27.1614976 C10.1300263,30.383272 9.09274222,33.6028815 8.07818817,36.829707 C7.95660043,37.2164787 7.79953458,37.367411 7.37596187,37.3598344 C6.15407126,37.3380664 6.14962147,37.3605559 5.77487628,36.1823215 C4.80987134,33.1497237 3.84919593,30.1156827 2.88635576,27.0822431 C2.83259738,26.9125494 2.77523106,26.7439382 2.71942818,26.5749661 L2.53205559,26.5768903 C2.37811661,30.1352859 2.22441817,33.6936815 2.06927655,37.2821433 L-1.99618775e-15,37.2821433 L-1.99618775e-15,35.4781709 Z" id="Fill-1" fill="#00648C"></path>
                <g id="编组" transform="translate(35.489605, 0.000000)">
                    <mask id="mask-2" fill="white">
                        <use xlink:href="#path-1"></use>
                    </mask>
                    <g id="Clip-4"></g>
                    <path d="M1.7924902,-1.20264823e-05 C2.89219174,0.327108292 3.92827319,0.771366549 4.81498573,1.52951599 C4.95990485,1.65338876 5.22304428,1.67311219 5.43362798,1.68044835 C6.72443033,1.72554766 7.90350666,2.09211484 9.00477164,2.77642168 C11.3961174,4.26229357 13.3802464,6.15045129 14.7932378,8.59567568 C15.2012964,9.30199098 15.481754,10.0816678 15.8284774,10.8240626 C16.3706313,11.9850992 16.8853647,13.1611689 17.4852456,14.2916582 C17.6709345,14.6417491 18.0509714,14.9657426 18.4187412,15.1291825 C20.4219924,16.0195029 22.2193501,17.1777735 23.6327023,18.8792802 C23.6930753,18.9520404 23.7366112,19.0386311 23.8566354,19.2256429 C22.6031152,19.4831299 21.4235578,19.7254635 20.0337775,20.0109722 C20.4959552,20.3890848 20.7895217,20.7236615 21.1576523,20.9136799 C22.4182682,21.5643126 23.3545298,22.5734547 24.2717896,23.6097767 C24.3910923,23.7445936 24.459523,23.92463 24.510395,24.0127842 C23.4650532,23.4207204 22.3878412,22.8285364 21.3287891,22.2054444 C20.3765323,21.6452508 19.4500121,21.0517439 18.9234927,20.0107316 C18.7301068,19.6281692 18.7825423,19.4154208 19.2132106,19.3232979 C20.3204889,19.0862559 21.4270455,18.8458466 22.5643899,18.6002658 C22.5095492,18.544944 22.4011906,18.3943724 22.2571133,18.2963566 C20.8519391,17.3414539 19.4967951,16.2903393 17.7861482,15.9056122 C17.2356961,15.7818597 16.8602294,15.4315282 16.6278777,14.9389235 C15.9109791,13.4186559 15.1859025,11.9015151 14.5056847,10.364651 C13.0061026,6.97679089 10.5999643,4.47720681 7.21222445,2.98219479 C6.52202463,2.67768426 5.69472292,2.69115392 4.93705453,2.52831535 C4.63831671,2.46409393 4.3433071,2.34515202 4.07018568,2.20504351 C3.30842829,1.81442336 2.57517367,1.36415186 1.79561708,1.0156244 C1.55460638,0.907867123 1.0793198,0.9441871 0.934520951,1.10979176 C0.793209784,1.27130742 0.913113812,1.68658185 0.96591007,1.98195226 C0.992127801,2.12831455 1.10686044,2.27179048 1.21209216,2.38904869 C2.36483049,3.67203382 2.9904481,5.21010064 3.50169387,6.83391628 C3.72262035,7.53554126 4.1733729,8.18918058 4.6236444,8.78617516 C4.96579782,9.23981407 4.99466138,9.65184135 4.81113726,10.1248429 C4.41594705,11.1430049 4.09135229,12.1900304 4.22749207,13.2839593 C4.33729386,14.1669436 4.57541821,15.039946 4.82893645,15.8958707 C4.91757163,16.1949693 5.22256322,16.4299668 5.51264197,16.6601537 C5.84577553,15.3629773 5.75689983,13.9806534 6.83615635,13.1196775 C7.867788,14.9816175 8.91132588,16.8656862 9.87609029,18.6071209 C9.14896917,18.2616 8.53670095,17.5503539 6.93357086,15.0327301 C6.85046787,15.5324304 6.7829993,15.9275004 6.71925894,16.3232919 C6.6349533,16.8457223 6.56207282,17.3936488 5.93825918,17.5492715 C5.32478832,17.7022484 4.89917111,17.3602152 4.56254987,16.9010441 C3.54186232,15.5087382 3.35340734,13.9112606 3.53560855,12.2645946 C3.62508557,11.4562948 3.89892858,10.6690412 4.07379363,9.86891936 C4.10830963,9.71053059 4.14246484,9.47433048 4.0581592,9.37968206 C3.10722525,8.31221149 2.76302732,6.96019435 2.25069918,5.68129822 C1.97228611,4.98676887 1.58515364,4.33216743 1.20824369,3.68213606 C0.988399592,3.3035424 0.671501783,2.98267585 0.433497698,2.61310205 C-0.307453878,1.46204743 -0.100838912,0.641600805 1.07090126,-1.20264823e-05 L1.7924902,-1.20264823e-05 Z" id="Fill-3" fill="#00648C" mask="url(#mask-2)"></path>
                </g>
                <g id="编组" transform="translate(15.396509, 27.064925)">
                    <mask id="mask-4" fill="white">
                        <use xlink:href="#path-3"></use>
                    </mask>
                    <g id="Clip-6"></g>
                    <path d="M1.07977204,13.9454279 C1.04597762,13.9240208 1.01482903,13.8938343 0.978027999,13.88277 C-0.0545657727,13.570803 -0.0545657727,13.5711638 0.037436817,12.3906443 C0.340985231,12.3906443 0.652230593,12.3938915 0.963475955,12.390043 C2.67472412,12.3693574 3.65283793,11.1618986 3.18188088,9.50308591 C2.55914963,7.31017712 1.83395275,5.14637243 1.14952564,2.97114257 C0.850066227,2.01960729 0.54218828,1.07071784 0.203282008,0.0115455377 C0.935454251,0.0115455377 1.60220243,-0.00180385769 2.2672669,0.0252557275 C2.37177703,0.0294649963 2.52475389,0.199399191 2.56107387,0.320866663 C3.30226597,2.7929101 4.03167212,5.26844122 4.75590689,7.74541552 C4.81435559,7.94493486 4.81820407,8.16056969 4.97069986,8.39520636 C5.23624459,7.54673803 5.5599975,6.71137857 5.7551873,5.84703529 C6.15590969,4.07252782 6.50443715,2.28539255 6.83480462,0.496212775 C6.90467848,0.117979906 7.02374066,-0.0163559013 7.40053035,0.00156355735 C7.93763305,0.0270596999 8.47714105,0.0080578578 9.127894,0.0080578578 C8.9217601,0.998679206 8.7473761,1.92976947 8.53270339,2.85159934 C7.90456022,5.54901905 7.15278481,8.20807429 5.744604,10.621188 C5.35422438,11.2902212 4.85656855,11.9038123 4.35626688,12.4993637 C3.72066729,13.25607 2.85391871,13.666173 1.9216258,13.9454279 L1.07977204,13.9454279 Z" id="Fill-5" fill="#00648C" mask="url(#mask-4)"></path>
                </g>
                <path d="M44.5480147,30.7316431 C44.4243825,29.5977863 44.3511412,28.7413805 44.2290724,27.8919501 C44.1755546,27.5208128 44.0445862,27.1554483 43.9094085,26.802471 C43.5229976,25.7930884 42.8289493,25.1405315 41.7228738,24.9899599 C40.1202247,24.7719198 38.9691701,25.4247172 38.4710332,26.9784185 C37.748843,29.2303773 37.8011582,31.5174534 38.4833002,33.767488 C38.9080756,35.1679719 39.861054,35.8176424 41.2388079,35.8295487 C42.5766337,35.8413346 43.572667,35.1685732 43.9815674,33.7601519 C44.2901669,32.6968906 44.3967216,31.57494 44.5480147,30.7316431 M44.5616047,36.4160802 C45.4356894,36.8561292 46.2336465,37.257934 47.0806716,37.6845133 C46.781573,38.207064 46.5068882,38.6870409 46.1961239,39.2300365 C45.2431454,38.6800655 44.3293733,38.1189098 43.3804838,37.6247417 C43.0772962,37.4667137 42.6831884,37.4465092 42.3279261,37.432318 C41.3548634,37.3934724 40.3601531,37.5092875 39.4110231,37.3470502 C38.0052476,37.1066408 36.9403025,36.2504755 36.4277339,34.9056743 C35.31336,31.9811946 35.2678999,29.0084887 36.5513661,26.1413753 C37.8454156,23.2504495 41.9223931,22.2558594 44.5304561,24.0795552 C45.6640723,24.8722206 46.2308804,26.0298898 46.5167499,27.3328389 C46.9254098,29.1956208 46.9165102,31.0718723 46.517712,32.9350149 C46.2358113,34.2519147 45.6735732,35.4348395 44.5616047,36.4160802" id="Fill-7" fill="#F58D05"></path>
                <path d="M25.9847183,36.2171381 C26.1885672,35.8079972 26.3639133,35.4557415 26.5351704,35.1121449 C27.3180944,35.3426926 28.0472601,35.649849 28.8040866,35.7520741 C29.4592894,35.8403484 30.1814796,35.8170171 30.8113065,35.6308471 C32.4270644,35.1532755 32.796999,33.2975893 31.4841882,32.2423857 C30.7576684,31.6585 29.8974141,31.2400987 29.0940451,30.7527856 C28.5807548,30.4415403 28.0317459,30.1809264 27.549965,29.8278289 C26.2480983,28.8735275 25.9013748,27.5396704 26.2684231,26.0380438 C26.6456938,24.494565 27.7560989,23.6598069 29.2636185,23.3489223 C30.6431763,23.064496 31.9618801,23.3106781 33.2406559,23.8881898 C33.7826895,24.133049 33.9374703,24.419159 33.5867781,24.9278792 C33.4983834,25.0562018 33.4535247,25.2145905 33.3739093,25.3919811 C32.7622425,25.242973 32.1746285,25.0327501 31.5718612,24.9717759 C30.9652455,24.9104408 30.3156952,24.8898755 29.734335,25.0412889 C28.4467798,25.3765872 28.0080537,26.8243352 28.8502683,27.8570492 C29.1343338,28.2053362 29.5138896,28.4996242 29.9004207,28.7358243 C30.7707773,29.2679961 31.6648259,29.7634872 32.5639258,30.246591 C34.0496774,31.0450292 34.8520843,32.2165288 34.6529257,33.954596 C34.4602615,35.6349361 33.4773371,36.7024067 31.9295288,37.2096837 C29.8272997,37.8986809 27.8672236,37.4748677 25.9847183,36.2171381" id="Fill-9" fill="#F58D05"></path>
                <polygon id="Fill-11" fill="#F58D05" points="48.8418417 37.3096238 48.8418417 23.4790489 50.9991521 23.4790489 50.9991521 35.6028254 55.3797983 35.6028254 55.3797983 37.3096238"></polygon>
                <path d="M40.4806223,4.27502962 C41.0432212,4.0846504 41.3899447,4.26709214 41.6331201,4.70942616 C41.8507995,5.10509742 41.709368,5.41044981 41.4164029,5.74081728 C41.0931311,5.23438211 40.800647,4.7762934 40.4806223,4.27502962" id="Fill-13" fill="#00648C"></path>
            </g>
        </g>
    </g>
</svg>