<?xml version="1.0" encoding="UTF-8"?>
<svg width="60px" height="60px" viewBox="0 0 60 60" version="1.1" xmlns="http://www.w3.org/2000/svg" xmlns:xlink="http://www.w3.org/1999/xlink">
    <title>画板备份 4</title>
    <defs>
        <rect id="path-1" x="0" y="0" width="60" height="60"></rect>
        <polygon id="path-3" points="0 3.39634107e-15 59.9762097 3.39634107e-15 59.9762097 15.7211174 0 15.7211174"></polygon>
    </defs>
    <g id="V1.1中间件平台" stroke="none" stroke-width="1" fill="none" fill-rule="evenodd">
        <g id="中间件矢量图标" transform="translate(-672.000000, -101.000000)">
            <rect fill="#FFFFFF" x="0" y="0" width="868" height="348"></rect>
            <g id="1黑白备份" transform="translate(672.000000, 101.000000)">
                <mask id="mask-2" fill="white">
                    <use xlink:href="#path-1"></use>
                </mask>
                <use id="蒙版" fill="#D8D8D8" opacity="0" xlink:href="#path-1"></use>
            </g>
            <g id="编组备份-2" transform="translate(672.000000, 105.000000)">
                <path d="M59.9325971,27.2069776 C59.940524,25.649439 59.8494664,24.0942904 59.843133,22.5367518 C59.6575524,22.2160188 59.4190341,22.3070764 59.1921072,22.4675624 C58.9652997,22.6278094 58.7505616,22.8017986 58.5091754,22.9441209 C57.1022044,23.7731989 55.6121823,24.43725 54.1239526,25.0923388 C50.6739221,26.6110405 47.2066839,28.0907858 43.7435087,29.5797325 C40.6808911,30.8966018 37.6201856,32.2176536 34.6109837,33.6523482 C33.4265183,34.2169768 32.2591411,34.7989327 30.9765677,35.1183512 C30.3299633,35.2794347 29.7015226,35.3164791 29.0350816,35.22817 C27.7502377,35.0580047 26.6050871,34.526238 25.4417729,34.0110816 C23.4095877,33.1112606 21.3434651,32.290189 19.2984936,31.4202426 C16.048503,30.0376493 12.7786757,28.7024967 9.52737066,27.3227713 C7.44511578,26.4390827 5.35234506,25.5789351 3.27785755,24.6754098 C2.18480818,24.1994487 1.09128081,23.7231292 0.305939108,22.7637982 C0.241171122,22.6846905 0.136132268,22.6671243 0.0337223718,22.7137285 C0.0334833755,23.6657701 0.0332443792,24.6178117 0.033005383,25.5698533 C0.0261939897,26.5046871 0.0374268137,27.4401185 0.00552081352,28.3741159 C-0.0120454113,28.8842534 0.15895641,29.2599555 0.589388667,29.5223734 C1.17839494,29.9131322 1.76752071,30.3035326 2.35640749,30.6942915 C2.36584784,30.886086 2.50470466,30.9715272 2.65515281,31.0266158 C3.08630205,31.1844728 3.46427463,31.4501172 3.887537,31.622553 C5.72446223,32.3714477 7.53581485,33.1806891 9.36640668,33.9453576 C11.7821808,34.9543998 14.2033324,35.9518507 16.6157606,36.9697357 C19.7241459,38.2815862 22.8817645,39.4854103 25.9283692,40.9320546 C28.5892341,42.1957473 31.1229529,42.0585635 33.7019615,40.7918833 C34.8939553,40.206223 36.0821252,39.6129148 37.2964652,39.0683618 C40.4667505,37.6466926 43.6687028,36.2999487 46.851655,34.908393 C50.2701379,33.4138299 53.7118035,31.9726825 57.093959,30.3947097 C57.4060882,30.2490415 57.6095935,30.058203 57.733035,29.7547972 C58.5206472,29.2948489 59.4094743,28.9634806 59.8622527,28.076685 C59.746459,27.7773422 59.9303666,27.502616 59.9325971,27.2069776" id="Fill-1" fill="#A6190F"></path>
                <g id="编组" transform="translate(0.000000, 29.754881)">
                    <mask id="mask-4" fill="white">
                        <use xlink:href="#path-3"></use>
                    </mask>
                    <g id="Clip-4"></g>
                    <path d="M59.9641368,1.914838 C59.7719838,2.77414904 59.0486616,3.14256177 58.3932144,3.5236413 C56.6223716,4.55263968 54.7137475,5.30033947 52.8482623,6.13216594 C50.1297993,7.34423546 47.3941287,8.51782657 44.6609675,9.69643661 C42.7106386,10.5373449 40.7399949,11.3317685 38.8012573,12.1982494 C36.9172498,13.0403527 35.050689,13.9242804 33.1973926,14.8328246 C31.2690513,15.7779353 29.2746275,16.0156171 27.2518827,15.318704 C25.9813786,14.8809824 24.7952402,14.2028305 23.5523402,13.6779947 C20.8471415,12.5354731 18.1283201,11.425455 15.4178636,10.2956002 C13.6238382,9.54778094 11.8337562,8.7902823 10.0434353,8.03373965 C7.92437497,7.13834018 5.79455983,6.26636234 3.69306575,5.33105049 C2.50071343,4.80023981 1.2703607,4.31818436 0.256538581,3.45098644 C0.112782333,3.38251401 0.108002408,3.22226702 0.0317626025,3.1091023 C-0.100282829,2.49798887 0.191890094,2.08476434 0.667612142,1.76558484 C1.19244792,1.41366286 1.75289414,1.13128878 2.35647919,0.939255287 C3.39694939,1.09926328 4.24096467,1.75016958 5.21511341,2.09014176 C6.25928805,2.45473055 7.24000919,2.99784954 8.26243517,3.42983527 C9.85080429,4.10081726 11.4531547,4.73857877 13.0457062,5.39976191 C15.8102954,6.54766093 18.5760796,7.6925725 21.3332599,8.85815724 C23.1405496,9.62222827 24.9295561,10.4293186 26.7336193,11.2012765 C28.8533966,12.1085063 30.9817778,11.9933101 33.013007,11.0039851 C35.4024915,9.84019286 37.8179072,8.73543266 40.2449142,7.65791804 C43.1089258,6.38621896 46.0108184,5.20055854 48.8863018,3.95443206 C51.0874573,3.000598 53.2739146,2.01258747 55.4650323,1.03545128 C56.2239649,0.697032581 56.9771616,0.345469088 57.7329872,3.39634107e-15 C57.779711,0.343318122 58.1085699,0.312846099 58.3180501,0.415972984 C58.7972376,0.651981787 59.2899283,0.859430537 59.6827187,1.23513265 C59.8727207,1.4170088 60.0203009,1.62613053 59.9641368,1.914838" id="Fill-3" fill="#D92A1F" mask="url(#mask-4)"></path>
                </g>
                <path d="M59.9643877,15.1834703 C59.9615198,13.8715004 59.9594883,12.5596499 59.9573373,11.2477995 C59.82099,11.6714203 59.7820336,12.0992236 59.3655826,12.4326234 C57.9930271,13.5321257 56.3604437,14.1322453 54.8032636,14.855926 C52.3033627,16.0176868 49.7418009,17.0463266 47.209277,18.138181 C44.6221426,19.2536961 42.0326181,20.3638337 39.4557605,21.5025313 C37.6957921,22.2801057 35.91527,23.0122707 34.2170821,23.9278654 C31.6067649,25.3353143 28.9597619,25.802313 26.1394866,24.4191222 C23.3247082,23.0384408 20.3843372,21.9343976 17.4915266,20.726152 C12.6373931,18.6988663 7.78194515,16.6737315 2.9523088,14.5889671 C1.86499534,14.1195785 0.688416766,13.6840078 0.0287870991,12.5545115 L0.0312965598,13.2706638 C0.031535556,14.8984673 0.0318940504,16.5262708 0.0321330466,18.1540743 C-0.0772077406,18.748697 0.326337438,19.0621406 0.710045927,19.3803641 C1.30956804,19.8774763 2.06049427,20.123284 2.69228088,20.5681755 C2.85826378,20.9579784 3.23300991,21.0738916 3.57310158,21.2194403 C6.03440452,22.2722188 8.50156288,23.3111355 10.9660923,24.3560271 C13.8134937,25.5634362 16.6933986,26.693769 19.5465359,27.8891088 C21.742075,28.8090054 23.9543438,29.6937695 26.1017252,30.7206169 C28.380435,31.8104399 30.6307042,31.8489183 32.9394081,30.8415491 C34.3595238,30.2217123 35.7012488,29.442943 37.128176,28.8398359 C39.1378955,27.9904432 41.1341117,27.1086665 43.1345104,26.2381227 C45.5716747,25.1773378 48.0310657,24.1681761 50.4581921,23.08624 C52.5604032,22.1492552 54.6871114,21.2656861 56.7623159,20.2675182 C57.0129035,20.1470641 57.1938236,19.9961379 57.2533337,19.7194998 C57.9635111,19.4035467 58.6282792,19.0113539 59.245487,18.5381413 C59.5800818,18.2815788 59.885758,18.0041041 59.9643877,17.5590931 C59.8942423,16.767179 59.8954373,15.9752649 59.9643877,15.1834703" id="Fill-5" fill="#A6190F"></path>
                <path d="M59.9663594,37.2700226 C59.8933461,36.5972481 59.896692,35.9243541 59.96385,35.2514602 C59.96385,34.0575544 59.9639695,32.8636486 59.9642085,31.6697428 C59.8015715,31.6095157 59.6894823,31.690177 59.6188589,31.8197129 C59.4112906,32.2005535 59.0749034,32.4461221 58.7382772,32.6944392 C57.8508841,33.3491695 56.8413639,33.7878471 55.8461835,34.2238958 C52.720232,35.5935833 49.6044378,36.987051 46.4572156,38.3088198 C44.6830269,39.0541296 42.9339328,39.860742 41.1537691,40.5939825 C40.1441295,41.0099555 39.15349,41.4697843 38.159385,41.9190972 C36.1343698,42.8344529 34.1484304,43.8385957 32.1002325,44.7002967 C30.4914292,45.3770146 28.809254,45.3624358 27.2180169,44.713083 C25.0333522,43.8215074 22.8895557,42.8281195 20.7122998,41.9131223 C16.4125182,40.1063106 12.084057,38.3686883 7.80303657,36.5174233 C5.42072189,35.4871105 2.96360138,34.6142962 0.751332531,33.2164071 C0.586903106,33.1126827 0.394750116,33.0161282 0.243345988,33.1647839 C0.206301568,33.0424178 0.139621613,32.9397689 0.0317148032,32.8640071 C0.0244254174,34.7398887 0.0189285035,36.6158898 0.00719438262,38.4918909 C0.0057837094,38.7221638 0.0704321967,38.9157508 0.227452737,39.0806582 C0.692419954,39.7137593 1.37355928,40.0557629 2.05195016,40.3738669 C3.82470489,41.2049764 5.62578067,41.967972 7.44466168,42.697747 C8.5348431,43.1349907 9.61176024,43.6347319 10.6978787,44.0973091 C15.981369,46.3480563 21.3280737,48.4483554 26.5666326,50.806412 C28.3685449,51.6174458 30.2137155,51.8086428 32.0872072,51.0228231 C32.8165042,50.8691485 33.4482908,50.48544 34.106128,50.1631536 C35.4235949,49.5402098 36.7411813,48.9172661 38.0587676,48.2943224 C38.8099329,48.0140993 39.5484313,47.7048381 40.2545457,47.3226831 L40.2547847,47.3226831 C43.4016484,46.0318643 46.5199521,44.6743656 49.6276204,43.2922502 C50.9706599,42.7113698 52.3134603,42.1304894 53.6562608,41.549609 C53.928836,41.4342933 54.2049962,41.3271035 54.47315,41.202467 C56.0639091,40.4627735 57.7101153,39.8312259 59.1541307,38.8041395 C59.6805199,38.4296324 60.0111712,37.9491304 59.9663594,37.2700226" id="Fill-7" fill="#A6190F"></path>
                <path d="M59.7438181,22.4632246 C57.3236225,24.2155451 54.516014,25.2004487 51.8362685,26.429726 C49.4759414,27.5124985 47.047859,28.4457789 44.6654248,29.4815887 C41.9755219,30.6512363 39.3132231,31.8850545 36.6192573,33.0450228 C35.0899203,33.703577 33.6466219,34.5393469 32.0797624,35.1250073 C30.1217856,35.8566943 28.2600048,35.6223585 26.4233185,34.7889785 C23.3335749,33.387146 20.1827678,32.1302647 17.0599232,30.8074204 C14.5579909,29.747711 12.0739833,28.6419948 9.54647841,27.6476509 C7.14552202,26.7031377 4.79511334,25.6455792 2.42092453,24.6414365 C1.69796085,24.3356408 1.09545129,23.8478494 0.452073368,23.4201656 C0.200051816,23.2526292 0.155957007,22.9595003 0.0337104219,22.7136927 C-0.0381079531,22.2918643 0.178183659,22.0176161 0.476450987,21.7551982 C1.12532582,21.1843556 1.98380037,21.0187312 2.69230478,20.5681038 C4.19810069,21.0770463 5.63339271,21.7589026 7.09593029,22.3734815 C8.92377366,23.141257 10.7394282,23.9383095 12.5701395,24.6987956 C14.3461207,25.436577 16.1430141,26.1238108 17.9155298,26.8693596 C20.968229,28.1532475 24.0173432,29.4447832 27.0474573,30.7830428 C28.7945199,31.5545227 30.6014511,31.4390875 32.3836462,30.7366775 C33.7726924,30.1892566 35.0570583,29.428412 36.418859,28.8296069 C40.0876905,27.2162626 43.7632139,25.6184532 47.4521211,24.0506377 C50.7390366,22.6535851 53.9878323,21.1666699 57.2534771,19.7195476 C57.3744092,20.0006072 57.6676576,19.9874624 57.8914776,20.0868848 C58.3769985,20.3025789 58.8700478,20.5008263 59.3207947,20.7879803 C59.8089446,21.099034 60.1101993,21.4979187 59.9621412,22.116202 C59.8911593,22.2330712 59.9401535,22.4255827 59.7438181,22.4632246" id="Fill-9" fill="#D92A1F"></path>
                <path d="M0.0288229485,12.5545115 C-0.0613981382,12.0859594 0.151667024,11.7517231 0.495463139,11.4666006 C1.04133059,11.0141806 1.68972743,10.7558257 2.33525632,10.5030871 C10.338285,7.37056322 18.3193259,4.18091918 26.3703928,1.1730318 C27.9114407,0.597289817 29.4584634,0.0158119259 31.1401606,0.000277169282 C32.4778226,-0.012150636 33.7264586,0.395098985 34.9472515,0.870104044 C41.2551992,3.32471509 47.5549015,5.8010748 53.8592642,8.2653652 C55.3013676,8.82915737 56.7569743,9.35901207 58.1933418,9.93678552 C58.8860725,10.2154552 59.6129796,10.4830115 59.9573732,11.2477995 C60.031223,12.2845652 59.4536886,12.8685526 58.6051324,13.3296959 C56.7352257,14.3457885 54.7814313,15.1734325 52.8375552,16.0290391 C50.0950732,17.2359702 47.3505597,18.4395553 44.5913479,19.6056181 C41.9402819,20.7260325 39.3306818,21.939536 36.6759114,23.0501516 C35.6329317,23.4863198 34.6542421,24.0626592 33.6250047,24.5319284 C32.5362572,25.0284431 31.4226542,25.4291203 30.2250439,25.5718011 C29.4018213,25.6697896 28.6030958,25.5697696 27.8202636,25.3252765 C26.0343641,24.7675787 24.3747741,23.8997833 22.6501771,23.1912789 C20.2095473,22.1885701 17.7797919,21.1588547 15.3389231,20.1568629 C12.5107609,18.9958191 9.70733484,17.7758627 6.87977013,16.6131459 C5.00819045,15.8434585 3.13517679,15.0755635 1.34485583,14.118742 C0.67733929,13.7619206 0.169352747,13.3285009 0.0288229485,12.5545115" id="Fill-11" fill="#D92C21"></path>
                <path d="M17.9589076,14.9385231 C15.8338724,14.9493974 13.9548839,14.721156 12.1705378,13.9677203 C11.6220414,13.7361329 11.0963691,13.4565073 10.7010693,12.9829362 C10.1407426,12.3117152 10.1591453,11.6390603 10.787825,11.0259154 C11.616425,10.217869 12.6770904,9.85208524 13.7617749,9.61452297 C16.7958323,8.95011337 19.820091,8.9611072 22.7997768,9.94170884 C23.4825891,10.1664848 24.1199921,10.4878153 24.6456644,10.9966383 C25.2960927,11.6261545 25.3484329,12.3170926 24.7478353,12.99632 C24.002406,13.8392598 22.9677912,14.1654897 21.9325789,14.4447568 C20.5670738,14.8129305 19.1694237,14.9712656 17.9589076,14.9385231" id="Fill-13" fill="#FEFEFE"></path>
                <path d="M35.2660725,15.2255456 C34.9257418,15.7328152 34.5887571,16.2421162 34.2446025,16.7467568 C33.3268568,18.0921862 32.3978784,19.4299678 31.4927996,20.7837621 C31.2839168,21.0962497 31.1059841,21.2122823 30.7212002,21.0502429 C27.8697358,19.8494062 25.0088311,18.6713936 22.1527064,17.4820288 C22.0174345,17.4257452 21.7912245,17.4074619 21.8142877,17.2172209 C21.8335269,17.0584079 22.0428876,17.1026222 22.1729016,17.082666 C25.5397613,16.5648806 28.9073381,16.0510387 32.2743173,15.5337313 C33.2465541,15.3843586 34.2174764,15.2266211 35.1888767,15.0727075 C35.2145688,15.1236137 35.2402609,15.1746394 35.2660725,15.2255456" id="Fill-15" fill="#FEFEFE"></path>
                <path d="M26.8461149,3.22193475 C27.9794351,3.66097088 29.0258802,4.01910677 30.029545,4.47236317 C30.6769859,4.76465559 31.2547593,4.76429709 31.9060241,4.51741396 C32.8273547,4.16800143 33.7767673,3.89303624 34.8279923,3.54888163 C34.6477892,4.31582062 34.3476099,4.91247477 34.0709717,5.50614147 C33.857787,5.9636998 33.9322344,6.15728677 34.4089124,6.3214772 C35.4685023,6.68630499 36.5101675,7.10335345 37.5410778,7.64372399 C36.4497014,7.76322212 35.360715,7.9109218 34.2667096,7.99528748 C32.6693781,8.11860955 32.677026,8.1028358 32.071768,9.57290177 C31.9026782,9.98397533 31.8762691,10.6512529 31.4618496,10.7046685 C31.1654942,10.7429079 30.9689198,10.0679825 30.7402004,9.70315473 C30.476229,9.28216282 30.1860875,8.87168675 29.9760098,8.42428576 C29.7361771,7.91355076 29.3493617,7.79237966 28.8332492,7.75390126 C27.1975589,7.63225217 25.5649754,7.46889823 23.9127943,7.18186372 C25.079335,6.75429942 26.2453978,6.32518164 27.412536,5.89952931 C28.0780211,5.65670911 28.0706122,5.66364 27.7343445,5.02336903 C27.443964,4.47069019 27.0849916,3.94967835 26.8461149,3.22193475" id="Fill-17" fill="#FEFEFE"></path>
                <path d="M44.3688185,14.7085728 C43.7087108,15.0763881 43.092459,15.2190688 42.3078343,14.8851911 C40.1800506,13.9792757 38.0039897,13.1874811 35.8480045,12.3481263 C35.6501156,12.2711695 35.3539992,12.2303011 35.3563748,11.9885564 C35.3590181,11.7445412 35.6631409,11.7146667 35.8578033,11.6411754 C38.3936731,10.6837564 40.8629824,9.55390157 43.440318,8.70462837 C43.7040504,8.61775323 43.8991908,8.27204515 44.2441819,8.48726127 C44.3566297,10.0665485 44.2826603,11.6479868 44.2981951,13.2283495 C44.3030945,13.7233108 44.3248432,14.216121 44.3688185,14.7085728" id="Fill-19" fill="#A21C10"></path>
                <path d="M44.3688185,14.7085728 C44.0240664,14.6521697 44.0079341,14.3941732 44.008053,14.123032 C44.0086511,12.433687 44.0075756,10.7444614 44.0084121,9.05523588 C44.0085316,8.83500083 44.0055442,8.60974686 44.2441819,8.48726127 C45.4367733,8.96585128 50.7127351,11.0543201 51.5606938,11.3873613 C51.6822234,11.4351606 51.8695965,11.4486639 51.8597976,11.6248041 C51.8514328,11.7745353 51.6920223,11.8409762 51.5663102,11.8915239 C50.7387857,12.2240872 45.9387849,14.0979374 44.3688185,14.7085728" id="Fill-21" fill="#780F00"></path>
            </g>
        </g>
    </g>
</svg>