<?xml version="1.0" encoding="UTF-8"?>
<svg width="60px" height="60px" viewBox="0 0 60 60" version="1.1" xmlns="http://www.w3.org/2000/svg" xmlns:xlink="http://www.w3.org/1999/xlink">
    <title>画板备份</title>
    <defs>
        <rect id="path-1" x="0" y="0" width="60" height="60"></rect>
        <polygon id="path-3" points="0 0 9.42098479 0 9.42098479 9.50252579 0 9.50252579"></polygon>
        <polygon id="path-5" points="0 0 7.41229349 0 7.41229349 8.78218423 0 8.78218423"></polygon>
    </defs>
    <g id="V1.1中间件平台" stroke="none" stroke-width="1" fill="none" fill-rule="evenodd">
        <g id="中间件矢量图标" transform="translate(-48.000000, -101.000000)">
            <rect fill="#FFFFFF" x="0" y="0" width="868" height="348"></rect>
            <g id="编组-2备份-2" transform="translate(48.000000, 101.000000)">
                <g id="rocketMQ-黑白">
                    <mask id="mask-2" fill="white">
                        <use xlink:href="#path-1"></use>
                    </mask>
                    <use id="蒙版" fill="#D8D8D8" opacity="0" xlink:href="#path-1"></use>
                </g>
                <g id="编组" transform="translate(8.000000, 0.000000)">
                    <path d="M21.8352966,5.19775601 C21.7043256,5.27977368 21.6784491,5.28900445 21.6627871,5.30701202 C21.5881843,5.39243448 21.5149434,5.47906753 21.4438211,5.5674408 C18.3918409,9.35727735 15.9018028,13.4903926 13.9378429,17.9381107 C11.9862159,22.3579852 10.6708311,26.9499151 10.2658878,31.7840393 C9.9083846,36.0528923 10.3215751,40.2371551 11.5969346,44.3299425 C11.809545,45.0122629 11.6393054,44.9134483 12.3789776,44.9140536 C18.6448548,44.9187159 24.9106564,44.9168531 31.1766092,44.9168531 L31.6915652,44.9168531 C32.7621832,41.7293621 33.2884128,38.4972306 33.3366095,35.1873941 C33.3937343,31.2627278 32.782158,27.4317311 31.6609977,23.6775314 C30.164478,18.6662823 27.8983238,14.0157143 25.0140107,9.6658272 C24.0061922,8.14592789 22.9013749,6.69049265 21.8352966,5.19775601 L21.8352966,5.19775601 Z M21.790656,0 C21.9777682,0.262698646 22.1514126,0.53636829 22.3540356,0.786431373 C25.5195089,4.69278748 28.3515395,8.82348157 30.7034944,13.271805 C33.3274544,18.2344033 35.2820322,23.437153 36.2001155,28.9963467 C37.165639,34.8422238 36.9533313,40.6187189 35.1017295,46.2868659 C34.6321708,47.7245205 34.0588038,49.1191991 33.2658655,50.4620492 C32.9174417,50.2626797 32.5827128,50.0736003 32.2502538,49.8805107 C31.4549699,49.4188209 30.6649068,48.9477489 29.8625864,48.4985433 C29.6971135,48.4058573 29.4877566,48.3482028 29.2984501,48.3479002 C24.2683612,48.33988 19.2381966,48.3393504 14.2080321,48.3488081 C13.9950434,48.3492621 13.7592048,48.4171309 13.5730005,48.5226038 C12.4570608,49.154382 11.3524705,49.8065889 10.174715,50.4923141 C9.78891422,49.6713808 9.38283599,48.8912294 9.04848538,48.0814941 C7.74354196,44.9211658 7.04722409,41.6175336 6.8159252,38.2141788 C6.32571076,31.0026773 7.87526959,24.1720585 10.7084351,17.5874171 C12.6990281,12.9610609 15.2558002,8.65823564 18.2190288,4.59510777 C19.2431147,3.19082007 20.3337075,1.83510742 21.3923709,0.455863866 C21.505637,0.308322864 21.6077051,0.152156387 21.7149939,0 L21.790656,0 Z" id="Fill-1" fill="#00C5E3"></path>
                    <g transform="translate(17.027064, 50.497474)">
                        <mask id="mask-4" fill="white">
                            <use xlink:href="#path-3"></use>
                        </mask>
                        <g id="Clip-4"></g>
                        <path d="M4.68794511,9.50254849 C3.65924384,8.47763033 2.74085785,7.36638176 2.00807087,6.10721388 C0.910441477,4.22133723 0.223732689,2.20206837 0,0 L9.42098479,0 C9.25763042,1.72562443 8.79571359,3.34978605 8.05846255,4.89457817 C7.25954694,6.56867674 6.21472966,8.07011451 4.86257312,9.34963548 C4.81967274,9.39011468 4.79614184,9.45102263 4.76360716,9.50254849 L4.68794511,9.50254849 Z" id="Fill-3" fill="#00C5E3" mask="url(#mask-4)"></path>
                    </g>
                    <g transform="translate(36.017709, 41.486351)">
                        <mask id="mask-6" fill="white">
                            <use xlink:href="#path-5"></use>
                        </mask>
                        <g id="Clip-6"></g>
                        <path d="M7.41230863,8.75326718 C7.27467935,8.76287626 7.13705008,8.78065684 6.99942081,8.78073251 C4.81884046,8.78262406 2.63818444,8.78209442 0.457604093,8.78218423 L0,8.78218423 C1.75316542,6.10025298 2.50804571,3.17742789 2.6542248,0 C3.17954643,0.495056809 3.66083274,0.947667207 4.14105979,1.4014882 C4.86423769,2.08494352 5.5931659,2.76264852 6.30355691,3.45919337 C6.43619249,3.5893321 6.54234635,3.78696139 6.57760486,3.96945826 C6.8405305,5.32872703 7.08181678,6.69215721 7.3324095,8.05377151 C7.34784456,8.13760506 7.38522161,8.21750419 7.41230863,8.29929487 L7.41230863,8.75326718 Z" id="Fill-5" fill="#00C5E3" mask="url(#mask-6)"></path>
                    </g>
                    <path d="M-5.02343196e-16,50.0882938 C0.177578837,49.1758095 0.357805846,48.2638548 0.531752904,47.3506895 C0.626027822,46.8560866 0.738007659,46.3624674 0.790214475,45.8628709 C0.843253574,45.3557081 1.07341754,44.9959351 1.44854999,44.6549262 C2.51061822,43.6896297 3.53674698,42.6846863 4.5777055,41.696086 C4.63134989,41.6450897 4.69127424,41.6008274 4.80711284,41.504661 C4.95881525,44.6531103 5.70196793,47.5756327 7.44211948,50.2317491 C7.3057008,50.2484704 7.22375879,50.2672346 7.14174113,50.2673102 C4.83578876,50.2686722 2.52976072,50.2683695 0.223808351,50.2666293 C0.149205567,50.2665536 0.0746027837,50.249 -5.02343196e-16,50.2396179 L-5.02343196e-16,50.0882938 Z" id="Fill-7" fill="#00C5E3"></path>
                    <path d="M25.7489248,31.8318653 C25.7505127,29.3621802 23.7935894,27.294185 21.3954806,27.3350425 C18.6525799,27.3818017 16.9094019,29.1899734 16.8857197,31.7355475 C16.8595406,34.5518404 19.2603732,36.1993816 21.2611805,36.1791042 C23.7757331,36.1536817 25.7473349,34.2684104 25.7489248,31.8318653 M17.2924789,36.0818028 C17.1936642,36.1644257 17.1108143,36.2423577 17.0192632,36.3082593 C16.8109655,36.4582972 16.7348495,36.6148419 16.7756314,36.9064435 C16.956161,38.1985244 16.0805998,39.2932029 14.8052402,39.429092 C13.5882918,39.5588524 12.4956561,38.6824589 12.3617342,37.4690665 C12.2246346,36.2277549 13.1337898,35.1095454 14.3828946,35.006418 C14.6297042,34.9860649 14.8855933,35.0242743 15.1321759,35.0658884 C15.4030461,35.1117396 16.1177498,34.7358505 16.1900827,34.4692175 C16.2099819,34.3959766 16.1706376,34.2992048 16.1399188,34.2205163 C15.404181,32.3370608 15.5044332,30.5277542 16.5962366,28.7953958 C16.6538911,28.7039204 16.6373211,28.5165811 16.5817095,28.4135294 C16.481533,28.2277791 16.317649,28.0777412 16.1945468,27.9027349 C15.9082416,27.4959001 15.5915203,27.2245003 15.038582,27.1415747 C14.0932603,26.9996327 13.4937898,26.0042227 13.666602,25.0650296 C13.8491745,24.0725705 14.7312427,23.4221795 15.731949,23.5421795 C16.6864258,23.6567319 17.4088471,24.5306286 17.3111674,25.5171104 C17.279465,25.8373122 17.344156,26.065509 17.5546479,26.2908306 C17.7863251,26.5387751 17.9527816,26.9478798 18.2245597,27.0289895 C18.4794651,27.1051056 18.8333365,26.8398344 19.1462748,26.7326969 C20.743652,26.1859629 22.3258969,26.1237687 23.8858971,26.8763035 C23.9718492,26.9177663 24.1245352,26.9354712 24.188621,26.8874258 C24.4399703,26.6989517 24.6840561,26.4942102 24.8959855,26.2634409 C24.9633247,26.1902 24.9564395,26.0078545 24.925191,25.8910323 C24.5160107,24.3583461 25.4005757,22.8069714 26.9172972,22.4138313 C28.4446871,22.0178918 29.965343,22.9226586 30.3559862,24.4598089 C30.8762384,26.5070727 28.9899835,28.4114866 26.9629971,27.8434159 C26.5084951,27.716001 26.2068305,27.7523944 25.9191634,28.0996076 C25.8481924,28.185257 25.7519503,28.2499481 25.6400461,28.3482331 C27.3055949,30.7083595 27.2738168,33.0734796 25.6072088,35.4693185 C25.8673349,35.782862 26.1232996,36.1226603 26.4180033,36.4246275 C26.4913199,36.49976 26.6947751,36.4812984 26.8301345,36.4578432 C29.1335144,36.0576666 31.2254188,37.8727992 31.0779535,40.1865448 C30.9786849,41.7432159 30.1776507,42.8567343 28.7147249,43.3962047 C27.2670072,43.9300005 25.9289238,43.6175919 24.8651154,42.505965 C23.788293,41.380719 23.5842325,40.030227 24.1592641,38.5837955 C24.2533877,38.3469733 24.2482427,38.2030641 24.0739173,38.0224588 C23.8470825,37.7873768 23.662694,37.5112103 23.4345729,37.2774902 C23.3577003,37.1986503 23.1834506,37.1353969 23.0868301,37.1667966 C20.9962876,37.8473768 19.1146481,37.4217021 17.3906125,36.1212227 C17.371697,36.1069982 17.3453666,36.1026098 17.2924789,36.0818028" id="Fill-9" fill="#00C5E3"></path>
                    <path d="M23.4227924,31.0158282 C23.8682149,31.01327 24.2127042,31.3589699 24.2060459,31.8018199 C24.1996147,32.2292348 23.8735112,32.5526901 23.4365629,32.5651743 C23.0126284,32.577129 22.6396145,32.2063849 22.6454404,31.7788186 C22.6511151,31.3655525 23.0049865,31.018188 23.4227924,31.0158282" id="Fill-11" fill="#00C5E3"></path>
                    <path d="M22.0262261,31.7862033 C22.0275085,32.2238326 21.7099548,32.5536434 21.2791351,32.5619663 C20.8300051,32.5707431 20.4877857,32.239192 20.4844566,31.7918779 C20.4812031,31.3702133 20.815478,31.0255726 21.2365374,31.0161905 C21.6855916,31.0062032 22.0248603,31.3370733 22.0262261,31.7862033" id="Fill-13" fill="#00C5E3"></path>
                    <path d="M18.9844866,31.0160619 C19.4358864,31.009328 19.7778789,31.3423167 19.7775009,31.7881175 C19.7771223,32.2168187 19.4464791,32.5585842 19.0251172,32.5658477 C18.5793163,32.5735653 18.2358106,32.2376258 18.2327085,31.79069 C18.2297577,31.3636534 18.5608548,31.0224175 18.9844866,31.0160619" id="Fill-15" fill="#00C5E3"></path>
                </g>
            </g>
        </g>
    </g>
</svg>