<?xml version="1.0" encoding="UTF-8"?>
<svg width="152px" height="152px" viewBox="0 0 152 152" version="1.1" xmlns="http://www.w3.org/2000/svg" xmlns:xlink="http://www.w3.org/1999/xlink">
    <title>minio</title>
    <defs>
        <linearGradient x1="-0.0256344901%" y1="50.0069107%" x2="99.9666641%" y2="50.0069107%" id="linearGradient-1">
            <stop stop-color="#9FA0A0" offset="0%"></stop>
            <stop stop-color="#BFC0C1" offset="19%"></stop>
            <stop stop-color="#FFFFFF" offset="47%"></stop>
            <stop stop-color="#DCDDDD" offset="69%"></stop>
            <stop stop-color="#A7A7A8" offset="100%"></stop>
        </linearGradient>
        <polygon id="path-2" points="0 0 40 0 40 21 0 21"></polygon>
        <polygon id="path-4" points="0 0 33 0 33 22 0 22"></polygon>
        <polygon id="path-6" points="0 22 141 22 141 0 0 0"></polygon>
    </defs>
    <g id="minio" stroke="none" stroke-width="1" fill="none" fill-rule="evenodd">
        <g id="谐云科技新版logo矢量图-02" transform="translate(29.000000, 118.137931)" fill-rule="nonzero">
            <path d="M51.321403,7.92154647 C49.6822623,5.15260151 46.9592229,3.12407653 43.7551049,2.28504147 C40.550987,1.44600641 37.1300987,1.86567334 34.2497476,3.45113739 L19.584054,11.4002803 C18.8560602,11.7864272 18.3226891,12.4391645 18.1059928,13.209125 C17.8892966,13.9790856 18.0078223,14.8003684 18.4344476,15.4850379 C18.8419954,16.1673762 19.5160905,16.6662193 20.3079535,16.8714676 C21.0998166,17.0767159 21.9443458,16.9714952 22.6551455,16.5790288 L37.3454734,8.65349726 C38.7828299,7.85025728 40.4995283,7.64280602 42.0999172,8.07895524 C43.7178873,8.4683359 45.0911794,9.49050517 45.8854071,10.8965722 C46.7302356,12.2667251 46.9414892,13.91223 46.4684218,15.4378153 C45.5604769,18.6276196 42.1274987,20.5088553 38.7989044,19.6406294 C38.1978299,19.4858683 37.6227519,19.2500208 37.0909177,18.9401604 L31.2854052,22.0883358 C35.2726772,26.1119311 41.6016033,27.0262193 46.6490742,24.3077995 C49.5713085,22.7719806 51.6953098,20.1402826 52.5120669,17.0433847 C53.4526859,13.9761217 53.021424,10.6721653 51.321403,7.92154647 Z" id="路径" fill="url(#linearGradient-1)"></path>
            <path d="M57.3459596,8.88950039 C58.4899687,8.88950039 59.4190631,9.83726808 59.4250841,11.010448 L59.4250841,19.7523433 C59.4221539,19.9566653 59.4992551,20.1536562 59.6391214,20.2992001 C59.7789875,20.444744 59.9699315,20.5266796 60.169192,20.5266575 L61.2634681,20.5266575 L61.2634681,21.862069 L60.169192,21.862069 C59.0330101,21.862069 58.111953,20.9175126 58.111953,19.7523433 L58.111953,11.010448 C58.111974,10.8031279 58.0309239,10.6044581 57.8869489,10.4589191 C57.7429739,10.3133801 57.5481006,10.2331292 57.3459596,10.2361338 L56,10.2361338 L56,8.88950039 L57.3459596,8.88950039 Z M95,10.4688132 L95,11.8414946 L82.405115,11.8414946 L80.3152806,20.4893876 L91.5802708,20.4893876 C92.1974813,20.4893876 92.6978295,19.9772455 92.6978295,19.3454864 L92.6978295,15.3418322 L94.0388996,15.3418322 L94.0388996,19.3226083 C94.0388996,20.7251137 92.9281269,21.862069 91.5579195,21.862069 L78.739523,21.862069 L81.0416935,11.8414946 L77.6890178,11.8414946 L77.6666666,10.4688132 L95,10.4688132 Z M65.2904041,12.2560839 L65.2904041,13.2548371 L70.9915825,13.2548371 C72.128808,13.273142 73.0430068,14.2206384 73.0488216,15.3870066 L73.0488216,19.6513458 C73.0430068,20.817714 72.128808,21.7652104 70.9915825,21.7835154 L63.6818183,21.7835154 C62.5463901,21.7651279 61.6353804,20.8158875 61.6355218,19.6513458 L61.6355218,15.3870066 C61.6353804,14.2224649 62.5463901,13.2732246 63.6818183,13.2548371 L63.9882154,13.2548371 L63.9882154,12.2560839 L65.2904041,12.2560839 Z M71.7466406,18.181271 L62.9924242,18.181271 L62.9924242,19.6401238 C62.9865348,19.8455087 63.0604895,20.0448725 63.1980025,20.1943128 C63.3355152,20.3437532 63.5253092,20.431015 63.7255892,20.4368819 L71.0353535,20.4368819 C71.4368956,20.4073946 71.7476612,20.0641855 71.7466406,19.6513458 L71.7466406,18.181271 Z M70.9915825,14.6014705 L63.6818183,14.6014705 C63.2691002,14.6136966 62.9424971,14.9636295 62.9484031,15.3870066 L62.9924242,16.8458595 L71.7468589,16.8458595 L71.7468589,15.3870066 C71.7495628,15.1797083 71.6713086,14.9798632 71.5293903,14.8322149 C71.3874718,14.6845666 71.1937448,14.6014705 70.9915825,14.6014705 Z M62.9924242,3.9181787 L62.9924242,5.68002408 L67.074074,5.68002408 L67.074074,7.01543556 L62.9924242,7.01543556 L62.9924242,9.52915126 C62.9894426,9.7324579 63.0668817,9.92833509 63.2070804,10.0721108 C63.3472791,10.2158866 63.5382832,10.2953013 63.7365319,10.2922435 L67.0193601,10.2922435 L67.0303031,11.6388769 L63.7474748,11.6388769 C62.6137803,11.6327416 61.6962185,10.6917698 61.6902357,9.52915126 L61.6902357,3.9181787 L62.9924242,3.9181787 Z M69.2626262,3.9181787 L69.2626262,6.54411385 L72.840909,5.08526098 L73.3333334,6.33089689 L69.2188553,7.98052284 L69.2188553,9.52915126 C69.2217003,9.73650723 69.305533,9.93402743 69.4515744,10.0774665 C69.5976157,10.2209056 69.7936596,10.298275 69.9957913,10.2922435 L73.2786195,10.2922435 L73.3223905,11.6388769 L70.0395622,11.6388769 C68.8997864,11.6388769 67.9724355,10.6979418 67.9604378,9.52915126 L67.9604378,3.9181787 L69.2626262,3.9181787 Z M59.1186869,3.86206897 L59.1186869,7.43064752 L57.8055555,7.43064752 L57.8055555,3.86206897 L59.1186869,3.86206897 Z M94.273587,4.9208925 L94.273587,6.29357392 L78.3930798,6.29357392 L78.3930798,4.9208925 L94.273587,4.9208925 Z" id="形状结合" fill="#40454A"></path>
            <path d="M41.8859288,14.4881472 C42.1116367,13.7210443 41.9994598,12.898963 41.575481,12.2130489 C41.1721641,11.521404 40.4949391,11.0142034 39.6964546,10.8057716 C38.8939263,10.5794568 38.0290875,10.684328 37.3109079,11.0950453 L22.6463318,19.0305256 C19.6448789,20.6682981 15.8246377,19.675686 14.1008462,16.8101547 C13.2610838,15.4345452 13.0512405,13.788424 13.5207989,12.2599582 C14.4317708,9.07686424 17.8648237,7.20151651 21.1921287,8.0693991 C21.7923036,8.2245677 22.3650074,8.46434621 22.8914222,8.78085596 L28.6918951,5.65357308 C27.1176666,4.03003533 25.0907349,2.87162326 22.8505738,2.31519863 C19.8504281,1.48450943 16.6301984,1.8041752 13.8720952,3.20647423 L13.978301,3.57392998 L13.4799505,4.04302241 L12.8100367,3.87102186 L12.8100367,3.80065798 C11.5180918,4.55460724 10.3848244,5.53305481 9.46863748,6.68557643 L9.55850395,6.99048652 L9.06015346,7.45957895 L8.92943857,7.45957895 C8.28496387,8.47171844 7.79525949,9.56695876 7.47523547,10.7119531 C7.47523547,10.8292263 7.4262174,10.9464994 7.39353868,11.0637725 L7.39353868,11.0637725 L7.57327164,11.7048654 L7.15661794,12.1114122 C6.70602599,14.7590919 7.23475582,17.4742575 8.65166944,19.7888917 C10.2591608,22.5810124 12.9991554,24.6147784 16.2249631,25.4101826 C19.4208996,26.2912378 22.8550103,25.8726641 25.7181316,24.253088 L40.4235562,16.3097895 C41.156153,15.9254352 41.6866584,15.2645973 41.8859288,14.4881472 L41.8859288,14.4881472 Z M16.7314833,2.22919835 L17.4095667,2.4011989 L17.5892997,3.05011011 L17.0909492,3.52702073 L16.4128657,3.35502017 L16.2249631,2.70610899 L16.7314833,2.22919835 Z M14.3459366,4.51993306 L15.0158504,4.69193361 L15.203753,5.34084481 L14.7054026,5.80993723 L14.0273191,5.63793668 L13.8475861,4.98902548 L14.3459366,4.51993306 Z M9.8771215,7.11557784 L10.555205,7.2875784 L10.7349379,7.93648959 L10.2447571,8.41340023 L9.56667365,8.24139968 L9.38694066,7.59248848 L9.8771215,7.11557784 Z M9.53399492,9.05449322 L10.2120784,9.22649377 L10.3918113,9.87540497 L9.89346085,10.3523156 L9.25622579,10.2428607 L9.06015346,9.56267669 L9.53399492,9.05449322 Z M9.19086835,13.1434156 L8.51278487,12.971415 L8.33305191,12.3225038 L8.8314024,11.8534114 L9.5013162,12.0254119 L9.68104916,12.6743231 L9.19086835,13.1434156 Z M10.3836417,12.0019573 L9.70555821,11.8299568 L9.52582522,11.1810456 L10.0241757,10.7119531 L10.6940895,10.8839537 L10.8819922,11.5328649 L10.3836417,12.0019573 Z M11.780657,4.4573874 L12.4587405,4.62938795 L12.6384734,5.27048093 L12.1482926,5.74739157 L11.5110576,5.5519364 L11.3231549,4.90302521 L11.780657,4.4573874 Z M12.3280256,8.10067193 L11.6417724,7.89739855 L11.4620395,7.25630557 L11.9522203,6.77939492 L12.6303038,6.95139548 L12.8100367,7.60030667 L12.3280256,8.10067193 Z" id="形状" fill="#005D97"></path>
            <polygon id="路径" fill="#005D97" points="3.27734939 5.52206897 2.66 6.13941836 2.88265061 6.96929789 3.72265061 7.20206897 4.34 6.58471958 4.11734939 5.74471958"></polygon>
            <polygon id="路径" fill="#005D97" points="5.72265061 4.20206897 6.34 3.58471958 6.11734939 2.74471957 5.27734939 2.52206897 4.66 3.13941836 4.89277108 3.96929789"></polygon>
            <polygon id="路径" fill="#005D97" points="8.7189091 5.20206897 9.34 4.58471958 9.11599999 3.75484005 8.27090908 3.52206897 7.66 4.13941836 7.88400001 4.97941836"></polygon>
            <polygon id="路径" fill="#005D97" points="14.34 3.31191971 14.2385235 2.86057643 13.3365101 2.52206897 12.66 3.27430778 12.8742282 4.20206897 13.6409396 3.6629645"></polygon>
            <path d="M9.22077418,6.75163419 L8.3211613,6.52206897 L7.66,7.14815592 L7.90929031,8.01424287 L8.62464517,8.20206897 C8.85225805,7.85772114 9.10154839,7.53424287 9.34,7.1585907 L9.22077418,6.75163419 Z" id="路径" fill="#005D97"></path>
            <path d="M7.36675863,11.522069 L6.66,12.132978 L6.91489656,12.978069 L7.87655172,13.202069 L7.98082758,13.1104326 C8.0657931,12.6556447 8.18551725,12.194069 8.34,11.7257053 L7.36675863,11.522069 Z" id="路径" fill="#005D97"></path>
            <polygon id="路径" fill="#005D97" points="6.88265061 10.9794184 7.72265061 11.202069 8.34 10.5847196 8.10722892 9.75484005 7.27734939 9.52206897 6.66 10.1394184"></polygon>
            <polygon id="路径" fill="#005D97" points="4.88265061 6.96929789 5.72265061 7.20206897 6.34 6.58471958 6.11734939 5.74471958 5.27734939 5.52206897 4.66 6.12929789"></polygon>
            <polygon id="路径" fill="#005D97" points="8.72265061 4.20206897 9.34 3.59115989 9.10722892 2.74606897 8.27734939 2.52206897 7.66 3.13297805 7.88265061 3.97806896"></polygon>
            <polygon id="路径" fill="#005D97" points="11.7290909 3.20206897 12.34 2.58471957 12.116 1.75484005 11.2810909 1.52206897 10.66 2.13941836 10.884 2.97941836"></polygon>
            <polygon id="路径" fill="#005D97" points="15.7226506 2.20206897 16.34 1.58471957 16.1173494 0.74471957 15.2773494 0.522068966 14.66 1.13941836 14.8826506 1.97941836"></polygon>
            <polygon id="路径" fill="#005D97" points="10.7189091 5.20206897 11.34 4.58471958 11.116 3.74471958 10.2709091 3.52206897 9.66 4.13941836 9.87381819 4.96929789"></polygon>
            <polygon id="路径" fill="#005D97" points="6.11599999 8.74606898 5.27090908 8.52206897 4.66 9.14315987 4.88400001 9.97806896 5.72909092 10.202069 6.34 9.59115989"></polygon>
            <polygon id="路径" fill="#005D97" points="1.2773494 1.52206897 0.66 2.13941836 0.892771083 2.96929789 1.7226506 3.20206897 2.34 2.58471957 2.1173494 1.74471957"></polygon>
            <polygon id="路径" fill="#C9A063" points="40.4118 1.36206897 40.4118 1.36206897 40.5882 1.36206897"></polygon>
            <polygon id="路径" fill="#C9A063" points="40.5882 1.36206897 40.4118 1.36206897 40.4118 1.36206897"></polygon>
            <polygon id="路径" fill="#C9A063" points="45.563 2.32846897 45.4286 2.32846897 45.5714 2.39566897"></polygon>
        </g>
        <g id="编组" transform="translate(6.000000, 52.000000)">
            <g>
                <mask id="mask-3" fill="white">
                    <use xlink:href="#path-2"></use>
                </mask>
                <g id="Clip-2"></g>
                <path d="M-5.58471626e-05,1.67961719 C1.19060566,-0.196531947 1.9921986,-0.417722445 3.99189934,0.660439441 C8.94870734,3.33325247 13.9057015,6.00644361 18.8381229,8.72538526 C19.6871859,9.19328824 20.3476717,9.25151616 21.2321046,8.75922552 C26.2069699,5.99075232 31.2233482,3.29846696 36.2181322,0.566102639 C37.0444841,0.114080007 37.9346878,-0.279147543 38.7632736,0.263430856 C39.2977309,0.613365566 39.9345747,1.3366774 39.942021,1.90042959 C40.0250471,8.19982152 39.9945174,14.5007259 39.9945174,20.9092006 C39.6233199,20.9351007 39.2969863,20.9766921 38.9702804,20.9776373 C37.0465318,20.9838761 35.1214801,20.9422847 33.1992208,20.998244 C32.3661673,21.0224426 32.0658957,20.8035207 32.0880484,19.9057142 C32.147991,17.4801808 32.1120627,15.0520006 32.1077811,12.6249548 C32.1049887,11.1144317 31.6723593,10.8350133 30.3720512,11.5093607 C27.4451014,13.0274459 24.5090299,14.5287055 21.6034882,16.088193 C20.3273806,16.7731274 19.1458408,16.7404214 17.8991459,16.0394177 C15.2678138,14.5595209 12.6150736,13.1187579 9.96847653,11.6666517 C8.39879894,10.8057102 7.96747269,11.0582833 7.96672806,12.8276183 C7.96561112,15.1601382 7.96635575,17.4928472 7.96635575,19.8251781 L7.96635575,20.9706424 L-5.58471626e-05,20.9706424 L-5.58471626e-05,1.67961719 Z" id="Fill-1" fill="#CC0747" mask="url(#mask-3)"></path>
            </g>
            <path d="M68.8043764,20.9611213 L61,20.9611213 C61,20.5935212 61,20.2618862 61,19.9302512 C61.0022766,14.1875892 61.0024596,8.44492728 61.0077649,2.70226533 C61.0099602,0.412242117 62.4637982,-0.557108922 64.4803652,0.413377854 C70.9431483,3.52321348 77.3987968,6.6491387 83.8573723,9.76862808 C84.078183,9.8753873 84.2960667,9.98952882 84.5207191,10.086445 C85.6335538,10.5666722 86.0638328,10.2770594 86.0651134,9.03967458 C86.0680404,6.07767399 86.0660281,3.11605197 86.0660281,0.111839833 C86.2943394,0.0717104788 86.4663046,0.0154915258 86.6382699,0.0149236576 C88.8333879,0.0079199496 91.028506,0.0194666033 93.2232582,0 C93.7354951,-0.00457315108 93.9954553,0.0931001815 93.9939918,0.720783846 C93.9802711,6.68415724 94.0194207,12.6477199 93.9863082,18.610904 C93.9753317,20.6056358 92.3815432,21.5429969 90.5797499,20.6768086 C85.3316999,18.1535808 80.0938947,15.6068812 74.8513329,13.0711603 C73.444145,12.3906649 72.0318347,11.7213376 70.6261103,11.037435 C69.3085638,10.396501 68.8098646,10.6993641 68.8056569,12.1815001 C68.7983393,14.7372857 68.8041934,17.2930712 68.8043764,19.8488567 C68.8045593,20.1874955 68.8043764,20.5261342 68.8043764,20.9611213" id="Fill-3" fill="#CC0747"></path>
            <g transform="translate(108.000000, 0.000000)">
                <mask id="mask-5" fill="white">
                    <use xlink:href="#path-4"></use>
                </mask>
                <g id="Clip-6"></g>
                <path d="M16.3733493,2.69118895 C15.1662989,2.7848394 13.9435985,2.78082581 12.7554737,2.99144375 C10.045479,3.47231013 7.43338775,4.23164325 5.44038066,6.43797135 C3.59477458,8.48127121 3.23937439,10.8554056 4.13105945,13.4130185 C4.89809057,15.6132306 6.6075782,16.8683377 8.58038589,17.7820985 C10.6942254,18.7612235 12.9279874,19.1218733 15.2094274,19.20979 C18.7548763,19.3466344 22.2242591,19.0429393 25.4381468,17.2320455 C28.5022678,15.5052459 29.9113122,12.4944796 29.1047921,9.23735523 C28.5697811,7.07708787 27.1268891,5.69775056 25.3455207,4.69282393 C22.5494512,3.11510057 19.5037098,2.69826052 16.3733493,2.69118895 M16.5323968,22 C12.4717723,21.9682735 8.53907722,21.3551498 4.96160038,19.2145681 C1.85871837,17.3579958 -0.0937079465,14.6654498 0.00346752677,10.7376736 C0.0975493988,6.93164299 2.14442154,4.38587981 5.15376761,2.66099146 C9.30028509,0.283990204 13.8289533,-0.217326375 18.4638958,0.0749012457 C21.8189973,0.286283684 25.0741937,0.954450959 28.0213038,2.76821167 C30.7154665,4.42639796 32.6225807,6.70095709 32.9505024,10.1088778 C33.2584067,13.308474 32.1210533,15.9104274 29.795939,17.9294546 C27.1112391,20.2613508 23.8949857,21.2328308 20.5173191,21.6922914 C19.1985351,21.8715651 17.8613715,21.9019537 16.5323968,22" id="Fill-5" fill="#CC0747" mask="url(#mask-5)"></path>
            </g>
            <mask id="mask-7" fill="white">
                <use xlink:href="#path-6"></use>
            </mask>
            <g id="Clip-8"></g>
            <polygon id="Fill-7" fill="#CC0747" mask="url(#mask-7)" points="46 21 54 21 54 0 46 0"></polygon>
            <polygon id="Fill-9" fill="#CC0747" mask="url(#mask-7)" points="100 21 103 21 103 0 100 0"></polygon>
        </g>
    </g>
</svg>