<?xml version="1.0" encoding="UTF-8"?>
<svg width="300px" height="111px" viewBox="0 0 300 111" version="1.1" xmlns="http://www.w3.org/2000/svg" xmlns:xlink="http://www.w3.org/1999/xlink">
    <title>github开源02</title>
    <g id="github开源02" stroke="none" stroke-width="1" fill="none" fill-rule="evenodd">
        <g id="编组-32备份-2">
            <g id="编组备份-7">
                <path d="M45.4785766,52.8065719 L45.6554104,52.8065719 L45.4785766,52.8065719 Z" id="Fill-1" fill="#044993"></path>
                <g id="编组">
                    <path d="M104.211444,36.1178801 C104.211444,36.1178801 95.1526117,44.2738188 86.5248694,19.8197274 C78.0374627,-4.2365175 57.9398944,-1.21295283 52.1056391,2.55020484 C46.2715491,-1.21295283 26.1739809,-4.2365175 17.6865741,19.8197274 C9.05883185,44.2738188 0,36.1178801 0,36.1178801 C0,36.1178801 1.32236068,44.1811767 9.09122968,40.7499867 C9.09122968,40.7499867 0,56.1903419 3.47119679,65.6261145 C3.47119679,65.6261145 6.44650832,56.8765799 10.0830002,56.5334609 C10.0830002,56.5334609 -7.51233103,85.2415417 52.0679518,110.967061 L52.0679518,111 C52.0806795,110.99451 52.0929114,110.98902 52.1056391,110.98353 C52.1185321,110.98902 52.130764,110.99451 52.1434917,111 L52.1434917,110.967061 C111.723775,85.2415417 94.1284433,56.5334609 94.1284433,56.5334609 C97.7649352,56.8765799 100.740247,65.6261145 100.740247,65.6261145 C104.211444,56.1903419 95.1202138,40.7499867 95.1202138,40.7499867 C102.889083,44.1811767 104.211444,36.1178801 104.211444,36.1178801" id="Fill-2" fill="#044993"></path>
                    <g transform="translate(17.259647, 4.798105)" fill="#FFFFFF">
                        <path d="M66.0435883,48.6625708 C66.9808114,50.7933398 67.8287752,53.0047418 68.5213616,55.2487401 C69.4899908,58.3899946 71.3941902,65.4307965 66.288225,73.8955424 C66.8700637,69.8295822 68.3544136,64.5112376 62.4054435,56.4496566 C55.223372,46.7188016 55.7936401,38.0927899 55.7936401,38.0927899 L55.7820694,38.0893587 C55.8266991,37.9092212 55.8597581,37.7307993 55.8862053,37.5523775 C56.0581122,36.3686169 55.8696758,35.1642692 55.425032,34.0611416 C54.9093114,32.7830233 54.5886389,31.0416944 54.3902848,29.2317416 C54.3902848,29.2317416 61.3194548,37.9040744 66.0435883,48.6625708" id="Fill-4"></path>
                        <path d="M62.4054765,56.4496394 C68.3544466,64.5112204 66.8700968,69.829565 66.2882581,73.8955252 L66.2882581,73.8972408 C64.4237295,76.988743 61.6236308,80.2689607 57.5028243,83.6195178 C57.5028243,83.6195178 56.6251074,84.1993889 55.2151403,85.1549753 C57.9243268,79.4694934 62.7360667,73.9487087 57.9425092,67.4294476 C52.5803367,60.1381687 51.1654107,52.8468899 51.1654107,52.8468899 L51.1488812,52.8468899 C51.0827632,49.724507 49.6926315,47.4427656 47.9107505,45.7940788 L47.9124035,45.7906476 C53.4514418,46.1131794 51.0480512,41.7504213 50.7306847,41.2134401 C50.7174611,41.1894217 50.7356435,41.1619722 50.7620907,41.1636878 C54.1357634,41.4004399 55.3787825,39.7620467 55.7821025,38.0893415 L55.7936731,38.0927727 C55.7936731,38.0927727 55.2234051,46.7187845 62.4054765,56.4496394" id="Fill-6"></path>
                        <path d="M63.6881333,29.8733741 C65.2501719,34.2927469 66.2816132,40.3573753 66.0435883,48.6625708 C61.3194548,37.9040744 54.3902848,29.2317416 54.3902848,29.2317416 C54.0514299,26.1350926 54.0762241,22.8342878 54.112589,21.2919679 C54.1274656,20.6503353 54.0034943,20.0138496 53.7423281,19.4322629 C53.5538917,19.0119421 53.3555376,18.6156396 53.1489187,18.2416399 L53.4795089,18.1918877 C53.4795089,18.1918877 60.0351119,19.5369141 63.6881333,29.8733741" id="Fill-8"></path>
                        <path d="M59.4698854,9.67738957 C66.3544257,15.6819721 64.5460975,27.6276603 63.7278868,29.8579338 L63.688216,29.8733741 C60.0351946,19.5369141 53.4795915,18.1918877 53.4795915,18.1918877 L53.1490013,18.2416399 C50.7175106,13.8359919 47.1603604,12.6247818 45.391703,12.2919564 C44.7784582,12.1770115 44.148684,12.2233326 43.5536217,12.4103324 C42.432921,12.7603138 41.4147033,13.0107907 40.5072332,13.187497 L40.4212798,12.7019836 C41.3056085,10.2555451 50.2728669,4.99896195 57.0879832,8.13506965 C57.9210705,8.51593174 58.7210987,9.02374787 59.4698854,9.67738957" id="Fill-10"></path>
                        <path d="M57.9425092,67.4294476 C62.7360667,73.9487087 57.9243268,79.4694934 55.2151403,85.1549753 C52.5241363,86.9803684 47.8975269,90.1782375 43.7353967,93.3469415 L43.7271319,93.3349324 C46.3272236,86.4879927 53.4795419,82.8698028 47.0330336,71.3753161 C41.4063889,61.3459476 42.9006565,51.9890924 42.9006565,51.9890924 L42.8775152,51.9547805 C43.8808563,51.2222214 44.3899652,50.2786442 44.3899652,50.2786442 L44.4379008,50.1980112 C48.1421636,52.5826883 50.3438942,55.8749151 50.6596078,56.3655753 C50.6744843,56.3895936 50.7108493,56.3810156 50.7174611,56.3535661 C51.0414394,55.0805946 51.1736755,53.91399 51.1488812,52.8468899 L51.1654107,52.8468899 C51.1654107,52.8468899 52.5803367,60.1381687 57.9425092,67.4294476" id="Fill-12"></path>
                        <path d="M57.1160338,8.06985988 L57.0879336,8.13505249 C50.2728173,4.99894479 41.3055589,10.2555279 40.4212302,12.7019664 L40.5071836,13.1874798 C37.2723588,13.82225 35.4524599,13.5374612 35.4524599,13.5374612 C35.4524599,13.5374612 34.9334334,11.475316 34.9334334,8.96025369 C34.9334334,4.76905506 36.3748065,-0.681390318 44.059375,0.070040301 C44.059375,0.070040301 51.2133463,0.00656328523 57.1160338,8.06985988" id="Fill-14"></path>
                        <path d="M49.677755,22.6318133 C48.3173764,22.6060793 46.4528479,22.7759232 44.7387378,23.6268584 C42.3221237,24.8260593 40.5733017,24.4314724 39.619549,23.9837021 L39.5220249,24.3130964 C43.6461373,29.0292671 46.4545008,28.0565247 47.3636238,25.9120309 C48.231423,23.8653261 49.677755,22.6524004 49.677755,22.6524004 L49.677755,22.6318133 Z M15.2947243,29.2317073 C15.6319263,26.1350583 15.608785,22.8342535 15.5707671,21.2919335 C15.5558905,20.650301 15.6815148,20.0138153 15.9410281,19.4322285 C16.1294645,19.0119078 16.3278186,18.6156053 16.5344374,18.2416056 C18.9675811,13.8359576 22.5230784,12.6247475 24.2933887,12.2919221 C24.9049806,12.1769772 25.5347548,12.2232983 26.1314701,12.4102981 C27.2521708,12.7602795 28.2703885,13.0107564 29.1778585,13.1874627 C32.4110304,13.8222328 34.2309293,13.5374441 34.2309293,13.5374441 C34.2309293,13.5374441 34.7499558,11.4735832 34.7499558,8.95852094 L34.9334334,8.96023654 C34.9334334,11.4752988 35.4524599,13.5374441 35.4524599,13.5374441 C35.4524599,13.5374441 37.2723588,13.8222328 40.5071836,13.1874627 C41.4146537,13.0107564 42.4328714,12.7602795 43.5535721,12.4102981 C44.1486344,12.2232983 44.7784086,12.1769772 45.3916534,12.2919221 C47.1603108,12.6247475 50.7174611,13.8359576 53.1489518,18.2416056 C53.3555706,18.6156053 53.5539247,19.0119078 53.7423611,19.4322285 C54.0035274,20.0138153 54.1274987,20.650301 54.1126221,21.2919335 C54.0762572,22.8342535 54.0514629,26.1350583 54.3903178,29.2317073 C54.588672,31.04166 54.9093444,32.782989 55.4250651,34.0611073 C55.8697089,35.1642349 56.0581453,36.3685826 55.8862384,37.5523431 C55.8597912,37.730765 55.8267321,37.9091869 55.7821025,38.0893244 C55.3787825,39.7620295 54.1357634,41.4004228 50.7620907,41.1636707 C50.7356435,41.1619551 50.7174611,41.1894046 50.7306847,41.2134229 C51.0480512,41.7504042 53.4514418,46.1131623 47.9124035,45.7906304 L47.9107505,45.7940616 C44.8759327,42.9873482 40.7022318,42.0163214 39.9865041,41.8670646 C39.9798923,41.865349 39.9716276,41.8636334 39.9650158,41.8636334 C39.8972448,41.8516243 39.8311267,41.8499087 39.7633558,41.8584866 C39.1963936,41.9408352 36.1814113,42.4400734 34.877233,45.0186127 L34.8078091,45.0186127 C33.5036309,42.4400734 30.4869956,41.9408352 29.9200334,41.8584866 C29.8522625,41.8499087 29.7861444,41.8516243 29.7200264,41.8636334 C29.7134146,41.8636334 29.7051498,41.865349 29.698538,41.8670646 C28.9828103,42.0163214 24.8107624,42.9873482 21.7759446,45.7940616 L21.7726387,45.7906304 C16.2336004,46.1131623 18.6369909,41.7504042 18.9527045,41.2134229 C18.9659281,41.1894046 18.9477457,41.1619551 18.9212985,41.1636707 C15.5492787,41.4004228 14.3062597,39.7620295 13.9029397,38.0893244 C13.85831,37.9091869 13.825251,37.730765 13.7988038,37.5523431 C13.6268969,36.3685826 13.8153333,35.1642349 14.2599771,34.0611073 C14.7756977,32.782989 15.0963702,31.04166 15.2947243,29.2317073 L15.2947243,29.2317073 Z M29.7514325,24.1175185 C28.7513972,24.4949494 27.1182817,24.7059676 24.9463043,23.6268584 C23.2321943,22.7759232 21.3676657,22.6060793 20.0072872,22.6318133 L20.0072872,22.6524004 C20.0072872,22.6524004 21.4536192,23.8653261 22.3214184,25.9120309 C23.2305413,28.0565247 26.0389048,29.0292671 30.1630172,24.3130964 L29.7514325,24.1175185 Z" id="Fill-16"></path>
                        <path d="M39.9650654,41.8636506 C39.9716772,41.8636506 39.9799419,41.8653662 39.9865537,41.8670818 C40.7022814,42.0163385 44.8759823,42.9873653 47.9108001,45.7940788 C49.6926811,47.4427656 51.0828128,49.724507 51.1489308,52.8468899 C51.1737251,53.91399 51.041489,55.0805946 50.7175106,56.3535661 C50.7108988,56.3810156 50.6745339,56.3895936 50.6596574,56.3655753 C50.3439438,55.8749151 48.1422132,52.5826883 44.4379504,50.1980112 C41.9105885,48.5716271 38.6823755,47.3655638 34.8789356,47.7635819 L34.8045528,47.7635819 C31.0011129,47.3655638 27.7728999,48.5716271 25.245538,50.1980112 C21.5429281,52.5826883 19.3411976,55.8749151 19.025484,56.3655753 C19.0089545,56.3895936 18.9742425,56.3810156 18.9659777,56.3535661 C18.6419994,55.0805946 18.5114163,53.91399 18.5345576,52.8468899 C18.6006756,49.724507 19.9924602,47.44105 21.7759942,45.7940788 C24.8108119,42.9873653 28.9828599,42.0163385 29.6985876,41.8670818 C29.7051994,41.8653662 29.7134642,41.8636506 29.720076,41.8636506 C29.786194,41.8516414 29.852312,41.8499258 29.920083,41.8585038 C30.4870452,41.9408524 33.5036805,42.4400905 34.8078587,45.0186298 L34.8772826,45.0186298 C36.1814609,42.4400905 39.1964432,41.9408524 39.7634054,41.8585038 C39.8311763,41.8499258 39.8972944,41.8516414 39.9650654,41.8636506" id="Fill-18"></path>
                        <path d="M49.677755,22.6318133 L49.677755,22.6524004 C49.677755,22.6524004 48.231423,23.8653261 47.3636238,25.9120309 C46.4545008,28.0565247 43.6461373,29.0292671 39.5220249,24.3130964 L39.619549,23.9837021 C40.5733017,24.4314724 42.3221237,24.8260593 44.7387378,23.6268584 C46.4528479,22.7759232 48.3173764,22.6060793 49.677755,22.6318133" id="Fill-20"></path>
                        <path d="M47.0330336,71.3753161 C53.4795419,82.8698028 46.3272236,86.4879927 43.7271319,93.3349324 L43.7353967,93.3469415 C39.0046513,96.9479755 34.877233,100.511266 34.877233,101.976384 L34.8078091,101.976384 C34.8078091,100.511266 30.6803908,96.9479755 25.9496455,93.3469415 L25.9579102,93.3349324 C23.3578186,86.4879927 16.2055002,82.8698028 22.6520085,71.3753161 C28.2770003,61.3459476 26.7843857,51.9890924 26.7843857,51.9890924 L26.807527,51.9564961 C28.083605,52.8863486 30.1564054,53.4782289 32.9994809,51.3663314 C32.9994809,51.3663314 34.4788719,49.9938554 34.8078091,51.5378909 L34.877233,51.5378909 C35.2045173,49.9938554 36.6855613,51.3663314 36.6855613,51.3663314 C39.5286367,53.4782289 41.6030901,52.8863486 42.8775152,51.9547805 L42.9006565,51.9890924 C42.9006565,51.9890924 41.4063889,61.3459476 47.0330336,71.3753161" id="Fill-22"></path>
                        <path d="M44.4378677,50.1980283 L44.3899321,50.2786613 C44.3899321,50.2786613 43.8808233,51.2222386 42.8774821,51.9547976 C41.603057,52.8863657 39.5286037,53.478246 36.6855282,51.3663486 C36.6855282,51.3663486 35.2044843,49.9938725 34.8772,51.5379081 L34.8077761,51.5379081 C34.4788388,49.9938725 32.9994478,51.3663486 32.9994478,51.3663486 C30.1563724,53.478246 28.083572,52.8863657 26.8074939,51.9565132 C25.8024998,51.2222386 25.2933909,50.2786613 25.2933909,50.2786613 L25.2454554,50.1980283 C27.7728172,48.5716443 31.0010302,47.365581 34.8044701,47.763599 L34.8788529,47.763599 C38.6822928,47.365581 41.9105059,48.5716443 44.4378677,50.1980283" id="Fill-24"></path>
                        <path d="M34.7499558,8.95852094 C34.7499558,11.4735832 34.2309293,13.5374441 34.2309293,13.5374441 C34.2309293,13.5374441 32.4110304,13.8222328 29.1778585,13.1874627 L29.263812,12.7019493 C28.3794832,10.2555108 19.4122249,4.99892764 12.5971085,8.13331974 L12.5690084,8.06984272 C18.4700429,0.00654612928 25.6240142,0.070023145 25.6240142,0.070023145 C33.3085827,-0.679691879 34.7499558,4.76732231 34.7499558,8.95852094" id="Fill-26"></path>
                        <path d="M29.7514655,24.1175357 L30.1630503,24.3131135 C26.0389379,29.0292842 23.2305744,28.0565419 22.3214514,25.9120481 C21.4536522,23.8653432 20.0073202,22.6524176 20.0073202,22.6524176 L20.0073202,22.6318304 C21.3676988,22.6060965 23.2322274,22.7759404 24.9463374,23.6268755 C27.1183148,24.7059848 28.7514302,24.4949666 29.7514655,24.1175357" id="Fill-28"></path>
                        <path d="M16.0633795,18.227898 C15.0914444,18.4920996 9.33421659,20.4324376 5.99690882,29.873357 L5.957238,29.8579166 C5.13737438,27.6276431 3.32904615,15.681955 10.2152394,9.67737241 C10.9640261,9.02373071 11.7657073,8.51591458 12.5971416,8.1333369 C19.4122579,4.99894479 28.3795163,10.2555279 29.263845,12.7019664 L29.1778916,13.1874798 C28.2704216,13.0107735 27.2522038,12.7602967 26.1315031,12.4103153 C25.5347879,12.2233154 24.9050136,12.1769944 24.2934218,12.2919392 C22.5231114,12.6247647 18.9676142,13.8359747 16.5344705,18.2416228 L16.0633795,18.227898 Z" id="Fill-30"></path>
                        <path d="M26.80756,51.9565132 L26.7844187,51.9891095 C26.7844187,51.9891095 28.2770334,61.3459648 22.6520416,71.3753333 C16.2055333,82.8698199 23.3578516,86.4880098 25.9579433,93.3349495 L25.9496786,93.3469587 C21.7858954,90.1765391 17.15598,86.9769544 14.466629,85.1532769 C11.7574425,79.467795 6.94900851,73.9487258 11.742566,67.4294647 C17.1047385,60.1381859 18.5196645,52.8469071 18.5196645,52.8469071 L18.534541,52.8469071 C18.5113997,53.9140072 18.6419828,55.0806118 18.9659612,56.3535833 C18.974226,56.3810328 19.0089379,56.3896108 19.0254674,56.3655924 C19.341181,55.8749323 21.5429116,52.5827054 25.2455215,50.1980283 L25.2934571,50.2786613 C25.2934571,50.2786613 25.8025659,51.2222386 26.80756,51.9565132" id="Fill-32"></path>
                        <path d="M21.7726718,45.7906647 L21.7759777,45.7940959 C19.9924437,47.4410672 18.6006591,49.7245241 18.534541,52.8469071 L18.5196645,52.8469071 C18.5196645,52.8469071 17.1047385,60.1381859 11.742566,67.4294647 C6.94900851,73.9487258 11.7574425,79.467795 14.466629,85.1532769 C13.0583149,84.1976905 12.1822509,83.6195349 12.1822509,83.6195349 C8.05979149,80.2689779 5.25969274,76.9887602 3.39681713,73.897258 C2.81332548,69.8312978 1.32897562,64.5129532 7.27959869,56.4496566 C14.4616701,46.7188016 13.8914021,38.0927899 13.8914021,38.0927899 L13.9029727,38.0893587 C14.3062928,39.7620638 15.5493118,41.4004571 18.9213315,41.163705 C18.9477787,41.1619894 18.9659612,41.1894389 18.9527376,41.2134572 C18.637024,41.7504385 16.2336334,46.1131966 21.7726718,45.7906647" id="Fill-34"></path>
                        <path d="M16.0633795,18.227898 L16.5344705,18.2416228 C16.3278516,18.6156225 16.1294975,19.0119249 15.9410611,19.4322457 C15.6815479,20.0138324 15.5559236,20.6503182 15.5708002,21.2919507 C15.608818,22.8342706 15.6319593,26.1350754 15.2947574,29.2317245 C15.2947574,29.2317245 8.36393444,37.9040573 3.64145386,48.6625536 C3.40342894,40.3556426 4.43487027,34.2927298 5.99690882,29.873357 C9.33421659,20.4324376 15.0914444,18.4920996 16.0633795,18.227898" id="Fill-36"></path>
                        <path d="M3.64147039,48.6625708 C8.36395097,37.9040744 15.2947739,29.2317416 15.2947739,29.2317416 C15.0964198,31.0416944 14.7757473,32.7830233 14.2600267,34.0611416 C13.8153829,35.1642692 13.6269465,36.3686169 13.7988534,37.5523775 C13.8253006,37.7307993 13.8583596,37.9092212 13.9029893,38.0893587 L13.8914186,38.0927899 C13.8914186,38.0927899 14.4616867,46.7188016 7.27961521,56.4496566 C1.32899215,64.5129532 2.81334201,69.8312978 3.39683366,73.897258 C-1.71078447,65.4325121 0.195067864,58.3899946 1.16369706,55.2487401 C1.85628347,53.0047418 2.70424726,50.7933398 3.64147039,48.6625708" id="Fill-38"></path>
                    </g>
                    <path d="M39.0323186,50.5887697 C33.4932803,50.9113016 35.8966708,46.5485434 36.2123844,46.0115622 C36.225608,45.9875439 36.2074256,45.9600944 36.1809784,45.9618099 C32.8089586,46.1985621 31.5659396,44.5601688 31.1626196,42.8874637 C31.1179899,42.7073262 31.0849309,42.5289043 31.0584837,42.3504824 C30.8865768,41.1667219 31.0750132,39.9623742 31.519657,38.8592466 C32.0353776,37.5811283 32.3560501,35.8397993 32.5544042,34.0298466 C32.8916062,30.9331976 32.8684649,27.6323928 32.830447,26.0900728 C32.8155704,25.4484403 32.9411947,24.8119545 33.200708,24.2303678 C33.3891444,23.810047 33.5874985,23.4137446 33.7941173,23.0397449 C36.227261,18.6340969 39.7827583,17.4228868 41.5530686,17.0900614 C42.1646604,16.9751165 42.7944347,17.0214376 43.39115,17.2084374 C44.5118507,17.5584188 45.5300684,17.8088957 46.4375384,17.985602 C49.6707103,18.6203721 51.4906092,18.3355833 51.4906092,18.3355833 C51.4906092,18.3355833 52.0096357,16.2717225 52.0096357,13.7566602 C52.0096357,9.56546159 50.5682626,4.11844741 42.8836941,4.86816243 C42.8836941,4.86816243 35.7297228,4.80468541 29.8286882,12.867982" id="Stroke-40" stroke="#044993" stroke-width="1.66956522" stroke-linecap="round"></path>
                    <path d="M52.0641666,52.561704 C48.2607267,52.1636859 45.0325136,53.3697492 42.5051518,54.9961333 C38.8025419,57.3808104 36.6008114,60.6730372 36.2850977,61.1636974 C36.2685682,61.1877157 36.2338563,61.1791378 36.2255915,61.1516883 C35.9016131,59.8787167 35.77103,58.7121121 35.7941713,57.645012 C35.8602894,54.5226291 37.252074,52.2391721 39.035608,50.5922009 C42.0704257,47.7854875 46.2424737,46.8144607 46.9582014,46.6652039 C46.9648132,46.6634883 46.9730779,46.6617727 46.9796898,46.6617727 C47.0458078,46.6497635 47.1119258,46.648048 47.1796968,46.6566259 C47.7466589,46.7389745 50.7632942,47.2382126 52.0674725,49.816752" id="Stroke-42" stroke="#044993" stroke-width="1.66956522" stroke-linecap="round"></path>
                    <path d="M45.2010981,35.6853786 C42.2671103,37.687478 39.0521209,36.2189287 38.8207078,36.0662407 C34.2850107,33.0467935 32.5543711,34.0298294 32.5543711,34.0298294 C32.5543711,34.0298294 25.6235482,42.7021623 20.9010676,53.4606586 C19.9638445,55.5914276 19.1158807,57.8028296 18.4232943,60.0468279 C17.4546651,63.1880824 15.5488128,70.2305999 20.6564309,78.6953458 C22.5193065,81.786848 25.3194053,85.0670657 29.4418647,88.4176228 C29.4418647,88.4176228 30.3179286,88.9957783 31.7262428,89.9513647 C34.4155938,91.7750422 39.0455091,94.9746269 43.2092923,98.1450465 C47.9400377,101.74608 52.0674559,105.309371 52.0674559,106.774489" id="Stroke-44" stroke="#044993" stroke-width="1.66956522" stroke-linecap="round"></path>
                    <path d="M48.1764096,28.4798795 C48.1764096,28.4798795 50.9170021,35.0626176 46.9829791,38.8369267 C43.0638327,42.5957954 43.5812063,46.4009851 46.9796732,46.6617556 C46.9928968,46.6634712 47.0061204,46.6634712 47.019344,46.6651867" id="Stroke-46" stroke="#044993" stroke-width="1.66956522" stroke-linecap="round"></path>
                    <path d="M46.5234588,17.5000714 C45.6391301,15.0536329 36.6718717,9.79704977 29.8567553,12.9314419 C29.0253211,13.3140196 28.2236399,13.8218357 27.4748532,14.4754774 C20.5886599,20.48006 22.3969882,32.4257481 23.2168518,34.6560216" id="Stroke-48" stroke="#044993" stroke-width="1.66956522" stroke-linecap="round"></path>
                    <path d="M33.4651471,22.9899755 C33.4651471,22.9899755 33.4155585,23.000269 33.3229933,23.026003 C32.3510582,23.2902046 26.5938304,25.2305426 23.2565226,34.671462 C21.694484,39.0908347 20.6630427,45.1537475 20.9010676,53.4606586 C20.9010676,53.4829614 20.9027206,53.5052641 20.9027206,53.5275668" id="Stroke-50" stroke="#044993" stroke-width="1.66956522" stroke-linecap="round"></path>
                    <path d="M31.1510159,42.8908777 C31.1510159,42.8908777 31.7212839,51.5168895 24.5392125,61.2477444 C18.5885894,69.311041 20.0729393,74.6293856 20.6564309,78.6953458" id="Stroke-52" stroke="#044993" stroke-width="1.66956522" stroke-linecap="round"></path>
                    <path d="M35.7792782,57.6449949 C35.7792782,57.6449949 34.3643523,64.9362737 29.0021798,72.2275525 C24.2086223,78.7468136 29.0170563,84.2658828 31.7262428,89.9513647 L31.7278957,89.9530803" id="Stroke-54" stroke="#044993" stroke-width="1.66956522" stroke-linecap="round"></path>
                    <path d="M42.5530708,55.0767491 C42.5530708,55.0767491 43.0621797,56.0203264 44.0671738,56.7546011 C45.3432519,57.6844536 47.4160522,58.2763338 50.2591277,56.1644364 C50.2591277,56.1644364 51.7385187,54.7919604 52.0674559,56.3359959" id="Stroke-56" stroke="#044993" stroke-width="1.66956522" stroke-linecap="round"></path>
                    <path d="M44.0440325,56.7871974 C44.0440325,56.7871974 45.5366471,66.1440526 39.9116554,76.1734211 C33.4651471,87.6679077 40.6174654,91.2860976 43.2175571,98.1330373" id="Stroke-58" stroke="#044993" stroke-width="1.66956522" stroke-linecap="round"></path>
                    <path d="M35.283393,27.622082 C35.283393,27.622082 36.0867271,27.4522381 37.266934,27.4299354 C38.6273126,27.4042015 40.4918411,27.5740454 42.2059512,28.4249805 C44.3779286,29.5040898 46.011044,29.2930716 47.0110793,28.9156407 C47.761519,28.6308519 48.1565742,28.253421 48.1565742,28.253421" id="Stroke-60" stroke="#044993" stroke-width="1.66956522" stroke-linecap="round"></path>
                    <path d="M37.266934,27.4505225 C37.266934,27.4505225 38.713266,28.6634482 39.5810652,30.7101531 C40.4901882,32.8546468 43.2985517,33.8273892 47.422664,29.1112185" id="Stroke-62" stroke="#044993" stroke-width="1.66956522" stroke-linecap="round"></path>
                    <path d="M65.1720338,50.5887697 C70.7110721,50.9113016 68.3076815,46.5485434 67.990315,46.0115622 C67.9770914,45.9875439 67.9952738,45.9600944 68.021721,45.9618099 C71.3953937,46.1985621 72.6384128,44.5601688 73.0417328,42.8874637 C73.0863624,42.7073262 73.1194215,42.5289043 73.1458687,42.3504824 C73.3177756,41.1667219 73.1293392,39.9623742 72.6846954,38.8592466 C72.1689747,37.5811283 71.8483023,35.8397993 71.6499482,34.0298466 C71.3110932,30.9331976 71.3358875,27.6323928 71.3722524,26.0900728 C71.387129,25.4484403 71.2631577,24.8119545 71.0019914,24.2303678 C70.813555,23.810047 70.6152009,23.4137446 70.4085821,23.0397449 C67.9770914,18.6340969 64.4199411,17.4228868 62.6512837,17.0900614 C62.0380389,16.9751165 61.4082647,17.0214376 60.8132024,17.2084374 C59.6925017,17.5584188 58.674284,17.8088957 57.7668139,17.985602 C54.5319891,18.6203721 52.7120902,18.3355833 52.7120902,18.3355833 C52.7120902,18.3355833 52.1930637,16.2734381 52.1930637,13.7583758 C52.1930637,9.56717719 53.6344368,4.11673181 61.3190053,4.86816243 C61.3190053,4.86816243 68.4729766,4.80468541 74.3756641,12.867982" id="Stroke-64" stroke="#044993" stroke-width="1.66956522" stroke-linecap="round"></path>
                    <path d="M52.1385659,52.561704 C55.9420058,52.1636859 59.1702188,53.3697492 61.6975807,54.9961333 C65.4018435,57.3808104 67.6035741,60.6730372 67.9192877,61.1636974 C67.9341642,61.1877157 67.9705291,61.1791378 67.9771409,61.1516883 C68.3011193,59.8787167 68.4333554,58.7121121 68.4085611,57.645012 C68.3424431,54.5226291 66.9523114,52.2408877 65.1704304,50.5922009 C62.1356126,47.7854875 57.9619117,46.8144607 57.246184,46.6652039 C57.2395722,46.6634883 57.2313075,46.6617727 57.2246957,46.6617727 C57.1569247,46.6497635 57.0908066,46.648048 57.0230357,46.6566259 C56.4560735,46.7389745 53.4410912,47.2382126 52.1369129,49.816752" id="Stroke-66" stroke="#044993" stroke-width="1.66956522" stroke-linecap="round"></path>
                    <path d="M83.5479545,78.6953458 C81.6834259,81.786848 78.8833272,85.0670657 74.7625207,88.4176228 C74.7625207,88.4176228 73.8848038,88.9974939 72.4748367,89.9530803 C69.7838328,91.7784734 65.1572233,94.9763425 60.9950931,98.1450465 C56.2643477,101.74608 52.1369295,105.309371 52.1369295,106.774489" id="Stroke-68" stroke="#044993" stroke-width="1.66956522" stroke-linecap="round"></path>
                    <path d="M59.0032377,35.6853786 C61.9372255,37.687478 65.1522149,36.2189287 65.383628,36.0662407 C69.9176722,33.0467935 71.6499647,34.0298294 71.6499647,34.0298294 C71.6499647,34.0298294 78.5791347,42.7021623 83.3032682,53.4606586 C84.2404913,55.5914276 85.0884551,57.8028296 85.7810415,60.0468279 C86.7496707,63.1880824 88.6538701,70.2288843 83.5479049,78.6936302" id="Stroke-70" stroke="#044993" stroke-width="1.66956522" stroke-linecap="round"></path>
                    <path d="M56.0279262,28.4798795 C56.0279262,28.4798795 53.2873337,35.0626176 57.2213567,38.8369267 C61.1405032,42.5957954 60.6214766,46.4009851 57.2246626,46.6617556 C57.211439,46.6634712 57.1982154,46.6634712 57.1849918,46.6651867" id="Stroke-72" stroke="#044993" stroke-width="1.66956522" stroke-linecap="round"></path>
                    <path d="M57.680877,17.5000714 C58.5652057,15.0536329 67.5324641,9.79704977 74.3475805,12.9331575 C75.1806677,13.3140196 75.9806959,13.8218357 76.7294826,14.4754774 C83.6140229,20.48006 81.8056947,32.4257481 80.987484,34.6560216" id="Stroke-74" stroke="#044993" stroke-width="1.66956522" stroke-linecap="round"></path>
                    <path d="M70.7391888,22.9899755 C70.7391888,22.9899755 77.2947918,24.335002 80.9478132,34.671462 C82.5098518,39.0908347 83.5412931,45.1554631 83.3032682,53.4606586 C83.3032682,53.4829614 83.3016152,53.5052641 83.3016152,53.5275668" id="Stroke-76" stroke="#044993" stroke-width="1.66956522" stroke-linecap="round"></path>
                    <path d="M73.05332,42.8908777 C73.05332,42.8908777 72.4830519,51.5168895 79.6651234,61.2477444 C85.6140935,69.3093254 84.1297436,74.62767 83.5479049,78.6936302 L83.5479049,78.6953458" id="Stroke-78" stroke="#044993" stroke-width="1.66956522" stroke-linecap="round"></path>
                    <path d="M68.4250576,57.6449949 C68.4250576,57.6449949 69.8399835,64.9362737 75.2021561,72.2275525 C79.9957135,78.7468136 75.1839736,84.2675984 72.4747872,89.9530803" id="Stroke-80" stroke="#044993" stroke-width="1.66956522" stroke-linecap="round"></path>
                    <path d="M61.649579,55.0767491 C61.649579,55.0767491 61.1404701,56.0203264 60.1371289,56.7528855 C58.8627038,57.6844536 56.7882505,58.2763338 53.9451751,56.1644364 C53.9451751,56.1644364 52.4641311,54.7919604 52.1368468,56.3359959" id="Stroke-82" stroke="#044993" stroke-width="1.66956522" stroke-linecap="round"></path>
                    <path d="M60.1603033,56.7871974 C60.1603033,56.7871974 58.6660357,66.1440526 64.2926804,76.1734211 C70.7391888,87.6679077 63.5868704,91.2860976 60.9867787,98.1330373" id="Stroke-84" stroke="#044993" stroke-width="1.66956522" stroke-linecap="round"></path>
                    <path d="M68.9209428,27.622082 C68.9209428,27.622082 68.1176087,27.4522381 66.9374018,27.4299354 C65.5770233,27.4042015 63.7124947,27.5740454 61.9983847,28.4249805 C59.5817705,29.6241814 57.8329485,29.2295946 56.8791959,28.7818243 C56.3320691,28.5262006 56.0477616,28.253421 56.0477616,28.253421" id="Stroke-86" stroke="#044993" stroke-width="1.66956522" stroke-linecap="round"></path>
                    <path d="M66.9374018,27.4505225 C66.9374018,27.4505225 65.4910698,28.6634482 64.6232706,30.7101531 C63.7141476,32.8546468 60.9057841,33.8273892 56.7816718,29.1112185" id="Stroke-88" stroke="#044993" stroke-width="1.66956522" stroke-linecap="round"></path>
                </g>
            </g>
            <text id="Zeus备份" font-family="PingFangSC-Semibold, PingFang SC" font-size="78.2608696" font-weight="500" fill="#004998">
                <tspan x="117.237874" y="83.0647059">Zeus</tspan>
            </text>
        </g>
    </g>
</svg>